<?xml version="1.0" encoding="UTF-8" standalone="no"?>
<!-- Created with Inkscape (http://www.inkscape.org/) -->

<svg
   xmlns:dc="http://purl.org/dc/elements/1.1/"
   xmlns:cc="http://creativecommons.org/ns#"
   xmlns:rdf="http://www.w3.org/1999/02/22-rdf-syntax-ns#"
   xmlns:svg="http://www.w3.org/2000/svg"
   xmlns="http://www.w3.org/2000/svg"
   xmlns:xlink="http://www.w3.org/1999/xlink"
   xmlns:sodipodi="http://sodipodi.sourceforge.net/DTD/sodipodi-0.dtd"
   xmlns:inkscape="http://www.inkscape.org/namespaces/inkscape"
   version="1.0"
   width="48"
   height="48"
   viewBox="0 0 100 100"
   id="svg2"
   sodipodi:version="0.32"
   inkscape:version="0.91 r13725"
   sodipodi:docname="keepassx2.svg"
   inkscape:output_extension="org.inkscape.output.svg.inkscape">
  <metadata
     id="metadata2481">
    <rdf:RDF>
      <cc:Work
         rdf:about="">
        <dc:format>image/svg+xml</dc:format>
        <dc:type
           rdf:resource="http://purl.org/dc/dcmitype/StillImage" />
        <dc:title />
      </cc:Work>
    </rdf:RDF>
  </metadata>
  <sodipodi:namedview
     inkscape:window-height="875"
     inkscape:window-width="1418"
     inkscape:pageshadow="2"
     inkscape:pageopacity="0.0"
     guidetolerance="10.0"
     gridtolerance="10.0"
     objecttolerance="10.0"
     borderopacity="1.0"
     bordercolor="#666666"
     pagecolor="#ffffff"
     id="base"
     showgrid="false"
     inkscape:zoom="58.21846"
     inkscape:cx="37.166644"
     inkscape:cy="15.70015"
     inkscape:window-x="151"
     inkscape:window-y="0"
     inkscape:current-layer="svg2" />
  <defs
     id="defs4">
    <linearGradient
       id="linearGradient3255">
      <stop
         style="stop-color:#226e23;stop-opacity:1;"
         offset="0"
         id="stop3257" />
      <stop
         id="stop3267"
         offset="1"
         style="stop-color:#63ab3a;stop-opacity:1;" />
    </linearGradient>
    <inkscape:perspective
       sodipodi:type="inkscape:persp3d"
       inkscape:vp_x="0 : 24 : 1"
       inkscape:vp_y="0 : 1000 : 0"
       inkscape:vp_z="48 : 24 : 1"
       inkscape:persp3d-origin="24 : 16 : 1"
       id="perspective2483" />
    <clipPath
       id="clip0">
      <rect
         width="100"
         height="100"
         x="0"
         y="0"
         id="rect7" />
    </clipPath>
    <linearGradient
       inkscape:collect="always"
       xlink:href="#linearGradient3255"
       id="linearGradient3261"
       x1="9.5115528"
       y1="84.508163"
       x2="81.182388"
       y2="15.300087"
       gradientUnits="userSpaceOnUse"
       gradientTransform="matrix(0.997403,0,0,0.997403,0.12987,0.12987)" />
  </defs>
  <path
     inkscape:connector-curvature="0"
     id="path14"
     style="fill:none;stroke:#000000;stroke-width:0.0997403;stroke-linecap:butt;stroke-linejoin:miter;stroke-miterlimit:10"
     d="m 65.235832,0.12987 5.010681,0 c 9.471645,1.3593755 17.981196,7.3640956 22.437641,15.820486 4.503137,9.567953 4.250012,21.374734 -1.579506,30.329797 -5.221999,8.528574 -15.099113,13.726496 -25.076217,13.414884 1.496333,1.550635 2.971054,3.123825 4.45856,4.684899 3.706687,3.891692 7.327189,7.864426 11.035262,11.755845 -0.04746,6.439059 -0.173666,12.877313 -0.218228,19.317012 -7.008044,0.104495 -14.01738,-0.105073 -21.023994,0.07602 C 56.008378,91.070207 51.727836,86.619165 47.55007,82.072714 45.902642,80.288177 44.216708,78.53986 42.545127,76.77981 c 0.0815,2.699057 0.166345,5.399347 0.257173,8.099592 -3.904567,0.02174 -7.80877,0.0047 -11.712956,0.01146 -2.833032,3.219203 -5.663217,6.44116 -8.458399,9.69383 -6.098182,0.134522 -12.197976,0.0058 -18.2967201,0.08222 C 2.9302714,94.618783 1.5288304,94.531592 0.12987,94.405349 l 0,-20.673253 C 6.0090929,66.635295 13.029859,60.524451 19.347669,53.804049 13.021048,46.552362 5.9917281,39.861608 0.12987,32.238939 l 0,-21.050445 c 6.2763828,-0.06214 12.551836,-0.175812 18.828021,-0.257113 6.579472,6.710707 13.271003,13.313769 19.745234,20.126337 0.103932,-6.584052 1.698885,-13.275447 5.610666,-18.669756 4.76302,-6.888924 12.5927,-11.41068943 20.922041,-12.258092 z" />
  <path
     inkscape:connector-curvature="0"
     id="path16"
     style="fill:#000000;fill-rule:nonzero;stroke:none"
     d="m 65.235832,0.12987 5.010681,0 c 9.471645,1.3593755 17.981196,7.3640956 22.437641,15.820486 4.503137,9.567953 4.250012,21.374734 -1.579506,30.329797 -5.221999,8.528574 -15.099113,13.726496 -25.076217,13.414884 1.496333,1.550635 2.971054,3.123825 4.45856,4.684899 3.706687,3.891692 7.327189,7.864426 11.035262,11.755845 -0.04746,6.439059 -0.173666,12.877313 -0.218228,19.317012 -7.008044,0.104495 -14.01738,-0.105073 -21.023994,0.07602 -4.271653,-4.458606 -8.552195,-8.909648 -12.729961,-13.456099 -1.647428,-1.784537 -3.333362,-3.532854 -5.004943,-5.292904 0.0815,2.699057 0.166345,5.399347 0.257173,8.099592 -3.904567,0.02174 -7.80877,0.0047 -11.712956,0.01146 -2.833032,3.219203 -5.663217,6.44116 -8.458399,9.69383 -6.098182,0.134522 -12.197976,0.0058 -18.2967201,0.08222 C 2.9302714,94.618783 1.5288304,94.531592 0.12987,94.405349 l 0,-20.673253 C 6.0090929,66.635295 13.029859,60.524451 19.347669,53.804049 13.021048,46.552362 5.9917281,39.861608 0.12987,32.238939 l 0,-21.050445 c 6.2763828,-0.06214 12.551836,-0.175812 18.828021,-0.257113 6.579472,6.710707 13.271003,13.313769 19.745234,20.126337 0.103932,-6.584052 1.698885,-13.275447 5.610666,-18.669756 4.76302,-6.888924 12.5927,-11.41068943 20.922041,-12.258092 z" />
  <path
     inkscape:connector-curvature="0"
     id="path22"
     style="fill:none;stroke:#ffffff;stroke-width:0.0997403;stroke-linecap:butt;stroke-linejoin:miter;stroke-miterlimit:10"
     d="M 50.152044,10.249821 C 56.447085,3.8993212 66.425361,1.4246557 74.879666,4.498546 87.718841,8.6929318 95.176231,24.110049 90.931165,36.843648 87.972362,48.006949 76.706438,56.563892 65.02742,55.220877 62.121322,55.618554 59.549847,53.12809 56.696832,54.02564 c 0.74726,1.279049 1.700482,2.41764 2.737729,3.471644 6.14635,6.49531 12.269749,13.011957 18.295457,19.620238 -0.125542,4.678143 -0.09773,9.359222 -0.246276,14.037608 C 72.204108,91.14227 66.924717,91.08223 61.645768,91.13621 54.483662,83.89979 47.671626,76.326446 40.60307,68.9995 c -0.541026,0.01126 -1.623077,0.0338 -2.164104,0.04506 0.218791,3.860386 0.32012,7.725719 0.429927,11.591127 -3.243067,0.0042 -6.485935,-0.02446 -9.728256,0.03305 -2.609934,3.305069 -5.631243,6.256886 -8.227114,9.571924 -5.64984,0.218152 -11.3064833,0.05016 -16.9592598,0.09386 C 3.9589959,84.78098 3.9760265,79.227919 3.9468206,73.67507 10.712925,66.928537 17.334326,60.03374 24.204424,53.393878 17.60856,45.791222 10.67433,38.471139 3.8568758,31.060716 3.7504479,25.364961 3.6699076,19.66893 3.6107666,13.972657 c 4.550696,0.03844 9.1013174,-0.0151 13.6519834,-0.04673 7.532953,7.590725 14.986431,15.259615 22.508517,22.861221 0.951883,-0.953556 1.903399,-1.90725 2.853821,-2.86245 -1.375355,-8.471716 1.264819,-17.680298 7.526956,-23.674883 z" />
  <path
     inkscape:connector-curvature="0"
     id="path24"
     style="fill:#ffffff;fill-rule:nonzero;stroke:none"
     d="M 50.152044,10.249821 C 56.447085,3.8993212 66.425361,1.4246557 74.879666,4.498546 87.718841,8.6929318 95.176231,24.110049 90.931165,36.843648 87.972362,48.006949 76.706438,56.563892 65.02742,55.220877 62.121322,55.618554 59.549847,53.12809 56.696832,54.02564 c 0.74726,1.279049 1.700482,2.41764 2.737729,3.471644 6.14635,6.49531 12.269749,13.011957 18.295457,19.620238 -0.125542,4.678143 -0.09773,9.359222 -0.246276,14.037608 -5.279634,-0.01286 -10.559025,-0.0729 -15.837974,-0.01892 C 54.483662,83.89979 47.671626,76.326446 40.60307,68.9995 c -0.541026,0.01126 -1.623077,0.0338 -2.164104,0.04506 0.218791,3.860386 0.32012,7.725719 0.429927,11.591127 -3.243067,0.0042 -6.485935,-0.02446 -9.728256,0.03305 -2.609934,3.305069 -5.631243,6.256886 -8.227114,9.571924 -5.64984,0.218152 -11.3064833,0.05016 -16.9592598,0.09386 C 3.9589959,84.78098 3.9760265,79.227919 3.9468206,73.67507 10.712925,66.928537 17.334326,60.03374 24.204424,53.393878 17.60856,45.791222 10.67433,38.471139 3.8568758,31.060716 3.7504479,25.364961 3.6699076,19.66893 3.6107666,13.972657 c 4.550696,0.03844 9.1013174,-0.0151 13.6519834,-0.04673 7.532953,7.590725 14.986431,15.259615 22.508517,22.861221 0.951883,-0.953556 1.903399,-1.90725 2.853821,-2.86245 -1.375355,-8.471716 1.264819,-17.680298 7.526956,-23.674883 z" />
  <path
     inkscape:connector-curvature="0"
     id="path26"
     style="fill:none;stroke:#4c9138;stroke-width:0.0997403;stroke-linecap:butt;stroke-linejoin:miter;stroke-miterlimit:10"
     d="m 61.999706,8.9289962 c 7.74013,-2.4268022 16.564536,1.6287998 20.7411,8.3900048 6.360057,9.494123 3.643056,24.148168 -6.405944,30.012324 -5.95614,3.918766 -13.958909,3.377969 -19.848267,-0.395455 -2.383383,3.13498 -5.574537,5.671147 -7.633201,9.022132 l 0.208015,0.584873 c 7.622152,7.560636 15.243969,15.126112 22.879225,22.675577 -0.178247,2.072013 0.463058,4.359179 -0.351319,6.297583 -2.375164,0.271844 -4.783779,0.232214 -7.166065,0.0959 -2.049747,-1.277653 -3.446577,-3.341022 -5.13248,-5.031794 -5.038121,-5.710854 -10.518175,-11.007289 -15.655434,-16.624377 -3.033225,0.02875 -6.060361,0.232213 -9.079554,0.5094 -0.0882,3.471125 -0.01012,6.943925 -0.08456,10.416101 -2.962151,0.320226 -6.035584,0.320744 -8.882208,1.258792 -2.892949,2.959153 -5.71481,5.989045 -8.559758,8.995453 -2.770968,0.08173 -5.543245,0.07672 -8.3144412,0.02003 C 8.9899335,82.425753 7.6404353,78.890129 10.242577,76.952608 18.052184,69.291936 25.239524,61.012545 33.157323,53.466687 25.552384,44.86331 17.104243,37.013586 9.2411863,28.640215 8.0562376,26.376532 8.9333329,23.559922 8.7050154,21.074907 c 2.3880686,0.0047 4.7760476,-0.0071 7.1643596,-0.0024 7.426129,7.622092 14.957118,15.143965 22.208015,22.935111 0.721752,0.808092 1.526588,1.539722 2.435202,2.135827 2.491834,-3.182799 5.534753,-5.965821 7.714792,-9.370651 -0.664409,-3.829291 -1.970487,-7.734664 -0.720506,-11.615489 1.25628,-7.538281 6.967956,-14.380283 14.492828,-16.2283148 z" />
  <path
     inkscape:connector-curvature="0"
     id="path28"
     style="fill:url(#linearGradient3261);fill-opacity:1;fill-rule:nonzero;stroke:none"
     d="m 61.999706,8.9289962 c 7.74013,-2.4268022 16.564536,1.6287998 20.7411,8.3900048 6.360057,9.494123 3.643056,24.148168 -6.405944,30.012324 -5.95614,3.918766 -13.958909,3.377969 -19.848267,-0.395455 -2.383383,3.13498 -5.574537,5.671147 -7.633201,9.022132 l 0.208015,0.584873 c 7.622152,7.560636 15.243969,15.126112 22.879225,22.675577 -0.178247,2.072013 0.463058,4.359179 -0.351319,6.297583 -2.375164,0.271844 -4.783779,0.232214 -7.166065,0.0959 -2.049747,-1.277653 -3.446577,-3.341022 -5.13248,-5.031794 -5.038121,-5.710854 -10.518175,-11.007289 -15.655434,-16.624377 -3.033225,0.02875 -6.060361,0.232213 -9.079554,0.5094 -0.0882,3.471125 -0.01012,6.943925 -0.08456,10.416101 -2.962151,0.320226 -6.035584,0.320744 -8.882208,1.258792 -2.892949,2.959153 -5.71481,5.989045 -8.559758,8.995453 -2.770968,0.08173 -5.543245,0.07672 -8.3144412,0.02003 C 8.9899335,82.425753 7.6404353,78.890129 10.242577,76.952608 18.052184,69.291936 25.239524,61.012545 33.157323,53.466687 25.552384,44.86331 17.104243,37.013586 9.2411863,28.640215 8.0562376,26.376532 8.9333329,23.559922 8.7050154,21.074907 c 2.3880686,0.0047 4.7760476,-0.0071 7.1643596,-0.0024 7.426129,7.622092 14.957118,15.143965 22.208015,22.935111 0.721752,0.808092 1.526588,1.539722 2.435202,2.135827 2.491834,-3.182799 5.534753,-5.965821 7.714792,-9.370651 -0.664409,-3.829291 -1.970487,-7.734664 -0.720506,-11.615489 1.25628,-7.538281 6.967956,-14.380283 14.492828,-16.2283148 z" />
  <path
     inkscape:connector-curvature="0"
     id="path30"
     style="fill:none;stroke:#000000;stroke-width:0.0997403;stroke-linecap:butt;stroke-linejoin:miter;stroke-miterlimit:10"
     d="m 71.642079,16.918798 c 4.722202,0.04182 11.071194,3.646388 10.134334,9.139045 1.181814,6.00154 -6.751617,10.704109 -11.775309,7.607527 -7.054341,-3.027031 -6.170137,-15.472836 1.640975,-16.746572 z" />
  <path
     inkscape:connector-curvature="0"
     id="path32"
     style="fill:#000000;fill-rule:nonzero;stroke:none"
     d="m 71.642079,16.918798 c 4.722202,0.04182 11.071194,3.646388 10.134334,9.139045 1.181814,6.00154 -6.751617,10.704109 -11.775309,7.607527 -7.054341,-3.027031 -6.170137,-15.472836 1.640975,-16.746572 z" />
  <path
     inkscape:connector-curvature="0"
     id="path36"
     style="opacity:0.25;fill:#000000;fill-rule:nonzero;stroke:none;fill-opacity:1"
     d="m 92.684154,15.950356 c 4.703847,3.026468 5.459173,9.15877 7.186016,14.040529 l 0,6.625282 c -0.996749,9.321007 -5.932232,18.400607 -14.108605,23.267253 -4.544152,2.980201 -9.990603,3.844558 -15.274574,4.496516 -1.487506,-1.561074 -2.962227,-3.134264 -4.45856,-4.684899 9.977104,0.311612 19.854218,-4.88631 25.076217,-13.414884 5.829518,-8.955063 6.082643,-20.761844 1.579506,-30.329797 z" />
  <path
     inkscape:connector-curvature="0"
     id="path38"
     style="fill:none;stroke:#ffffff;stroke-width:0.0997403;stroke-linecap:butt;stroke-linejoin:miter;stroke-miterlimit:10"
     d="m 69.991166,18.108738 c 4.705003,-2.324194 9.881543,3.252061 8.497603,7.899552 -0.802917,4.020796 -6.128467,6.95298 -9.554544,3.995365 -4.442093,-2.655958 -3.568772,-9.937185 1.056941,-11.894917 z" />
  <path
     inkscape:connector-curvature="0"
     id="path40"
     style="fill:#ffffff;fill-rule:nonzero;stroke:none"
     d="m 69.991166,18.108738 c 4.705003,-2.324194 9.881543,3.252061 8.497603,7.899552 -0.802917,4.020796 -6.128467,6.95298 -9.554544,3.995365 -4.442093,-2.655958 -3.568772,-9.937185 1.056941,-11.894917 z" />
  <path
     inkscape:connector-curvature="0"
     id="path52"
     style="opacity:0.25;fill:#000000;fill-rule:nonzero;stroke:none;fill-opacity:1"
     d="m 81.522253,76.135781 c 1.365036,1.520151 2.805972,3.003791 3.859944,4.769137 0.244679,6.315587 -0.184411,12.643136 -0.122879,18.965252 l -21.052454,0 c -1.34233,-1.417832 -2.606129,-2.906433 -3.926833,-4.341357 7.006614,-0.181093 14.01595,0.02848 21.023994,-0.07602 0.04456,-6.439699 0.170774,-12.877953 0.218228,-19.317012 z" />
  <path
     inkscape:connector-curvature="0"
     id="path56"
     style="opacity:0.25;fill:#000000;fill-rule:nonzero;stroke:none;fill-opacity:1"
     d="m 42.545127,76.77981 c 1.671581,1.76005 3.357515,3.508367 5.004943,5.292904 -1.464966,2.117991 -0.618902,4.875505 -1.151437,7.273208 -3.703734,-0.116914 -7.408855,-0.06732 -11.113108,-0.09739 -3.434827,2.868903 -5.561341,7.236818 -9.289076,9.643455 -7.154771,0.225518 -14.344684,0.2604 -21.5006578,-0.06002 -0.052704,-1.389601 -0.1065496,-2.777954 -0.1615663,-4.165058 6.0987441,-0.07644 12.1985381,0.0523 18.2967201,-0.08222 2.795182,-3.25267 5.625367,-6.474627 8.458399,-9.69383 3.904186,-0.0068 7.808389,0.01028 11.712956,-0.01146 -0.09083,-2.700245 -0.175674,-5.400535 -0.257173,-8.099592 z" />
</svg>
