/* XPM */
static char * left_xpm[] = {
"11 19 3 1",
" 	g None",
".	g #000000",
"+	g #FFFFFF",
".          ",
"..         ",
".+.        ",
".++.       ",
".+++.      ",
".++++.     ",
".+++++.    ",
".++++++.   ",
".+++++++.  ",
".++++++++. ",
".+++++.....",
".++.++.    ",
".+. .++.   ",
"..  .++.   ",
".    .++.  ",
"     .++.  ",
"      .++. ",
"      .++. ",
"       ..  "};
