/* XPM */
static char * move_xpm[] = {
"21 21 3 1 10 11",
" 	c None",
".	c #FFFFFF",
"+	c #030303",
"          .          ",
"         .+.         ",
"        .+++.        ",
"       .+++++.       ",
"      .+++++++.      ",
"      ....+....      ",
"    ..   .+.   ..    ",
"   .+.   .+.   .+.   ",
"  .++.   .+.   .++.  ",
" .+++.....+.....+++. ",
".+++++++++++++++++++.",
" .+++.....+.....+++. ",
"  .++.   .+.   .++.  ",
"   .+.   .+.   .+.   ",
"    ..   .+.   ..    ",
"      ....+....      ",
"      .+++++++.      ",
"       .+++++.       ",
"        .+++.        ",
"         .+.         ",
"          .          "};
