/* XPM */
static char * right_xpm[] = {
"11 19 3 1 11 0",
" 	g None",
".	g #000000",
"+	g #FFFFFF",
"          .",
"         ..",
"        .+.",
"       .++.",
"      .+++.",
"     .++++.",
"    .+++++.",
"   .++++++.",
"  .+++++++.",
" .++++++++.",
".....+++++.",
"    .++.++.",
"   .++. .+.",
"   .++.  ..",
"  .++.    .",
"  .++.     ",
" .++.      ",
" .++.      ",
"  ..       "};
