/* XPM */
static char * scrollL_xpm[] = {
"26 16 3 1 13 8",
" 	c None",
".	c #FFFFFF",
"+	c #030303",
"       ..        ..       ",
"      .+.        .+.      ",
"     .++.        .++.     ",
"    .+++.        .+++.    ",
"   .++++.        .++++.   ",
"  .+++++.   ..   .+++++.  ",
" .++++++.  .++.  .++++++. ",
".+++++++. .++++. .+++++++.",
".+++++++. .++++. .+++++++.",
" .++++++.  .++.  .++++++. ",
"  .+++++.   ..   .+++++.  ",
"   .++++.        .++++.   ",
"    .+++.        .+++.    ",
"     .++.        .++.     ",
"      .+.        .+.      ",
"       ..        ..       "};
