/* XPM */
static char * scrollU_xpm[] = {
"16 26 3 1 8 13",
" 	c None",
".	c #FFFFFF",
"+	c #030303",
"       ..       ",
"      .++.      ",
"     .++++.     ",
"    .++++++.    ",
"   .++++++++.   ",
"  .++++++++++.  ",
" .++++++++++++. ",
".++++++++++++++.",
"................",
"                ",
"       ..       ",
"      .++.      ",
"     .++++.     ",
"     .++++.     ",
"      .++.      ",
"       ..       ",
"                ",
"................",
".++++++++++++++.",
" .++++++++++++. ",
"  .++++++++++.  ",
"   .++++++++.   ",
"    .++++++.    ",
"     .++++.     ",
"      .++.      ",
"       ..       "};
