/* XPM */
static char * sizeBR_xpm[] = {
"15 15 3 1 8 8",
" 	c None",
".	c #FFFFFF",
"+	c #030303",
".......        ",
".+++++.        ",
".++++.         ",
".+++.          ",
".++.+.         ",
".+. .+.        ",
"..   .+.       ",
"      .+.      ",
"       .+.   ..",
"        .+. .+.",
"         .+.++.",
"          .+++.",
"         .++++.",
"        .+++++.",
"        ......."};
