/* XPM */
static char * sizeB_xpm[] = {
"9 21 3 1 4 11",
" 	c None",
".	c #FFFFFF",
"+	c #030303",
"    .    ",
"   .+.   ",
"  .+++.  ",
" .+++++. ",
".+++++++.",
"....+....",
"   .+.   ",
"   .+.   ",
"   .+.   ",
"   .+.   ",
"   .+.   ",
"   .+.   ",
"   .+.   ",
"   .+.   ",
"   .+.   ",
"....+....",
".+++++++.",
" .+++++. ",
"  .+++.  ",
"   .+.   ",
"    .    "};
