/* XPM */
static char * sizeBL_xpm[] = {
"15 15 3 1 7 8",
" 	c None",
".	c #FFFFFF",
"+	c #030303",
"        .......",
"        .+++++.",
"         .++++.",
"          .+++.",
"         .+.++.",
"        .+. .+.",
"       .+.   ..",
"      .+.      ",
"..   .+.       ",
".+. .+.        ",
".++.+.         ",
".+++.          ",
".++++.         ",
".+++++.        ",
".......        "};
