/* XPM */
static char * app_32x32_xpm[] = {
"32 32 275 2",
"  	c None",
". 	c #3F4561",
"+ 	c #424864",
"@ 	c #4D5C7A",
"# 	c #424964",
"$ 	c #434966",
"% 	c #6F809C",
"& 	c #AFBDCF",
"* 	c #6F7F9B",
"= 	c #434965",
"- 	c #70819D",
"; 	c #8B9FB9",
"> 	c #375A86",
", 	c #8DA1BB",
"' 	c #71819C",
") 	c #444A66",
"! 	c #8894AB",
"~ 	c #8DA0BB",
"{ 	c #375A87",
"] 	c #355886",
"^ 	c #3A5C89",
"/ 	c #91A4BD",
"( 	c #74839E",
"_ 	c #434964",
": 	c #9EA7B8",
"< 	c #BCC8D7",
"[ 	c #3A5C88",
"} 	c #385A88",
"| 	c #3A5B89",
"1 	c #3C5D8A",
"2 	c #41618D",
"3 	c #95A6BF",
"4 	c #77859F",
"5 	c #424865",
"6 	c #9AA3B5",
"7 	c #C7D0DD",
"8 	c #9EAEC5",
"9 	c #9DAEC4",
"0 	c #59749B",
"a 	c #41608D",
"b 	c #43618E",
"c 	c #486591",
"d 	c #7885A0",
"e 	c #434865",
"f 	c #72829E",
"g 	c #B4C0D1",
"h 	c #A0AFC6",
"i 	c #9FAFC5",
"j 	c #A1B0C6",
"k 	c #6880A4",
"l 	c #466390",
"m 	c #4A6692",
"n 	c #4E6994",
"o 	c #96A6C0",
"p 	c #434A64",
"q 	c #71819D",
"r 	c #8B9FBA",
"s 	c #768CAD",
"t 	c #A0B0C6",
"u 	c #A1B1C7",
"v 	c #8296B3",
"w 	c #567199",
"x 	c #496591",
"y 	c #4B6792",
"z 	c #4D6894",
"A 	c #4F6995",
"B 	c #516B96",
"C 	c #556E98",
"D 	c #97A6C0",
"E 	c #7986A1",
"F 	c #434A65",
"G 	c #70809D",
"H 	c #899DB8",
"I 	c #44638E",
"J 	c #7188AA",
"K 	c #A3B2C8",
"L 	c #A4B2C8",
"M 	c #7086A9",
"N 	c #4C6893",
"O 	c #506A95",
"P 	c #526C96",
"Q 	c #546D98",
"R 	c #566E99",
"S 	c #57709A",
"T 	c #5B739C",
"U 	c #99A7C1",
"V 	c #7A86A1",
"W 	c #889CB8",
"X 	c #476590",
"Y 	c #476490",
"Z 	c #758BAC",
"` 	c #A5B3C9",
" .	c #A6B4CA",
"..	c #7489AB",
"+.	c #536C97",
"@.	c #576F99",
"#.	c #58709A",
"$.	c #5A729C",
"%.	c #5C739D",
"&.	c #5E749E",
"*.	c #6278A0",
"=.	c #9AA8C2",
"-.	c #7B86A1",
";.	c #454A66",
">.	c #6F7F9C",
",.	c #889BB8",
"'.	c #4A6792",
").	c #8093B2",
"!.	c #A8B5CA",
"~.	c #A9B6CB",
"{.	c #8C9DBA",
"].	c #657BA2",
"^.	c #5A719B",
"/.	c #5B729C",
"(.	c #5D749D",
"_.	c #5F759F",
":.	c #6176A0",
"<.	c #6378A1",
"[.	c #6579A2",
"}.	c #697CA4",
"|.	c #9CA8C3",
"1.	c #7C87A3",
"2.	c #6E7E9C",
"3.	c #869AB7",
"4.	c #4D6994",
"5.	c #4F6A95",
"6.	c #8D9EBA",
"7.	c #AAB7CC",
"8.	c #ABB7CC",
"9.	c #ACB8CD",
"0.	c #ADB9CE",
"a.	c #7D8EB0",
"b.	c #60769F",
"c.	c #6277A0",
"d.	c #6478A1",
"e.	c #667AA3",
"f.	c #687BA4",
"g.	c #6A7CA5",
"h.	c #6C7EA6",
"i.	c #7081A8",
"j.	c #9EA9C4",
"k.	c #7F88A3",
"l.	c #546180",
"m.	c #9DADC4",
"n.	c #516C96",
"o.	c #506A96",
"p.	c #526C97",
"q.	c #A4B1C8",
"r.	c #ADB8CD",
"s.	c #AEB9CE",
"t.	c #AFBACE",
"u.	c #AFBACF",
"v.	c #7588AC",
"w.	c #677AA3",
"x.	c #6B7DA5",
"y.	c #7182A9",
"z.	c #8492B5",
"A.	c #7382AA",
"B.	c #7986AD",
"C.	c #BCC3D6",
"D.	c #5E6682",
"E.	c #6F7E9C",
"F.	c #889AB7",
"G.	c #577099",
"H.	c #576F9A",
"I.	c #59719B",
"J.	c #697EA5",
"K.	c #A0ADC5",
"L.	c #6478A2",
"M.	c #6E7FA7",
"N.	c #7080A8",
"O.	c #8795B6",
"P.	c #BAC1D5",
"Q.	c #8A96B8",
"R.	c #7887AE",
"S.	c #AAB3CC",
"T.	c #A1A5B8",
"U.	c #464B67",
"V.	c #707F9C",
"W.	c #8A9AB8",
"X.	c #8D9CBA",
"Y.	c #B1BBD0",
"Z.	c #B1BCD0",
"`.	c #8999B8",
" +	c #677BA3",
".+	c #6B7DA6",
"++	c #6D7FA7",
"@+	c #7E8DB1",
"#+	c #B5BED2",
"$+	c #8390B3",
"%+	c #A2ACC6",
"&+	c #B9C0D4",
"*+	c #CBD0DF",
"=+	c #9EA2B7",
"-+	c #484C68",
";+	c #73809E",
">+	c #8C9BB9",
",+	c #687CA4",
"'+	c #ADB8CE",
")+	c #B3BDD1",
"!+	c #B4BDD2",
"~+	c #798AAE",
"{+	c #7282AA",
"]+	c #7786AD",
"^+	c #BBC2D6",
"/+	c #BDC3D7",
"(+	c #BEC4D7",
"_+	c #BFC5D8",
":+	c #D0D4E2",
"<+	c #464B66",
"[+	c #75819F",
"}+	c #AFB8CE",
"|+	c #B5BFD2",
"1+	c #B5BED3",
"2+	c #B6BFD3",
"3+	c #AEB8CE",
"4+	c #818FB3",
"5+	c #8291B3",
"6+	c #9BA6C2",
"7+	c #7E8BB0",
"8+	c #A6AFC9",
"9+	c #BDC4D7",
"0+	c #BEC4D8",
"a+	c #C0C6D9",
"b+	c #A1A6B8",
"c+	c #9FA6B9",
"d+	c #C8CEDE",
"e+	c #B9C1D5",
"f+	c #A3ADC7",
"g+	c #99A4C1",
"h+	c #C0C5D9",
"i+	c #C1C7DA",
"j+	c #A1A6B9",
"k+	c #A1A7BA",
"l+	c #B3BBD0",
"m+	c #8793B7",
"n+	c #9DA7C4",
"o+	c #8591B5",
"p+	c #828EB3",
"q+	c #C1C6D9",
"r+	c #C2C7DA",
"s+	c #C3C8DB",
"t+	c #D0D4E3",
"u+	c #454B66",
"v+	c #7D86A4",
"w+	c #96A1BF",
"x+	c #8F99BB",
"y+	c #8690B6",
"z+	c #ABB3CC",
"A+	c #C4C9DB",
"B+	c #7E87A6",
"C+	c #C9CEDE",
"D+	c #C4C8DB",
"E+	c #C5C9DC",
"F+	c #C6CADC",
"G+	c #D1D4E3",
"H+	c #A3A7BA",
"I+	c #464A66",
"J+	c #888FAB",
"K+	c #CCD0E0",
"L+	c #C5CADC",
"M+	c #C6CADD",
"N+	c #C7CBDD",
"O+	c #444B66",
"P+	c #A6AABD",
"Q+	c #D0D3E2",
"R+	c #C9CCDE",
"S+	c #D2D4E4",
"T+	c #454B67",
"U+	c #A8AABE",
"V+	c #D5D7E5",
"W+	c #A4A7BA",
"X+	c #454A65",
"Y+	c #7A7E96",
"Z+	c #454A64",
"                                                                ",
"                                                                ",
"                                .                               ",
"                              + @ #                             ",
"                            $ % & * #                           ",
"                          = - ; > , ' #                         ",
"                        ) ! ~ { ] ^ / ( _                       ",
"                      ) : < [ } | 1 2 3 4 _                     ",
"                    5 6 7 8 9 8 0 a b c 3 d _                   ",
"                  e f g h i h j k l c m n o d p                 ",
"                e q r s t u v w x y z A B C D E F               ",
"              = G H I J K L M N n O P Q R S T U V )             ",
"            _ G W X Y Z `  ...B +.C @.#.$.%.&.*.=.-.;.          ",
"          _ >.,.'.m N ).!.~.{.].#.^./.(._.:.<.[.}.|.1.;.        ",
"        _ 2.3.4.z 5.B 6.7.8.9.0.a.&.b.c.d.e.f.g.h.i.j.k.;.      ",
"      . l.m.n.o.p.Q R q.r.s.t.u.v.<.[.w.}.x.y.z.A.A.B.C.D..     ",
"        F E.F.G.H.I.J.s.u.K.c.L.e.f.g.y.M.N.O.P.Q.R.S.T.U.      ",
"          F V.W.(.&.X.Y.Z.`. +}..+++@+#+Q.$+%+C.&+*+=+-+        ",
"            F ;+>+,+'+)+!+~+h.M.i.{+]+&+^+/+(+_+:+T.<+          ",
"              F [+}+|+1+2+3+4+5+6+7+8+9+0+_+a+:+b+U.            ",
"                F c+d+&+e+P.f+g+/+/+_+h+a+i+:+j+U.              ",
"                  ) k+l+m+n+o+p+/+a+q+r+s+t+j+U.                ",
"                    u+v+w+x+y+z+r+r+s+A+t+j+U.                  ",
"                      ;.B+C+r+s+D+E+F+G+H+U.                    ",
"                        I+J+K+L+M+N+G+H+O+                      ",
"                          ) P+Q+R+S+H+u+                        ",
"                            T+U+V+W+u+                          ",
"                              X+Y+Z+                            ",
"                                .                               ",
"                                                                ",
"                                                                ",
"                                                                "};
