/* XPM */
static char * app_16x16_xpm[] = {
"16 16 67 1",
" 	c None",
".	c #364878",
"+	c #C3C7DA",
"@	c #9BABC3",
"#	c #5F7A9F",
"$	c #9FAEC6",
"%	c #A0AFC6",
"&	c #8D9FBA",
"*	c #486490",
"=	c #A3B1C8",
"-	c #A4B2C8",
";	c #A5B2C9",
">	c #8D9EBA",
",	c #516A96",
"'	c #566F99",
")	c #A7B4CA",
"!	c #A8B4CB",
"~	c #A9B5CB",
"{	c #AAB6CC",
"]	c #7C8EB0",
"^	c #8394B4",
"/	c #7F90B1",
"(	c #ABB6CC",
"_	c #ACB7CD",
":	c #ADB8CE",
"<	c #AEB9CE",
"[	c #A2AEC7",
"}	c #7C8CB0",
"|	c #95A2BF",
"1	c #A9B3CB",
"2	c #7182AA",
"3	c #AFB9CF",
"4	c #B0BACF",
"5	c #B1BBD0",
"6	c #B2BBD1",
"7	c #A7B2CA",
"8	c #8E9CBB",
"9	c #ABB5CD",
"0	c #B3BCD1",
"a	c #7786AD",
"b	c #7382AB",
"c	c #7584AC",
"d	c #A7B1C9",
"e	c #A5B0C8",
"f	c #8F9BBB",
"g	c #8895B7",
"h	c #7483AB",
"i	c #A1AAC6",
"j	c #99A3C2",
"k	c #7B88AF",
"l	c #7D89B1",
"m	c #7A88AE",
"n	c #7A87AF",
"o	c #7C89B0",
"p	c #98A2C1",
"q	c #BFC4D8",
"r	c #9099BC",
"s	c #858FB5",
"t	c #858EB5",
"u	c #8790B6",
"v	c #8991B7",
"w	c #C1C5D9",
"x	c #949ABE",
"y	c #9197BC",
"z	c #ACB0CC",
"A	c #C8CADD",
"B	c #9D9FC3",
"       .        ",
"      .+.       ",
"     .+@#.      ",
"    .+$%&*.     ",
"   .+=-;>,'.    ",
"  .+)!~{]^/'.   ",
" .+(_:<[}|12'.  ",
".+34567890abc'. ",
" .+defghijkl'.  ",
"  .+mnopqrs'.   ",
"   .+tuvwx'.    ",
"    .+yzA'.     ",
"     .+B'.      ",
"      .'.       ",
"       .        ",
"                "};
