/* XPM */
static char * file_16x16_xpm[] = {
"16 16 43 1",
" 	c None",
".	c #999999",
"+	c #818181",
"@	c #FFFFFF",
"#	c #FBFBFB",
"$	c #F9F9F9",
"%	c #838383",
"&	c #ECECEC",
"*	c #EDECED",
"=	c #EDEDED",
"-	c #D3D3D3",
";	c #B7B7B7",
">	c #EEEEEE",
",	c #A1A1A1",
"'	c #F5F5F5",
")	c #ECEDEC",
"!	c #EDEEEE",
"~	c #EEEDEE",
"{	c #B2B2B2",
"]	c #939393",
"^	c #EDEDEC",
"/	c #EEEFEE",
"(	c #EFEEEE",
"_	c #E6E6E6",
":	c #C9C9C9",
"<	c #CFCFCF",
"[	c #DDDDDD",
"}	c #DEDEDE",
"|	c #D6D6D6",
"1	c #EBEBEB",
"2	c #EDEEED",
"3	c #EEEEEF",
"4	c #EFEFEF",
"5	c #FCFCFC",
"6	c #F0F0F0",
"7	c #EFF0EF",
"8	c #F0EFF0",
"9	c #EEEFEF",
"0	c #F1F1F1",
"a	c #EFEEEF",
"b	c #EFF0F0",
"c	c #F2F2F2",
"d	c #959595",
" .+++++++++     ",
" +@@@@@##$#%    ",
" +@&&&*=-;>#%   ",
" +@&&==>>,'>>%  ",
" +@)==!~>{,]%%  ",
" +@^=>~/(_:<[%  ",
" +@=~!>~!>}|1%  ",
" +@22>32>34=5%  ",
" +@=>(4>(446@+  ",
" +@~>(7>(786@+  ",
" +@!39639640@+  ",
" +@!>ab>ab6c@+  ",
" +@>=>4660cc@+  ",
" +@@@@@@@@@@@+  ",
" d+++++++++++d  ",
"                "};
