/* XPM */
static char * folder_16x16_xpm[] = {
"16 16 51 1",
" 	c None",
".	c #6A6C68",
"+	c #555753",
"@	c #696B67",
"#	c #C1C3B2",
"$	c #C3C5B5",
"%	c #B9BAAC",
"&	c #BBBDAA",
"*	c #9A9D88",
"=	c #9A9C87",
"-	c #999B86",
";	c #AFB09F",
">	c #666863",
",	c #B3B5A3",
"'	c #8F927E",
")	c #8F917E",
"!	c #929481",
"~	c #A9AA9A",
"{	c #A2A493",
"]	c #A3A495",
"^	c #A3A596",
"/	c #9D9F91",
"(	c #B5B8A6",
"_	c #888A78",
":	c #666860",
"<	c #5B5D59",
"[	c #585A56",
"}	c #6E706C",
"|	c #BBBCAE",
"1	c #CBCCC0",
"2	c #D8D9CC",
"3	c #D6D7CA",
"4	c #D2D4C7",
"5	c #D1D3C6",
"6	c #D0D1C4",
"7	c #878981",
"8	c #CBCCBC",
"9	c #B9BAA4",
"0	c #D5D6C9",
"a	c #D7D8CC",
"b	c #CCCDBF",
"c	c #CECFC1",
"d	c #CDCEC0",
"e	c #CDCEBF",
"f	c #CBCCBD",
"g	c #C6C7B5",
"h	c #C4C5B5",
"i	c #C6C7B6",
"j	c #C5C6B6",
"k	c #C5C6B5",
"l	c #BFC0AF",
".+++++@         ",
"+#$$$%+         ",
"+&*=-;++++++++> ",
"+,'')!~{]^^^^/+ ",
"+(____:<[[[[<}+ ",
"+}[[[[|1234567+ ",
"+3333338999996+ ",
"+0999999999996+ ",
"+a99999999999b+ ",
"+c99999999999b+ ",
"+d99999999999b+ ",
"+e99999999999f+ ",
"+899999999999g+ ",
"+hiiiiiijjkkkl+ ",
">+++++++++++++> ",
"                "};
