/* XPM */
static char * xterm_32x32_xpm[] = {
"32 32 444 2",
"  	c None",
". 	c #383C3E",
"+ 	c #313638",
"@ 	c #2E3436",
"# 	c #303537",
"$ 	c #383C3C",
"% 	c #DFE0DE",
"& 	c #E3E4E1",
"* 	c #E2E4E1",
"= 	c #E1E3E0",
"- 	c #E0E2DF",
"; 	c #E0E1DE",
"> 	c #DEE0DD",
", 	c #DDDFDC",
"' 	c #DDDEDB",
") 	c #DCDDDA",
"! 	c #DADCD9",
"~ 	c #DADBD8",
"{ 	c #D9DAD7",
"] 	c #D7D9D6",
"^ 	c #D7D8D5",
"/ 	c #D6D7D4",
"( 	c #D4D6D3",
"_ 	c #D3D5D1",
": 	c #D2D4D1",
"< 	c #D1D3CF",
"[ 	c #D0D2CE",
"} 	c #CFD1CD",
"| 	c #CECFCC",
"1 	c #CDCFCB",
"2 	c #CCCECA",
"3 	c #CBCCC9",
"4 	c #C9CBC7",
"5 	c #C3C5C2",
"6 	c #313637",
"7 	c #E2E3E0",
"8 	c #B5B8B1",
"9 	c #B4B7B0",
"0 	c #B3B6AF",
"a 	c #B2B5AE",
"b 	c #B1B4AD",
"c 	c #B0B3AC",
"d 	c #AFB2AB",
"e 	c #AEB1AA",
"f 	c #ADB0AA",
"g 	c #ADB0A9",
"h 	c #ACAFA8",
"i 	c #ABAEA8",
"j 	c #ABAEA7",
"k 	c #AAADA6",
"l 	c #A9ACA6",
"m 	c #A9ACA5",
"n 	c #A8ABA4",
"o 	c #A7AAA4",
"p 	c #A7AAA3",
"q 	c #A6A9A3",
"r 	c #A5A8A2",
"s 	c #A5A8A1",
"t 	c #A4A7A1",
"u 	c #C4C6C2",
"v 	c #DFE0DD",
"w 	c #666864",
"x 	c #363735",
"y 	c #353634",
"z 	c #353534",
"A 	c #353533",
"B 	c #343533",
"C 	c #343532",
"D 	c #343432",
"E 	c #333432",
"F 	c #323331",
"G 	c #323231",
"H 	c #323230",
"I 	c #313230",
"J 	c #5D5F5C",
"K 	c #A1A39D",
"L 	c #C0C2BE",
"M 	c #40413F",
"N 	c #252A2B",
"O 	c #252A2C",
"P 	c #3B3C3A",
"Q 	c #9D9F99",
"R 	c #BCBEBA",
"S 	c #4D4E4C",
"T 	c #7D7E7D",
"U 	c #7E807E",
"V 	c #7F817F",
"W 	c #808280",
"X 	c #80827F",
"Y 	c #7E817E",
"Z 	c #7E7F7E",
"` 	c #7B7E7B",
" .	c #797A7A",
"..	c #777977",
"+.	c #747775",
"@.	c #717473",
"#.	c #6E7170",
"$.	c #6C6E6E",
"%.	c #686C6B",
"&.	c #666868",
"*.	c #636666",
"=.	c #616464",
"-.	c #5D6161",
";.	c #5A5E5F",
">.	c #484947",
",.	c #999C96",
"'.	c #B8BAB5",
").	c #585A57",
"!.	c #8F928F",
"~.	c #929492",
"{.	c #949693",
"].	c #969794",
"^.	c #959693",
"/.	c #929592",
"(.	c #90928F",
"_.	c #8D8F8D",
":.	c #8A8C8A",
"<.	c #868986",
"[.	c #828684",
"}.	c #7E8280",
"|.	c #7B7E7D",
"1.	c #777A7A",
"2.	c #737776",
"3.	c #707373",
"4.	c #6C7070",
"5.	c #686C6D",
"6.	c #646969",
"7.	c #606565",
"8.	c #535451",
"9.	c #959892",
"0.	c #B4B5B2",
"a.	c #D2D3D0",
"b.	c #A2A59F",
"c.	c #646562",
"d.	c #7D7E7C",
"e.	c #7F817E",
"f.	c #828381",
"g.	c #848582",
"h.	c #828482",
"i.	c #7E7F7D",
"j.	c #7B7C7A",
"k.	c #787978",
"l.	c #747674",
"m.	c #717471",
"n.	c #6E706F",
"o.	c #6B6D6C",
"p.	c #676B6A",
"q.	c #646767",
"r.	c #5E6161",
"s.	c #5A5E5E",
"t.	c #575B5B",
"u.	c #555959",
"v.	c #5D5E5C",
"w.	c #92948E",
"x.	c #AFB1AD",
"y.	c #CED0CD",
"z.	c #9FA19B",
"A.	c #6E6F6C",
"B.	c #8E908D",
"C.	c #929490",
"D.	c #969894",
"E.	c #999A97",
"F.	c #979994",
"G.	c #939591",
"H.	c #8F918E",
"I.	c #8B8E8A",
"J.	c #878A87",
"K.	c #838584",
"L.	c #7F827F",
"M.	c #7B7E7C",
"N.	c #777A79",
"O.	c #737675",
"P.	c #6F7271",
"Q.	c #6A6E6E",
"R.	c #666A6A",
"S.	c #626667",
"T.	c #5E6363",
"U.	c #5B5F60",
"V.	c #676866",
"W.	c #8E918B",
"X.	c #AAACA8",
"Y.	c #9B9E98",
"Z.	c #767875",
"`.	c #757675",
" +	c #777976",
".+	c #7A7C78",
"++	c #7B7C79",
"@+	c #7A7C79",
"#+	c #787A77",
"$+	c #737572",
"%+	c #707170",
"&+	c #6D6F6D",
"*+	c #6A6C6A",
"=+	c #666967",
"-+	c #646664",
";+	c #606362",
">+	c #5D5F5F",
",+	c #595D5C",
"'+	c #565959",
")+	c #525656",
"!+	c #4F5253",
"~+	c #494D4D",
"{+	c #6F706E",
"]+	c #8A8D87",
"^+	c #A6A8A4",
"/+	c #C8C9C6",
"(+	c #979A94",
"_+	c #7E807D",
":+	c #838582",
"<+	c #858885",
"[+	c #F0F0EE",
"}+	c #888A87",
"|+	c #878A86",
"1+	c #868885",
"2+	c #848683",
"3+	c #818481",
"4+	c #797D7A",
"5+	c #767977",
"6+	c #727674",
"7+	c #6A6E6D",
"8+	c #666A69",
"9+	c #606464",
"0+	c #545959",
"a+	c #484D4E",
"b+	c #3F4444",
"c+	c #393E3F",
"d+	c #777875",
"e+	c #878984",
"f+	c #A1A39F",
"g+	c #949690",
"h+	c #858683",
"i+	c #686A68",
"j+	c #696B69",
"k+	c #6B6C6B",
"l+	c #6A6B6A",
"m+	c #686B68",
"n+	c #616463",
"o+	c #5E6160",
"p+	c #5C5F5D",
"q+	c #595B5A",
"r+	c #535656",
"s+	c #464949",
"t+	c #3A3E3E",
"u+	c #373B3B",
"v+	c #333738",
"w+	c #303435",
"x+	c #2D3232",
"y+	c #7C7E7B",
"z+	c #838680",
"A+	c #9C9E9A",
"B+	c #BFC1BE",
"C+	c #90928D",
"D+	c #8A8B88",
"E+	c #727573",
"F+	c #737774",
"G+	c #757875",
"H+	c #757976",
"I+	c #EFEFEE",
"J+	c #707471",
"K+	c #6B6F6D",
"L+	c #686C6A",
"M+	c #636766",
"N+	c #575C5B",
"O+	c #4E5352",
"P+	c #4A4F4F",
"Q+	c #464B4B",
"R+	c #424747",
"S+	c #3D4343",
"T+	c #353A3C",
"U+	c #818280",
"V+	c #7F827C",
"W+	c #979995",
"X+	c #BCBDBA",
"Y+	c #8C8F89",
"Z+	c #8F918D",
"`+	c #585A5A",
" @	c #5A5C5A",
".@	c #5A5D5B",
"+@	c #EFEFED",
"@@	c #575A59",
"#@	c #555857",
"$@	c #525655",
"%@	c #4B4D4D",
"&@	c #424645",
"*@	c #3E4242",
"=@	c #3B3F3E",
"-@	c #35393A",
";@	c #323636",
">@	c #2E3233",
",@	c #2B2F31",
"'@	c #282D2E",
")@	c #7C7E79",
"!@	c #92938F",
"~@	c #B7B8B5",
"{@	c #898B86",
"]@	c #929390",
"^@	c #616564",
"/@	c #616563",
"(@	c #5F6261",
"_@	c #535756",
":@	c #4F5353",
"<@	c #4C5050",
"[@	c #454A4A",
"}@	c #3E4344",
"|@	c #3A4041",
"1@	c #363C3D",
"2@	c #32383A",
"3@	c #787A75",
"4@	c #8C8F8B",
"5@	c #B3B5B1",
"6@	c #858782",
"7@	c #949692",
"8@	c #464A49",
"9@	c #474B4A",
"0@	c #484B4B",
"a@	c #484B4A",
"b@	c #454847",
"c@	c #404443",
"d@	c #3C4040",
"e@	c #363A3A",
"f@	c #313536",
"g@	c #8B8C89",
"h@	c #747671",
"i@	c #AFB0AD",
"j@	c #81847E",
"k@	c #959793",
"l@	c #4B5050",
"m@	c #4C5150",
"n@	c #EEEEEC",
"o@	c #404546",
"p@	c #3B4041",
"q@	c #373D3E",
"r@	c #343A3B",
"s@	c #313738",
"t@	c #8B8D8A",
"u@	c #71736E",
"v@	c #81837F",
"w@	c #AAABA8",
"x@	c #7E807B",
"y@	c #353939",
"z@	c #343839",
"A@	c #2C3132",
"B@	c #2A2E30",
"C@	c #262A2B",
"D@	c #8A8C89",
"E@	c #6D6F6A",
"F@	c #7B7D79",
"G@	c #A5A7A4",
"H@	c #7A7C77",
"I@	c #3C4142",
"J@	c #3C4242",
"K@	c #3B4142",
"L@	c #353B3C",
"M@	c #33393B",
"N@	c #313739",
"O@	c #2F3536",
"P@	c #898A87",
"Q@	c #696B67",
"R@	c #767873",
"S@	c #A1A29F",
"T@	c #262B2D",
"U@	c #878885",
"V@	c #656863",
"W@	c #70726D",
"X@	c #9C9D99",
"Y@	c #727570",
"Z@	c #848581",
"`@	c #8F908C",
" #	c #8E8F8B",
".#	c #8D8F8B",
"+#	c #8C8E8A",
"@#	c #8B8D89",
"##	c #8B8C88",
"$#	c #898B87",
"%#	c #878986",
"&#	c #878985",
"*#	c #868784",
"=#	c #858783",
"-#	c #767774",
";#	c #626460",
">#	c #515950",
",#	c #424748",
"'#	c #6C6E6A",
")#	c #6B6E69",
"!#	c #6B6D68",
"~#	c #6A6C68",
"{#	c #696C67",
"]#	c #696B66",
"^#	c #686A66",
"/#	c #676A65",
"(#	c #676964",
"_#	c #656762",
":#	c #646662",
"<#	c #4A4E4D",
"[#	c #303638",
"}#	c #494D4B",
"|#	c #61635E",
"1#	c #484C4B",
"2#	c #646661",
"3#	c #91938F",
"4#	c #606462",
"5#	c #8AE135",
"6#	c #686A65",
"7#	c #676965",
"8#	c #656763",
"9#	c #636661",
"0#	c #636561",
"a#	c #62645F",
"b#	c #61635F",
"c#	c #60625E",
"d#	c #434847",
"e#	c #7F817D",
"f#	c #424746",
"g#	c #5D5F5B",
"h#	c #414645",
"i#	c #404544",
"j#	c #898B88",
"k#	c #81887C",
"l#	c #7D807C",
"m#	c #80877A",
"n#	c #838581",
"o#	c #81827F",
"p#	c #7F827E",
"q#	c #7D7F7B",
"r#	c #7B7D7A",
"s#	c #797A77",
"t#	c #757773",
"u#	c #737571",
"v#	c #71736F",
"w#	c #70716E",
"x#	c #6D6F6B",
"y#	c #6C6D6A",
"z#	c #626561",
"A#	c #565854",
"B#	c #5D605C",
"C#	c #595C59",
"D#	c #555753",
"E#	c #535653",
"F#	c #535552",
"G#	c #2F3436",
"H#	c #2B2F30",
"I#	c #303536",
"J#	c #2A3032",
"K#	c #2C3234",
"                                                                ",
"                                                                ",
"                                                                ",
"  . + @ @ @ @ @ @ @ @ @ @ @ @ @ @ @ @ @ @ @ @ @ @ @ @ @ @ # $   ",
"  + % & * = - ; > , ' ) ! ~ { ] ^ / ( _ : < [ } | 1 2 3 4 5 6   ",
"  @ 7 8 9 9 0 a a b c d d e f g h i j k l m n o p q r s t u @   ",
"  @ v b w x y z A B B B C D E E E E F F F F G H I I H J K L @   ",
"  @ ) f M N O O O O O O O O O O O O O O O O O O O O N P Q R @   ",
"  @ { k S O T U V W X Y Z `  ...+.@.#.$.%.&.*.=.-.;.O >.,.'.@   ",
"  @ / q ).O !.~.{.].^./.(._.:.<.[.}.|.1.2.3.4.5.6.7.O 8.9.0.@   ",
"  @ a.b.c.O d.e.f.g.h.X i.j.k.l.m.n.o.p.q.=.r.s.t.u.O v.w.x.@   ",
"  @ y.z.A.O B.C.D.E.F.G.H.I.J.K.L.M.N.O.P.Q.R.S.T.U.O V.W.X.@   ",
"  @ 3 Y.Z.O `. +.+++@+#+Z.$+%+&+*+=+-+;+>+,+'+)+!+~+O {+]+^+@   ",
"  @ /+(+_+O :+<+[+}+|+1+2+3+U 4+5+6+#.7+8+9+0+a+b+c+O d+e+f+@   ",
"  @ 5 g+h+O i+j+k+[+k+l+m+=+-+n+o+p+q+r+s+t+u+v+w+x+O y+z+A+@   ",
"  @ B+C+D+O E+F+G+H+I++.6+J+#.K+L+M+N+O+P+Q+R+S+c+T+O U+V+W+@   ",
"  @ X+Y+Z+O `+q+ @.@.@+@`+@@#@$@%@&@*@=@$ -@;@>@,@'@O 1+)@!@@   ",
"  @ ~@{@]@O ;+n+^@^@+@/@n+(@,+_@:@<@~+[@R+}@|@1@2@@ O }+3@4@@   ",
"  @ 5@6@7@O 8@9@0@+@0@a@b@c@*@d@t+$ e@v+f@>@,@'@N O O g@h@e+@   ",
"  @ i@j@k@O l@m@n@m@m@P+n@n@n@n@n@o@S+p@q@r@s@@ @ @ O t@u@v@@   ",
"  @ w@x@k@O y@e@e@e@e@e@-@z@v+;@w+>@A@B@'@C@N N N O O D@E@F@@   ",
"  @ G@H@7@O p@I@J@J@J@I@K@|@c+q@L@M@N@O@@ @ @ @ @ @ O P@Q@R@@   ",
"  @ S@R@C.T@O O O O O O O O O O O O O O O O O O O O T@U@V@W@@   ",
"  @ X@Y@Z@`@`@ #.#.#+#@#@###D+$#$#}+%#&#U@*#*#=#2+2+:+-#;#Q@@   ",
"  @ W+>#,#,#>#'#)#!#~#{#]#^#/#(#w V@_#:#<#[## }#|#1#[## 9@2#@   ",
"  @ 3#4#5#5#4#^#6#7#w w 8#:#9#0#;#a#b#c#d#e#e#f#g#h#e#e#i#g#@   ",
"  O@j#k#l#l#m#n#o#p#q#r#s#3@t#u#v#w#x#y#z#A#A#B#c#C#D#D#E#F#G#  ",
"  H#I#@ @ @ @ @ @ @ @ @ @ @ @ @ @ @ @ @ @ @ @ @ @ @ @ @ @ G#H#  ",
"      J#K#K#K#K#K#K#K#K#K#K#K#K#K#K#K#K#K#K#K#K#K#K#K#K#J#      ",
"                                                                ",
"                                                                ",
"                                                                "};
