/* XPM */
static char * xterm_16x16_xpm[] = {
"16 16 115 2",
"  	c None",
". 	c #353B3D",
"+ 	c #2E3436",
"@ 	c #33383A",
"# 	c #959895",
"$ 	c #C7CAC4",
"% 	c #C2C4BF",
"& 	c #BCBFBA",
"* 	c #B7BAB4",
"= 	c #B2B4AF",
"- 	c #ADAFAA",
"; 	c #A7AAA5",
"> 	c #A3A4A0",
", 	c #757976",
"' 	c #323839",
") 	c #525654",
"! 	c #1C2021",
"~ 	c #404342",
"{ 	c #979A96",
"] 	c #6C706D",
"^ 	c #737572",
"/ 	c #737673",
"( 	c #707370",
"_ 	c #6A6D6B",
": 	c #636664",
"< 	c #5B5F5D",
"[ 	c #525756",
"} 	c #494E4E",
"| 	c #404646",
"1 	c #939490",
"2 	c #191D1E",
"3 	c #60625F",
"4 	c #EEEEEC",
"5 	c #686A66",
"6 	c #636461",
"7 	c #5B5E5B",
"8 	c #545655",
"9 	c #4D504E",
"0 	c #454948",
"a 	c #3D4141",
"b 	c #363A3B",
"c 	c #191C1D",
"d 	c #8D8F8B",
"e 	c #1B1F20",
"f 	c #747773",
"g 	c #7C7E7A",
"h 	c #777A76",
"i 	c #6F726F",
"j 	c #666967",
"k 	c #5D605F",
"l 	c #545857",
"m 	c #4B5050",
"n 	c #424747",
"o 	c #888A86",
"p 	c #575A58",
"q 	c #5B5D5A",
"r 	c #5B5D5B",
"s 	c #545754",
"t 	c #4E5150",
"u 	c #484B4A",
"v 	c #414444",
"w 	c #3A3E3E",
"x 	c #333738",
"y 	c #181B1C",
"z 	c #838481",
"A 	c #616563",
"B 	c #646866",
"C 	c #5F6261",
"D 	c #595D5C",
"E 	c #4B504F",
"F 	c #434849",
"G 	c #3B4141",
"H 	c #7E7F7C",
"I 	c #BDBFBA",
"J 	c #1A1D1E",
"K 	c #444746",
"L 	c #454848",
"M 	c #444847",
"N 	c #343839",
"O 	c #2F3434",
"P 	c #292E2F",
"Q 	c #787A77",
"R 	c #B7BAB5",
"S 	c #474C4C",
"T 	c #484D4D",
"U 	c #464B4B",
"V 	c #424748",
"W 	c #3E4344",
"X 	c #383E3F",
"Y 	c #32383A",
"Z 	c #2D3436",
"` 	c #777875",
" .	c #B3B4AF",
"..	c #2E3231",
"+.	c #ADAFAB",
"@.	c #949690",
"#.	c #8C8E89",
"$.	c #858882",
"%.	c #7F817C",
"&.	c #787A75",
"*.	c #72746F",
"=.	c #6B6D69",
"-.	c #646762",
";.	c #5E605C",
">.	c #575955",
",.	c #555753",
"'.	c #33393B",
").	c #7E817E",
"!.	c #9D9F9B",
"~.	c #989A96",
"{.	c #8E8F8B",
"].	c #888A87",
"^.	c #838581",
"/.	c #595C5A",
"(.	c #303537",
"                                ",
"  . + + + + + + + + + + + + @   ",
". # $ $ $ $ $ % & * = - ; > , ' ",
"+ $ ) ! ! ! ! ! ! ! ! ! ! ~ { + ",
"+ $ ! ] ^ / ( _ : < [ } | ! 1 + ",
"+ $ 2 3 4 5 6 7 8 9 0 a b c d + ",
"+ $ e f g 4 h i j k l m n e o + ",
"+ $ 2 p q r 4 s t u v w x y z + ",
"+ % ! A B 4 : C D [ E F G ! H + ",
"+ I J K 4 L M 4 4 4 N O P y Q + ",
"+ R ! S } } T U V W X Y Z ! ` + ",
"+  .M ! ! ! ! ! ! ! ! ! ! ..` + ",
"+ +.@.#.$.%.&.*.=.-.;.>.,.>.` + ",
"'.).> !.~.1 {.].^.H Q ` ` ` /.(.",
"  @ + + + + + + + + + + + + (.  ",
"                                "};
