/* XPM */
static char * start_xpm[] = {
"48 20 73 1",
" 	c None",
".	c #292929",
"+	c #2E2E2E",
"@	c #393939",
"#	c #757575",
"$	c #949494",
"%	c #444444",
"&	c #8B8B8B",
"*	c #C0C0C0",
"=	c #232323",
"-	c #6D6D6D",
";	c #B5B5B5",
">	c #D5D5D5",
",	c #C7C7C7",
"'	c #3E3E3E",
")	c #919191",
"!	c #D3D3D3",
"~	c #DFDFDF",
"{	c #D9D9D9",
"]	c #BEBEBE",
"^	c #575757",
"/	c #717171",
"(	c #C5C5C5",
"_	c #EEEEEE",
":	c #F3F3F3",
"<	c #E7E7E7",
"[	c #D8D8D8",
"}	c #A9A9A9",
"|	c #A4A4A4",
"1	c #E5E5E5",
"2	c #D2D2D2",
"3	c #EAEAEA",
"4	c #4D4D4D",
"5	c #797979",
"6	c #E4E4E4",
"7	c #E0E0E0",
"8	c #EBEBEB",
"9	c #5C5C5C",
"0	c #A7A7A7",
"a	c #BCBCBC",
"b	c #E3E3E3",
"c	c #AEAEAE",
"d	c #686868",
"e	c #E9E9E9",
"f	c #CBCBCB",
"g	c #333333",
"h	c #CDCDCD",
"i	c #B3B3B3",
"j	c #A1A1A1",
"k	c #CFCFCF",
"l	c #DCDCDC",
"m	c #484848",
"n	c #C2C2C2",
"o	c #E1E1E1",
"p	c #ABABAB",
"q	c #C9C9C9",
"r	c #525252",
"s	c #E6E6E6",
"t	c #DBDBDB",
"u	c #DDDDDD",
"v	c #848484",
"w	c #B8B8B8",
"x	c #E2E2E2",
"y	c #9E9E9E",
"z	c #606060",
"A	c #878787",
"B	c #BABABA",
"C	c #EDEDED",
"D	c #EFEFEF",
"E	c #7C7C7C",
"F	c #9B9B9B",
"G	c #D6D6D6",
"H	c #808080",
"................................................",
"................................................",
"................................................",
"........................+@......................",
"........................#$%.....................",
".......................@&*$=....................",
"......................=-;>,#....................",
"......................')!~{]^...................",
".....................=/(_:<[}@..................",
".....................%|112<3[)=........4........",
"...........=@=......=5[6&.)78>5.......909.......",
"..........=4)9......%abc=..d>ef9.....g)hi%......",
".........=^jkj.....=)l]+....mnoa'....-><lj=.....",
".........dp[bq4....9,n'......+}!|=..rhstouv.....",
"........#wx::1$....y*z........=ABv.gi!)r$[{d....",
".......AfCD~,s!'..dwE...........9vzEjz...z,(m...",
".....gyo<>A'g0lF.@Fv.............+%m+.....@pF=..",
"....r]G(#+...+jar9#=........................#r..",
".../ppz=......+H54+.........................=...",
"..m-m=.........=@=.............................."};
