<?xml version="1.0" encoding="UTF-8" standalone="no"?>
<!-- Created with Inkscape (http://www.inkscape.org/) -->

<svg
   xmlns:dc="http://purl.org/dc/elements/1.1/"
   xmlns:cc="http://creativecommons.org/ns#"
   xmlns:rdf="http://www.w3.org/1999/02/22-rdf-syntax-ns#"
   xmlns:svg="http://www.w3.org/2000/svg"
   xmlns="http://www.w3.org/2000/svg"
   xmlns:xlink="http://www.w3.org/1999/xlink"
   xmlns:sodipodi="http://sodipodi.sourceforge.net/DTD/sodipodi-0.dtd"
   xmlns:inkscape="http://www.inkscape.org/namespaces/inkscape"
   version="1.0"
   width="128"
   height="128"
   id="svg2"
   style="display:inline"
   inkscape:version="0.48.5 r10040"
   sodipodi:docname="audacity.svg">
  <sodipodi:namedview
     pagecolor="#ffffff"
     bordercolor="#666666"
     borderopacity="1"
     objecttolerance="10"
     gridtolerance="10"
     guidetolerance="10"
     inkscape:pageopacity="0"
     inkscape:pageshadow="2"
     inkscape:window-width="1920"
     inkscape:window-height="1053"
     id="namedview30"
     showgrid="false"
     inkscape:zoom="7.375"
     inkscape:cx="47.01141"
     inkscape:cy="69.985756"
     inkscape:window-x="0"
     inkscape:window-y="27"
     inkscape:window-maximized="1"
     inkscape:current-layer="svg2" />
  <metadata
     id="metadata7">
    <rdf:RDF>
      <cc:Work
         rdf:about="">
        <dc:format>image/svg+xml</dc:format>
        <dc:type
           rdf:resource="http://purl.org/dc/dcmitype/StillImage" />
        <cc:license
           rdf:resource="GPL v2 or later" />
        <dc:title />
        <dc:rights>
          <cc:Agent>
            <dc:title>Audacity development team</dc:title>
          </cc:Agent>
        </dc:rights>
        <dc:creator>
          <cc:Agent>
            <dc:title>Aaron Spike</dc:title>
          </cc:Agent>
        </dc:creator>
        <dc:date>2009-06-14</dc:date>
      </cc:Work>
    </rdf:RDF>
  </metadata>
  <defs
     id="defs5">
    <linearGradient
       id="linearGradient3865">
      <stop
         style="stop-color:#ffa400;stop-opacity:1;"
         offset="0"
         id="stop3867" />
      <stop
         style="stop-color:#ffa400;stop-opacity:0;"
         offset="1"
         id="stop3869" />
    </linearGradient>
    <linearGradient
       id="linearGradient3857">
      <stop
         style="stop-color:#ffbb40;stop-opacity:1;"
         offset="0"
         id="stop3859" />
      <stop
         style="stop-color:#ffe6b9;stop-opacity:1;"
         offset="1"
         id="stop3861" />
    </linearGradient>
    <linearGradient
       id="linearGradient3845">
      <stop
         style="stop-color:#ffffff;stop-opacity:0.50196081;"
         offset="0"
         id="stop3847" />
      <stop
         style="stop-color:#ffffff;stop-opacity:0;"
         offset="1"
         id="stop3849" />
    </linearGradient>
    <linearGradient
       id="linearGradient3827">
      <stop
         id="stop3829"
         offset="0"
         style="stop-color:#185f9a;stop-opacity:1;" />
      <stop
         id="stop3831"
         offset="1"
         style="stop-color:#599ec9;stop-opacity:1;" />
    </linearGradient>
    <linearGradient
       id="linearGradient3798">
      <stop
         style="stop-color:#90dbec;stop-opacity:1;"
         offset="0"
         id="stop3800" />
      <stop
         id="stop3837"
         offset="0.29581249"
         style="stop-color:#3f9fdb;stop-opacity:1;" />
      <stop
         id="stop3835"
         offset="0.73953128"
         style="stop-color:#3c84cd;stop-opacity:1;" />
      <stop
         id="stop3833"
         offset="1"
         style="stop-color:#2b63a0;stop-opacity:1;" />
    </linearGradient>
    <clipPath
       id="clipPath3126">
      <path
         d="m 30,94 2,2 3,10 1,-12 3,15 0,-19 2,5 3,14 0,-19 2,2 3,17 3,-23 6.615678,25.91971 L 59,96 l 2,-6 2,25 6,-25 2,21 5,-22 5,24 1,-18 3,-6 1,23 5,-22 3,10 1,-9 3,6 0,-19 -3,8 L 94,69 92,82 90,78 89,64 84,83 83,79 80,49 77,75 75,83 71,56 67,79 65,85 64,43.695313 58,90 52,48 49,84 47,80 45,56 44,80 41,87 39,63 37,82 34,77 34,91 30,76 30,94 z"
         id="path3128"
         style="fill:none;stroke:#000000;stroke-width:1px;stroke-linecap:butt;stroke-linejoin:miter;stroke-opacity:1" />
    </clipPath>
    <filter
       x="-0.10011429"
       y="-0.092210524"
       width="1.2002286"
       height="1.1844211"
       color-interpolation-filters="sRGB"
       id="filter3242">
      <feGaussianBlur
         id="feGaussianBlur3244"
         stdDeviation="2.92" />
    </filter>
    <filter
       color-interpolation-filters="sRGB"
       id="filter3282">
      <feGaussianBlur
         id="feGaussianBlur3284"
         stdDeviation="1.3375" />
    </filter>
    <filter
       color-interpolation-filters="sRGB"
       id="filter3326">
      <feGaussianBlur
         id="feGaussianBlur3328"
         stdDeviation="0.35326172" />
    </filter>
    <filter
       color-interpolation-filters="sRGB"
       id="filter2788">
      <feGaussianBlur
         id="feGaussianBlur2790"
         stdDeviation="3.588898" />
    </filter>
    <clipPath
       id="clipPath2798">
      <path
         d="M 64,6.875 C 50.736931,6.8749995 38.641338,11.015795 29.71875,17.96875 20.796162,24.921705 15.000001,34.870138 15,45.9375 l 0,4 C 6.141206,54.425978 -2.65625e-7,66.200002 0,80 c 3.5e-7,17.663999 10.049452,32 23,32 l 0,-66.0625 c 1e-6,-8.28809 4.289844,-15.915956 11.65625,-21.65625 C 42.022656,18.540956 52.424603,14.875 64,14.875 c 11.575394,0 21.977345,3.665955 29.34375,9.40625 C 100.71016,30.021545 105,37.649411 105,45.9375 L 105,112 c 12.95055,0 23,-14.336001 23,-32 0,-13.799998 -6.14121,-25.574022 -15,-30.0625 l 0,-4 C 113,34.870138 107.20384,24.921705 98.28125,17.96875 89.358662,11.015795 77.263067,6.8750003 64,6.875 z M 26,49 l 0,63 c 2,0 4,-1 5,-3 l 0,-58 c -1,-1 -3,-2 -5,-2 z m 76,0 c -2,0 -4,1 -5,2 l 0,58 c 1,2 3,3 5,3 l 0,-63 z"
         id="path2800"
         style="fill:#000000;fill-opacity:1;fill-rule:nonzero;stroke:none;stroke-width:18.98999977;marker:none;visibility:visible;display:inline;overflow:visible;enable-background:accumulate" />
    </clipPath>
    <filter
       color-interpolation-filters="sRGB"
       id="filter3200">
      <feGaussianBlur
         id="feGaussianBlur3202"
         stdDeviation="0.79830634" />
    </filter>
    <linearGradient
       inkscape:collect="always"
       xlink:href="#linearGradient3798"
       id="linearGradient3804"
       x1="67.212791"
       y1="5.7402782"
       x2="67.212791"
       y2="114.72511"
       gradientUnits="userSpaceOnUse"
       gradientTransform="matrix(0.99,0,0,0.99,-1.9889316,0.61090884)" />
    <linearGradient
       inkscape:collect="always"
       xlink:href="#linearGradient3827"
       id="linearGradient3825"
       x1="56.542496"
       y1="109.98608"
       x2="56.542496"
       y2="9.4688349"
       gradientUnits="userSpaceOnUse"
       gradientTransform="matrix(0.99,0,0,0.99,0.83202699,0.61090884)" />
    <linearGradient
       inkscape:collect="always"
       xlink:href="#linearGradient3845"
       id="linearGradient3843"
       gradientUnits="userSpaceOnUse"
       x1="63.890251"
       y1="4.8953648"
       x2="63.890251"
       y2="83.013397"
       gradientTransform="matrix(0.97426231,0,0,0.99,1.8197283,1.4518675)" />
    <linearGradient
       inkscape:collect="always"
       xlink:href="#linearGradient3857"
       id="linearGradient3863"
       x1="62.404949"
       y1="94.918716"
       x2="62.404949"
       y2="48.912544"
       gradientUnits="userSpaceOnUse" />
  </defs>
  <path
     inkscape:connector-curvature="0"
     style="fill:url(#linearGradient3863);fill-opacity:1;fill-rule:evenodd;stroke:none"
     id="path3851"
     d="m 30.357793,62.499262 7.917237,10.253147 2.968964,-20.455665 4.948273,14.303776 5.937927,-4.506296 1.979309,4.607555 1.979309,-2.405035 2.968964,2.303776 0.989655,-6.303776 c 0,0 2.968963,10.405035 2.968963,8.354407 0,-2.050631 3.958619,-18.759444 3.958619,-18.759444 l 3.958618,8.658184 5.937928,-2.607553 2.968963,10.658182 4.948273,-12.455665 2.968964,12.455665 4.948273,-4.253148 5.937927,8.303779 0,20.405034 -3.958618,16.151885 -5.937927,-10.101255 -3.958619,-2.101258 -0.989654,8.506303 -1.97931,-8.506303 -3.958618,12.455663 -5.937927,-12.455663 -1.979309,6.455663 -3.958619,-2.30377 -4.948273,16.65818 -2.968963,-8.75945 -5.937928,-9.848106 -3.958618,7.696226 -1.979309,-5.49371 -3.958619,-4.25314 -3.958618,8.25314 -1.979309,-4.151886 -5.937928,2.050626 z"
     sodipodi:nodetypes="cccccccccscccccccccccccccccccccccccccc" />
  <path
     d="m 30.357793,78.533355 7.917237,3.085938 2.968964,-5.554689 4.948273,3.703126 5.937927,-6.171877 1.979309,7.406252 1.979309,-4.937501 2.968964,3.703126 0.989655,-3.703126 c 0,0 2.968963,4.937501 2.968963,4.320314 0,-0.617188 3.958619,-9.257815 3.958619,-9.257815 l 3.958618,8.023439 5.937928,-7.406251 2.968963,8.023439 4.948273,-5.554689 2.968964,5.554689 4.948273,-3.085938 5.937927,3.703126 0,4.9375 -3.958618,1.851563 -5.937927,-1.234375 -3.958619,-1.234375 -0.989654,6.171879 -1.97931,-6.171879 -3.958618,5.554689 -5.937927,-5.554689 -1.979309,5.554689 -3.958619,-3.703126 -4.948273,8.023439 -2.968963,-9.257815 -5.937928,1.851563 -3.958618,-3.703125 -1.979309,6.171876 -3.958619,-3.085938 -3.958618,3.085938 -1.979309,-1.851563 -5.937928,0.617187 0,-9.875001 z"
     id="path3118"
     style="fill:#dd6d3d;fill-opacity:1;fill-rule:evenodd;stroke:none;stroke-width:0.63472896999999995;stroke-miterlimit:4;stroke-opacity:1;stroke-dasharray:none"
     inkscape:connector-curvature="0" />
  <path
     inkscape:connector-curvature="0"
     style="fill:url(#linearGradient3804);fill-opacity:1;fill-rule:nonzero;stroke:url(#linearGradient3825);stroke-width:0.99000001000000004;stroke-miterlimit:4;stroke-opacity:1;stroke-dasharray:none;marker:none;visibility:visible;display:inline;overflow:visible;enable-background:accumulate"
     id="path2127"
     d="M 64.218673,8.6355103 C 51.088235,8.6355098 39.113598,12.734897 30.280236,19.618323 21.446873,26.501748 15.708674,36.350697 15.708673,47.307385 l 0,3.96 C 6.9384652,55.710978 0.85867079,67.367262 0.85867109,81.02926 c 2.9e-7,17.487359 9.94895891,31.68 22.77000191,31.68 l 0,-65.401875 c 1e-6,-8.205209 4.246946,-15.756796 11.539688,-21.439687 7.292742,-5.682891 17.590669,-9.312188 29.050312,-9.312188 11.45964,0 21.757572,3.629296 29.050313,9.312188 7.292754,5.682892 11.539704,13.234479 11.539704,21.439687 l 0,65.401875 c 12.82104,0 22.77,-14.192641 22.77,-31.68 0,-13.661998 -6.0798,-25.318282 -14.85,-29.761875 l 0,-3.96 c 0,-10.956688 -5.7382,-20.805637 -14.571576,-27.689062 C 89.323748,12.734897 77.349109,8.6355106 64.218673,8.6355103 z m -37.62,41.7037497 0,62.37 c 1.98,0 3.96,-0.99 4.95,-2.97 l 0,-57.42 c -0.99,-0.99 -2.97,-1.98 -4.95,-1.98 z m 75.240017,0 c -1.98001,0 -3.960014,0.99 -4.950017,1.98 l 0,57.42 c 0.990003,1.98 2.970007,2.97 4.950017,2.97 l 0,-62.37 z" />
  <path
     d="M 64.198739,9.4764689 C 51.277031,9.4764679 39.49275,13.575855 30.799809,20.45928 22.106867,27.342706 16.459886,37.191654 16.459885,48.148343 l 0,3.96 C 7.8290946,56.551936 1.9913283,68.208994 1.8459489,81.870218 1.710356,94.611809 10.160142,111.56241 22.777374,111.56241 l 0,-63.682541 c 0,-8.20521 5.119093,-17.501882 12.295906,-23.184773 7.176811,-5.682891 17.982222,-9.312187 29.259696,-9.312187 11.27747,0 23.82797,5.105905 31.004782,10.788797 7.176812,5.682892 10.416592,13.905666 10.416592,22.110874 l 0,62.98424 c 12.61723,0 20.79719,-15.705858 20.79719,-29.396602 0,-13.661998 -5.98315,-25.318282 -14.61394,-29.761875 l 0,-3.96 c 0,-10.956689 -5.64698,-20.805637 -14.339928,-27.689063 C 88.904728,13.575855 77.120445,9.4764689 64.198739,9.4764689 z M 27.579483,51.54937 l 0,59.88254 c 1.948525,0 1.883489,0.17915 2.857752,-1.80085 l 0,-56.808131 c -0.974263,-0.99 -0.909227,-1.273559 -2.857752,-1.273559 z m 73.238517,0 c -1.948531,0 -1.917052,0.318814 -2.891317,1.308814 l 0.134238,56.772866 c 0.974265,1.98 0.808548,1.91916 2.757079,1.91916 z"
     id="path3839"
     style="fill:none;stroke:url(#linearGradient3843);stroke-width:0.98209965000000021;stroke-miterlimit:4;stroke-opacity:1;stroke-dasharray:none;marker:none;visibility:visible;display:inline;overflow:visible;enable-background:accumulate"
     inkscape:connector-curvature="0"
     sodipodi:nodetypes="ssscscssssscscssscccccccccc" />
</svg>
