<?xml version="1.0" encoding="UTF-8" standalone="no"?>
<!-- Generator: Adobe Illustrator 16.0.0, SVG Export Plug-In . SVG Version: 6.00 Build 0)  -->

<svg
   xmlns:dc="http://purl.org/dc/elements/1.1/"
   xmlns:cc="http://creativecommons.org/ns#"
   xmlns:rdf="http://www.w3.org/1999/02/22-rdf-syntax-ns#"
   xmlns:svg="http://www.w3.org/2000/svg"
   xmlns="http://www.w3.org/2000/svg"
   xmlns:sodipodi="http://sodipodi.sourceforge.net/DTD/sodipodi-0.dtd"
   xmlns:inkscape="http://www.inkscape.org/namespaces/inkscape"
   version="1.1"
   id="Layer_1"
   x="0px"
   y="0px"
   width="24px"
   height="24px"
   viewBox="0 0 24 24"
   enable-background="new 0 0 24 24"
   xml:space="preserve"
   inkscape:version="0.91 r13725"
   sodipodi:docname="autoruns.svg"><metadata
     id="metadata15"><rdf:RDF><cc:Work
         rdf:about=""><dc:format>image/svg+xml</dc:format><dc:type
           rdf:resource="http://purl.org/dc/dcmitype/StillImage" /></cc:Work></rdf:RDF></metadata><defs
     id="defs13" /><sodipodi:namedview
     pagecolor="#ffffff"
     bordercolor="#666666"
     borderopacity="1"
     objecttolerance="10"
     gridtolerance="10"
     guidetolerance="10"
     inkscape:pageopacity="0"
     inkscape:pageshadow="2"
     inkscape:window-width="1920"
     inkscape:window-height="996"
     id="namedview11"
     showgrid="true"
     inkscape:zoom="40.333334"
     inkscape:cx="13.133614"
     inkscape:cy="14.846897"
     inkscape:current-layer="Layer_1"
     inkscape:window-x="0"
     inkscape:window-y="27"
     inkscape:window-maximized="1"><inkscape:grid
       type="xygrid"
       id="grid4147" /></sodipodi:namedview><g
     id="g3"
     style="fill:#000000;fill-opacity:1;stroke:none;stroke-width:1.5;stroke-miterlimit:4;stroke-dasharray:none"
     transform="matrix(1.1623915,0,0,1.161024,-1.7973015,-2.0812597)"><path
       d="m 15.921186,16.194515 c -0.641007,0.642379 -0.661574,1.284071 -0.565595,1.711182 0.282455,1.273102 2.034771,2.503699 5.2069,3.658199 0.0617,0.02194 0.128888,0.03427 0.193331,0.03427 l 6.86e-4,0 c 0.151511,-6.86e-4 0.294794,-0.06033 0.400372,-0.167279 0.156996,-0.153567 0.209099,-0.388033 0.133686,-0.595074 -1.267618,-3.482008 -2.623675,-5.248035 -4.031833,-5.248035 -0.484012,-6.86e-4 -0.933746,0.203614 -1.337547,0.60673 z"
       id="path5"
       inkscape:connector-curvature="0"
       style="fill:#ffd881;fill-opacity:1;stroke:none;stroke-width:1.99964273;stroke-miterlimit:4;stroke-dasharray:none;stroke-opacity:1" /><g
       id="g7"
       style="fill:#000000;fill-opacity:1;stroke:none;stroke-width:1.5;stroke-miterlimit:4;stroke-dasharray:none"><path
         d="m 2.4161676,3.0564241 0,0.284744 c 0,2.5178221 0.4250763,4.7631385 1.2695176,6.6731259 0.6983978,1.581186 1.6799079,2.935556 2.9135265,4.025578 0.2088667,0.18439 0.420181,0.356542 0.6282317,0.514008 0.076693,0.834651 0.4144698,1.683172 1.0059866,2.527613 0.5156396,0.731033 1.2254598,1.462882 2.108248,2.173518 1.361712,1.099814 2.727505,1.820241 2.986956,1.95323 0.10525,0.05303 0.206419,0.07832 0.314116,0.07832 0.218657,0 0.416918,-0.102802 0.547459,-0.280665 0.194181,-0.27169 0.164809,-0.638838 -0.06935,-0.873813 -0.0065,-0.0049 -0.440578,-0.452 -0.864838,-1.201799 -0.330434,-0.58499 -0.737561,-1.505308 -0.834651,-2.619808 0.798752,-0.363885 1.69541,-1.214037 2.058479,-1.577922 0.450368,-0.452 1.229539,-1.29481 1.580369,-2.059295 1.112052,0.09791 2.032371,0.502586 2.617361,0.833835 0.759589,0.429156 1.197719,0.859943 1.201799,0.864023 0.230895,0.230895 0.615177,0.258635 0.874629,0.07098 0.270058,-0.193365 0.357358,-0.549907 0.209682,-0.849337 -0.009,-0.01305 -0.738376,-1.48899 -1.958125,-3.00001 C 18.28677,9.7050736 17.555736,8.9960693 16.83123,8.4877727 15.985973,7.8921764 15.13582,7.5527681 14.301986,7.4785226 14.128202,7.2508906 13.960945,7.0452875 13.788794,6.8511067 12.697139,5.6158564 11.343585,4.6343463 9.763215,3.9367643 8.0580147,3.1845181 6.0876516,2.7635212 3.8953677,2.6803009 l 0.106881,0.00408 -1.5860811,-0.019581 0,1.0129311"
         id="path9"
         inkscape:connector-curvature="0"
         style="fill:#bf4040;fill-opacity:1;stroke:none;stroke-width:1.50037766;stroke-miterlimit:4;stroke-dasharray:none;stroke-opacity:1"
         sodipodi:nodetypes="csccccccscccccccsccccccccccc" /></g></g></svg>