<?xml version="1.0" encoding="UTF-8" standalone="no"?>
<!-- Created with Inkscape (http://www.inkscape.org/) -->

<svg
   version="1.1"
   id="svg69"
   width="200"
   height="200"
   viewBox="0 0 200 200"
   sodipodi:docname="ghidra.svg"
   inkscape:version="1.1 (c68e22c387, 2021-05-23)"
   xmlns:inkscape="http://www.inkscape.org/namespaces/inkscape"
   xmlns:sodipodi="http://sodipodi.sourceforge.net/DTD/sodipodi-0.dtd"
   xmlns="http://www.w3.org/2000/svg"
   xmlns:svg="http://www.w3.org/2000/svg">
  <defs
     id="defs73" />
  <sodipodi:namedview
     id="namedview71"
     pagecolor="#505050"
     bordercolor="#eeeeee"
     borderopacity="1"
     inkscape:pageshadow="0"
     inkscape:pageopacity="0"
     inkscape:pagecheckerboard="0"
     showgrid="false"
     inkscape:zoom="2.8531759"
     inkscape:cx="81.488142"
     inkscape:cy="72.725976"
     inkscape:window-width="1920"
     inkscape:window-height="1022"
     inkscape:window-x="0"
     inkscape:window-y="0"
     inkscape:window-maximized="1"
     inkscape:current-layer="g75" />
  <g
     inkscape:groupmode="layer"
     inkscape:label="Image"
     id="g75">
    <path
       style="fill:#f79e22;stroke-width:0.333333"
       d="m 90.934942,190.12473 c -20.35508,-2.34117 -44.650679,-15.04397 -60.711368,-28.30358 -3.174155,-2.62057 -2.675642,-2.56663 2.823912,0.30552 18.503624,9.66354 38.811978,14.20266 54.898771,15.70674 24.517143,2.29231 50.638443,-7.13169 63.107583,-24.16674 14.42796,-19.71116 14.20278,-47.26988 1.53467,-66.113325 L 151.20808,85.5 l 2.43649,1.422618 c 26.91473,15.714942 21.93022,65.403462 -3.78503,86.050262 -14.5415,11.67539 -39.33088,19.40546 -58.924598,17.15185 z M 24.335424,154.94999 c -1.836177,-2.53477 -0.891389,-5.28332 1.816091,-5.28332 2.788873,0 3.922711,4.17776 1.624471,5.98555 -1.359864,1.06967 -2.295309,0.87874 -3.440562,-0.70223 z M 27,154.66667 c 1.244188,-1.24419 0.547762,-4 -1.010848,-4 -1.378136,0 -1.932826,2.77308 -0.804156,4.02025 0.734741,0.81188 0.985671,0.80908 1.815004,-0.0202 z m -0.791667,-7.70834 C 26.09375,146.38542 26,145.17884 26,144.27705 c 0,-1.3642 -0.09595,-1.62316 -0.571249,-1.54166 -0.893491,0.15319 -0.919683,-0.94896 -0.02823,-1.18774 1.916458,-0.51333 1.932809,-0.48694 1.932809,3.11902 0,3.4259 -0.638161,4.72586 -1.125,2.29166 z m 6.911775,0.55495 c -2.543072,-1.78124 -1.459496,-6.17995 1.522365,-6.17995 1.78893,0 2.69086,1.13742 2.69086,3.39344 0,2.68906 -2.238586,4.1696 -4.213225,2.78651 z m 3.008039,-2.24595 c 0.388146,-1.08342 -0.38684,-2.7319 -1.349084,-2.86963 -1.577731,-0.22583 -2.374329,2.6737 -1.087963,3.96007 0.82581,0.82581 1.927063,0.33306 2.437047,-1.09044 z m -18.872149,-1.72736 -0.910668,-1.86361 0.842858,-0.21155 c 1.134505,-0.28474 1.196297,-0.1684 1.079574,2.03252 l -0.101095,1.90626 z M 17,136.6442 c 0,-2.53743 -0.03761,-2.67719 -0.666667,-2.47753 -0.514054,0.16315 -0.666666,0.0599 -0.666666,-0.45106 0,-0.61494 1.768781,-1.39127 2.196154,-0.9639 0.654544,0.65454 0.523172,6.58162 -0.14588,6.58162 C 17.042488,139.33333 17,139.17397 17,136.6442 Z m 7.044904,1.9036 c -1.403584,-1.49405 -1.221331,-4.7398 0.312232,-5.56054 2.14265,-1.14671 4.309531,0.33604 4.309531,2.94891 0,2.99052 -2.786555,4.56512 -4.621763,2.61163 z m 2.6861,-0.7978 c 1.668769,-1.94303 0.06136,-5.2054 -1.754892,-3.56172 -0.857439,0.77598 -0.844846,2.60965 0.02389,3.47839 0.817232,0.81723 1.08944,0.83033 1.731004,0.0833 z m 5.910022,0.60897 c -2.06636,-2.06636 -0.866765,-5.82564 1.858974,-5.82564 2.72574,0 3.925333,3.75928 1.858973,5.82564 -0.58739,0.58739 -1.325683,0.97436 -1.858973,0.97436 -0.53329,0 -1.271584,-0.38697 -1.858974,-0.97436 z m 3.013914,-1.00372 c 0.83078,-1.55233 0.161893,-3.68858 -1.15494,-3.68858 -0.913037,0 -1.5,0.84783 -1.5,2.16666 0,1.31883 0.586963,2.16667 1.5,2.16667 0.45955,0 0.95914,-0.2789 1.15494,-0.64475 z m 5.754713,1.42165 c -0.233023,-0.0937 -0.645523,-0.59946 -0.916666,-1.1238 -1.790557,-3.46255 1.619986,-6.92474 4.24026,-4.30447 2.523916,2.52392 -0.05866,6.74191 -3.323594,5.42827 z m 2.5979,-1.45768 c 0.200387,-0.37443 0.318164,-1.21983 0.261727,-1.87868 -0.227817,-2.6595 -2.935947,-2.45545 -2.935947,0.22122 0,2.06696 1.84355,3.20958 2.67422,1.65746 z m -11.650026,-7.86417 c -1.501701,-1.90911 -0.645548,-5.11908 1.509613,-5.65999 2.736917,-0.68692 4.582733,3.75507 2.4476,5.8902 -1.000867,1.00087 -3.084179,0.87967 -3.957213,-0.23021 z m 3.032893,-0.67338 c 0.672057,-0.6082 0.800793,-2.13488 0.26452,-3.13692 -0.881427,-1.64695 -3.313419,0.0144 -2.831554,1.93429 0.447362,1.78243 1.421877,2.23898 2.567034,1.20263 z m 5.427763,0.73348 c -1.171463,-1.17146 -1.171463,-3.85884 0,-5.0303 1.888837,-1.88884 4.681817,-0.42164 4.681817,2.45943 0,3.04427 -2.716653,4.53603 -4.681817,2.57087 z m 2.99625,-0.92265 c 0.715057,-1.02089 0.649737,-2.46166 -0.147766,-3.25917 -1.24227,-1.24227 -2.48485,-0.40883 -2.48485,1.66667 0,2.11774 1.590733,3.07999 2.632616,1.5925 z M 49.666667,125 c 0,-2.39421 -0.06447,-2.66667 -0.631004,-2.66667 -1.243613,0 -1.077403,-0.95702 0.229234,-1.31992 0.679306,-0.18866 1.347603,-0.34386 1.485103,-0.34488 0.1375,-0.001 0.25,1.57314 0.25,3.49814 0,3.27777 -0.04233,3.5 -0.666667,3.5 -0.61111,0 -0.666666,-0.22223 -0.666666,-2.66667 z m 7.47578,-5.43628 c -1.37641,-1.18394 -1.53116,-3.71728 -0.31534,-5.1622 2.33042,-2.76955 5.973976,-0.0564 4.870476,3.62674 -0.653053,2.17969 -2.918413,2.94331 -4.555136,1.53546 z m 3.05391,-1.39558 c 1.312146,-2.00259 -0.780104,-4.99991 -2.235514,-3.20256 -0.34513,0.42622 -0.62751,1.27261 -0.62751,1.88087 0,2.03834 1.837614,2.88666 2.863024,1.32169 z"
       id="path223"
       sodipodi:nodetypes="sssssscssssssscssccsssssssssssssssccssccsssssssssscssccsssssssssscsscsssssssssssssssssssssssssssssssssss" />
    <path
       id="path221"
       style="fill:#f27c45;stroke-width:0.333333"
       d="m 124.48438,20.279297 c -3.39219,-0.185525 -13.94011,2.931237 -19.22527,6.174917 -5.507308,3.329126 -10.718439,7.27339 -14.964188,12.13563 -0.530546,0.754917 -7.46973,10.748606 -7.78657,11.604395 1.53336,0.30148 9.804945,-9.308099 10.952586,-10.348536 7.402272,-5.489039 15.673082,-10.052096 24.632352,-12.475853 7.75036,-2.182203 15.74614,-2.967891 23.76521,-3.442635 1.20031,-0.07753 6.45976,0.173662 7.64176,-0.0529 0.66048,-0.948409 -3.68821,-2.991506 -4.95125,-3.236477 -5.48644,-0.557333 -11.01621,-0.405022 -16.52387,-0.399004 -1.18026,0.01349 -2.36051,0.02697 -3.54076,0.04046 z m 29.67578,9.308594 c -9.44644,0.433316 -18.51052,3.785515 -26.75359,8.262896 -4.05662,2.192535 -8.02059,4.603163 -11.64095,7.465619 -0.78834,0.659853 -1.36358,2.000581 -0.47265,2.81836 1.00425,0.88755 2.37141,0.162279 3.30078,-0.460938 7.47673,-4.438042 15.90267,-7.097896 24.34783,-8.844576 5.84637,-1.174141 11.73027,-1.855921 17.68145,-1.815809 1.95642,-0.06494 3.93576,0.07511 5.87666,-0.198942 1.06916,-0.129945 1.31111,-0.126364 0.93914,-1.278418 -1.49167,-1.491668 -2.94552,-3.037237 -4.6055,-4.697222 -2.99396,-0.06888 -5.67864,-1.361411 -8.67317,-1.250966 z m 19.02148,16.617187 c -1.07475,-0.06634 -2.36836,0.767818 -2.10352,1.970703 0.35748,1.30702 1.91777,1.554259 3.05076,1.799001 3.32767,0.784786 6.40232,5.347947 4.28177,-0.488562 -1.70164,-3.973949 -3.04105,-3.233927 -5.22901,-3.281147 z M 116.41797,65.59375 c -1.26573,0.142162 -1.59895,1.701318 -1.26953,2.734375 0.80318,3.928653 0.62411,8.0392 -0.33549,11.806413 -1.34032,5.314354 -4.18448,10.223464 -8.29592,13.890535 -1.33788,1.180319 -2.88388,2.095716 -4.27484,3.201489 -0.79294,0.754953 -0.75592,2.360945 0.41797,2.71875 1.3255,0.227348 2.63254,-0.262065 3.95675,-0.303338 3.88792,-0.419364 8.01645,-1.453308 10.78348,-4.407599 2.92151,-3.129124 4.23059,-7.375781 4.99028,-11.497783 0.62151,-3.809135 0.0238,-7.752125 -1.48714,-11.288191 -0.8873,-2.193776 -1.8979,-4.377843 -3.23121,-6.32841 -0.33094,-0.32093 -0.78093,-0.562125 -1.25435,-0.526241 z m -31.779678,63.29993 c -2.112586,4.23721 -4.297091,8.46068 -7.2481,12.16735 -0.888194,1.06016 -2.079868,2.13104 -3.566364,1.98389 -2.560619,-0.0397 -5.104178,-0.34669 -7.638897,-0.69136 -0.923313,-0.32134 -2.003093,0.27846 -2.110712,1.27144 -0.221929,0.97501 0.525464,1.73496 1.234712,2.26818 2.41717,2.06869 5.202012,3.68914 8.095674,4.99192 1.961583,0.83235 4.454077,1.3898 6.335413,0.0725 2.042861,-1.50095 2.585867,-4.1379 3.573202,-6.32942 5.19956,-15.88388 12.445813,-33.16491 15.441251,-44.54037 -5.395855,9.34301 -9.670574,19.79127 -14.116179,28.80587 z"
       sodipodi:nodetypes="ccccccccccccscccccccccssccccccccccccccccccccccccccccc" />
    <path
       style="fill:#e02625;stroke-width:0.333333"
       d="m 91,193.12561 c -22.565283,-2.67173 -41.3207,-11.49293 -56.5,-26.57354 -4.587689,-4.55786 -4.586335,-4.62271 0.0258,-1.23623 36.417207,26.73946 80.65322,30.06851 111.37753,8.38189 23.40829,-16.52263 30.63558,-54.26453 14.94236,-78.031063 -1.64165,-2.48618 -6.76461,-7.018588 -8.99757,-9.536376 -1.73885,-1.96064 0.5173,1.063598 0.80735,1.413152 0.21443,0.258363 -3.76217,-2.84821 -5.56055,-3.554176 C 143.93775,82.749873 137.85202,81 136.69888,81 c -0.41206,0 -0.8114,-0.776117 -1.5007,-2.916667 -1.59872,-4.96459 -2.59475,-6.504133 -7.18555,-11.106486 C 124.32426,63.27919 117.2126,58 115.91981,58 c -0.10915,0 0.91955,1.646663 2.28601,3.659253 6.67916,9.837467 7.47172,17.358537 2.95721,28.062854 -3.2857,7.7907 -11.21236,13.060263 -17.5154,11.644063 l -1.37691,-0.30937 -0.60333,1.38827 c -0.33183,0.76354 -3.22867,7.76326 -6.437417,15.55493 -10.791483,26.20451 -13.928493,33.32481 -15.180416,34.45609 -2.547697,2.30217 -12.795724,-1.15753 -16.255304,-5.48774 -3.83594,-4.80128 -3.598886,-5.54275 1.926364,-6.02545 9.176996,-0.80172 9.479763,-1.38253 10.308443,-19.77506 0.44032,-9.7729 0.501783,-9.3792 -2.377727,-15.23105 -4.218456,-8.572927 -4.501446,-14.657967 -0.831523,-17.8802 1.619923,-1.422313 2.19763,-1.51678 7.983903,-1.305547 l 5.02962,0.18361 -1.666666,-0.756323 c -4.801534,-2.178903 -8.9209,-1.949443 -16.186307,0.90162 -4.03635,1.583933 -3.998357,1.55395 -7.4805,5.90319 -5.101217,6.371473 -4.81642,6.259523 -11.812547,4.64339 -3.293443,-0.7608 -3.38159,-0.740883 -4.552646,1.028703 -1.378684,2.083327 -0.94748,7.311917 0.716933,8.693257 0.9388,0.77914 0.51187,1.05151 -1.268267,0.80912 -3.417176,-0.4653 -6.61218,-2.84642 -7.64248,-5.69566 -0.535566,-1.48109 -0.765043,-1.42899 -1.95236,0.44321 -1.819263,2.86868 -2.133024,5.8334 -1.001963,9.4675 0.785613,2.52419 0.802887,2.49907 -1.249937,1.81723 -4.552049,-1.51195 -5.92245,-3.38375 -5.65193,-7.71985 l 0.171349,-2.74652 -1.355116,0.47811 c -3.537557,1.24813 -6.288855,5.21256 -7.634607,11.00097 -0.536743,2.30866 -0.640666,2.27395 -1.854042,-0.61927 -2.937508,-7.00429 -2.572387,-11.89528 1.511697,-20.249997 2.840074,-5.80987 4.348162,-6.745846 16.091294,-9.986846 18.782105,-5.183697 22.193822,-8.07897 26.664949,-22.62855 3.803986,-12.378627 4.53005,-12.834417 17.650103,-11.079984 2.656657,0.355254 4.836343,0.619544 4.843743,0.587314 0.360644,-1.570724 7.102414,-10.124054 9.05492,-11.48804 9.840657,-6.874504 16.616187,-10.546649 24.054437,-13.036813 8.94504,-2.994609 27.05333,-5.300999 32.98839,-3.945466 3.37445,0.770706 5.11754,1.496085 -0.0233,1.854006 -13.60266,0.94707 -31.22736,18.635246 -31.83945,21.110054 l -0.50523,2.042779 1.46474,-0.910334 c 6.21008,-3.85956 16.81697,-7.672856 26.79808,-9.634213 7.46806,-1.467527 9.47876,-1.672237 16.46941,-1.676757 l 6.80275,-0.0044 1.67286,1.815294 c 0.92007,0.99841 2.53823,2.90242 3.59591,4.231133 l 1.92305,2.415847 -1.64866,1.71952 c -2.29411,2.392713 -2.46685,2.171276 2.47333,3.170553 l 2.95533,0.59779 1.11123,1.73713 C 199.9277,83.122793 197.25504,128.08737 173.17515,158 153.23681,182.76789 120.76157,196.64937 91,193.12561 Z M 79.25836,149.51193 c 1.318647,-1.10956 4.876073,-9.87522 14.75026,-36.34526 1.983287,-5.31667 3.77704,-10.11352 3.986113,-10.65966 0.209074,-0.54614 0.275884,-0.88874 0.148464,-0.76132 -0.12742,0.12742 -1.456597,3.19927 -2.95373,6.82633 -7.662757,18.56435 -15.073687,32.87602 -18.16317,35.07592 -1.168164,0.83181 -5.352857,0.92732 -9.35963,0.21363 -3.67623,-0.65482 -3.43727,-0.082 1.273383,3.05234 5.101797,3.39462 8.388207,4.2221 10.31831,2.59802 z m 30.66023,-51.85755 c 11.11845,-2.597033 14.79935,-16.72022 7.61773,-29.228387 -1.27331,-2.217706 -1.29854,-2.164613 -0.82043,1.725927 1.39043,11.314147 -3.59137,21.896263 -13.00357,27.62162 l -1.54565,0.940207 2.5,-0.20829 c 1.375,-0.114557 3.73836,-0.497544 5.25192,-0.851077 z M 30.25,93.01938 C 30.698251,92.99853 30.866675,90 30.419595,90 29.97074,90 22,93.477017 22,93.67282 c 0,0.105473 1.7625,0.006 3.916667,-0.221143 C 28.070833,93.224573 30.020833,93.03004 30.25,93.01938 Z M 67.597263,69.749697 71.36119,68.21308 71.167667,63.189873 c -0.10644,-2.762763 -0.27664,-5.835813 -0.37822,-6.829 l -0.184694,-1.805793 -1.7386,4.332503 c -2.003856,4.993504 -3.252023,7.315067 -5.748733,10.692527 -2.123663,2.872813 -2.132383,2.909287 -0.534087,2.234187 0.6875,-0.290394 2.943767,-1.219464 5.01393,-2.0646 z"
       id="path215"
       sodipodi:nodetypes="sssssscssssscsscssssssssscsssssssssssscssssssssssssscssscsscsscsssssssssssssscscssssscsscsscssss" />
    <path
       style="fill:#672e25;stroke-width:0.333333"
       d="m 84.18728,179.14185 c -16.63022,-2.20667 -37.926853,-9.67264 -55.020613,-19.2886 -3.653864,-2.05545 -3.260534,-1.96467 7.177376,1.65657 55.384904,19.21478 73.881487,19.43374 101.489287,1.20143 18.77752,-12.40075 27.90418,-41.08031 20.1956,-63.462473 -3.77957,-10.97415 -18.45244,-18.38208 -29.27224,-14.778757 l -2.68535,0.894303 -0.38462,1.567837 c -2.29973,9.374463 -11.44299,18.03311 -19.16605,18.15023 -1.20222,0.0182 -2.22368,0.192 -2.30334,0.39185 -0.0787,0.1975 -1.87529,4.85923 -3.99235,10.35939 -10.78267,28.01358 -16.18872,39.45747 -19.347683,40.9565 -4.402937,2.08933 -15.428837,-2.18565 -23.078107,-8.94788 -2.205157,-1.94943 -10.606327,-11.47956 -10.34768,-11.7382 0.07208,-0.0721 3.10791,0.17501 6.746277,0.54911 16.45618,1.69202 17.059413,1.40424 17.789186,-8.48649 0.202904,-2.75 0.504327,-6.575 0.66983,-8.5 0.470184,-5.46882 0.09782,-7.22771 -2.707796,-12.79052 -3.597647,-7.133193 -4.418457,-10.223197 -3.63133,-13.67038 0.691556,-3.02863 -1.081964,-1.779533 -2.16352,1.523777 -2.42696,7.412463 -8.286337,10.653873 -14.9958,8.295683 l -1.82499,-0.64143 -0.196204,0.78174 c -0.345896,1.37817 -0.03829,1.75309 3.785734,4.6142 4.309033,3.224 4.49288,2.8329 -1.68199,3.57818 -6.024577,0.72713 -9.187337,0.18031 -12.309914,-2.12831 -3.109076,-2.29864 0.12536,4.79634 3.942977,8.64922 1.96399,1.98212 1.568503,2.31916 -1.912817,1.6301 -9.713925,-1.92268 -13.409851,-3.78246 -15.307637,-7.70276 -0.863813,-1.7844 -0.816891,-1.77942 -1.636126,-0.17359 -0.979651,1.92027 -1.854764,5.35947 -2.532986,9.95463 -0.722881,4.89774 -0.429217,4.85162 -3.474508,0.54567 -5.008104,-7.08131 -5.816497,-9.26524 -5.786569,-15.63288 0.06293,-13.390397 6.192349,-21.227063 19.285889,-24.657667 10.215301,-2.676483 16.800331,-6.055536 21.400734,-10.9816 3.268107,-3.499456 4.277497,-5.5699 6.2595,-12.83936 2.60338,-9.548503 8.825643,-12.923183 19.715627,-10.69289 l 3.600526,0.737397 0.5072,-0.774217 c 14.62865,-22.330074 43.313117,-33.88495 66.823837,-26.91844 2.32366,0.688528 3.42239,1.321357 7.60014,4.377414 C 158.24568,26.81999 158.10894,27 153.70821,27 c -5.20068,0 -8.04595,0.586876 -13.30881,2.745121 -3.09833,1.270595 -2.90424,1.441444 0.67249,0.591972 4.17676,-0.991977 9.15653,-1.618235 14.42811,-1.814483 l 4.66667,-0.173729 1.33333,1.24499 1.33333,1.24499 -4.0236,-0.118729 c -13.64339,-0.402589 -26.10178,4.136528 -41.83866,15.243595 -2.77017,1.95518 3.87497,-8.48726 7.95641,-12.50303 6.4354,-6.331848 11.90864,-8.536068 22.57252,-9.090552 l 4,-0.207986 c -5.12515,-3.698497 -24.27877,-4.913149 -33.33034,-1.420906 -10.44696,2.590537 -26.8874,13.942805 -34.448283,25.758748 -0.82119,1.283333 -1.53898,2.390373 -1.595094,2.46009 -0.05611,0.06972 -2.76998,-0.227633 -6.03082,-0.66078 -11.751993,-1.56105 -12.82922,-0.785193 -16.812833,12.10923 -4.281437,13.858426 -7.735593,16.697136 -26.615963,21.873646 -12.1366,3.32754 -13.745077,4.498843 -17.006812,12.38448 -3.044424,7.360253 -3.072686,12.164903 -0.109481,18.611663 l 1.174386,2.555 0.605351,-2.33333 c 1.559821,-6.01235 3.912095,-9.66354 7.075849,-10.98311 1.798258,-0.75003 1.866931,-0.69634 1.497745,1.17083 -0.742858,3.75703 0.718501,6.43003 4.429628,8.10231 3.500784,1.5775 3.869394,1.38754 2.826647,-1.4567 -1.11793,-3.0493 -0.608576,-7.29953 1.16822,-9.74803 l 0.905657,-1.24803 0.618446,1.37147 c 1.40561,3.11708 4.53513,5.30695 7.951704,5.56417 l 1.970676,0.14836 -0.760563,-1.06811 c -2.13242,-2.99471 -2.183573,-7.11238 -0.11894,-9.574387 L 45.5,97.057547 49,97.858397 c 6.45834,1.477763 6.8617,1.292236 12.319173,-5.666304 4.748097,-6.054043 14.907394,-8.884803 22.154877,-6.173173 1.022607,0.382603 1.859427,0.72237 1.8596,0.75503 1.77e-4,0.03267 -2.468063,0.0091 -5.484973,-0.05237 l -5.48529,-0.11176 -1.19821,0.91392 c -4.23201,3.22791 -4.08978,9.193706 0.444246,18.63406 l 2.557244,5.32448 -0.09216,4.17552 c -0.251106,11.3767 -1.140956,20.21462 -2.25155,22.36227 -0.849416,1.64259 -2.447466,2.21161 -7.36644,2.62297 -6.626033,0.55411 -6.96963,2.14253 -1.634413,7.55577 3.420707,3.47073 12.47652,6.26468 14.982727,4.62255 1.427676,-0.93545 4.22625,-7.20129 16.296996,-36.48803 L 102.21549,101.5 l 2.36133,0.11598 c 10.99516,0.54002 19.25469,-10.163723 19.25604,-24.954413 0.45059,-3.29025 -0.15343,-5.489407 -1.53007,-8.333334 -0.84171,-1.738863 -2.53554,-4.64274 -3.76406,-6.45306 -2.7141,-3.99946 -2.75732,-3.94154 1.12982,-1.513993 8.0651,5.03671 12.9085,10.53496 15.21306,17.269937 l 1.09572,3.202216 2.76127,0.69105 c 10.37143,2.595624 13.09645,4.21385 16.76438,9.955384 13.23537,20.717743 9.50732,50.995343 -8.39844,68.208373 -14.98638,14.40661 -40.801,22.38835 -62.9174,19.45371 z M 26.333333,91.871347 c 4.32251,-1.893904 4.537456,-1.89726 4.193817,-0.0655 l -0.206999,1.103397 -2.576742,0.218913 c -1.417208,0.1204 -3.251742,0.29764 -4.076742,0.393864 -1.283834,0.149736 -0.899538,-0.08814 2.666666,-1.65067 z m 35.536607,-20.2709 c 0.145073,-0.23858 0.916537,-1.323447 1.714363,-2.410817 2.1387,-2.91487 3.663847,-5.794157 5.417117,-10.226827 l 1.56335,-3.952503 0.217613,4.047183 C 70.902073,61.283437 71,64.250653 71,65.651303 v 2.546637 l -3.583333,1.462253 c -1.970834,0.80424 -4.084444,1.667404 -4.696914,1.918144 -0.890043,0.364373 -1.060633,0.36881 -0.849813,0.0221 z M 171.66667,47.37907 c 0,-0.130603 0.47746,-0.969984 1.40283,-1.792553 l 1.56115,-1.58816 c 0.93581,0.970357 1.76355,2.005951 2.44392,3.16831 0.11665,0.208663 -0.85981,0.355126 -2.61078,0.391603 -1.53842,0.03205 -2.79712,-0.04859 -2.79712,-0.1792 z"
       id="path211"
       sodipodi:nodetypes="cssssscscsssssssssssscssssssssssssssscssssssscccssssccssssssscsssssscsscsscssssscsscsssssscsccssscsssccsscssssssscsscssssssccss" />
  </g>
</svg>
