<?xml version="1.0" encoding="UTF-8" standalone="no"?>
<!-- Created with Inkscape (http://www.inkscape.org/) -->

<svg
   xmlns:dc="http://purl.org/dc/elements/1.1/"
   xmlns:cc="http://creativecommons.org/ns#"
   xmlns:rdf="http://www.w3.org/1999/02/22-rdf-syntax-ns#"
   xmlns:svg="http://www.w3.org/2000/svg"
   xmlns="http://www.w3.org/2000/svg"
   xmlns:xlink="http://www.w3.org/1999/xlink"
   xmlns:sodipodi="http://sodipodi.sourceforge.net/DTD/sodipodi-0.dtd"
   xmlns:inkscape="http://www.inkscape.org/namespaces/inkscape"
   width="544.16998"
   height="544.8642"
   id="svg2"
   version="1.1"
   inkscape:version="0.48.5 r10040"
   sodipodi:docname="gvim.svg">
  <defs
     id="defs4">
    <linearGradient
       id="linearGradient3847">
      <stop
         style="stop-color:#343434;stop-opacity:1;"
         offset="0"
         id="stop3849" />
      <stop
         style="stop-color:#343434;stop-opacity:0;"
         offset="1"
         id="stop3851" />
    </linearGradient>
    <linearGradient
       id="linearGradient4097">
      <stop
         id="stop4099"
         offset="0"
         style="stop-color:#000000;stop-opacity:1;" />
      <stop
         style="stop-color:#000000;stop-opacity:0.49803922;"
         offset="0.5"
         id="stop4103" />
      <stop
         id="stop4101"
         offset="1"
         style="stop-color:#b7b7b7;stop-opacity:0;" />
    </linearGradient>
    <linearGradient
       id="linearGradient4089">
      <stop
         style="stop-color:#000000;stop-opacity:1;"
         offset="0"
         id="stop4091" />
      <stop
         style="stop-color:#000000;stop-opacity:0;"
         offset="1"
         id="stop4093" />
    </linearGradient>
    <linearGradient
       id="linearGradient4001">
      <stop
         id="stop4003"
         offset="0"
         style="stop-color:#101010;stop-opacity:1;" />
      <stop
         id="stop4005"
         offset="1"
         style="stop-color:#202020;stop-opacity:1;" />
    </linearGradient>
    <linearGradient
       id="linearGradient3951">
      <stop
         id="stop3953"
         offset="0"
         style="stop-color:#909090;stop-opacity:0.65625;" />
      <stop
         style="stop-color:#a6a6a6;stop-opacity:0.296875;"
         offset="0.30000004"
         id="stop3955" />
      <stop
         id="stop3957"
         offset="1"
         style="stop-color:#dbe2e5;stop-opacity:1;" />
    </linearGradient>
    <linearGradient
       id="linearGradient3933">
      <stop
         style="stop-color:#909090;stop-opacity:0.65625;"
         offset="0"
         id="stop3935" />
      <stop
         id="stop3941"
         offset="0.30000004"
         style="stop-color:#a6a6a6;stop-opacity:0.296875;" />
      <stop
         style="stop-color:#dbe2e5;stop-opacity:1;"
         offset="1"
         id="stop3937" />
    </linearGradient>
    <linearGradient
       id="linearGradient3889">
      <stop
         style="stop-color:#000000;stop-opacity:1;"
         offset="0"
         id="stop3891" />
      <stop
         style="stop-color:#000000;stop-opacity:0;"
         offset="1"
         id="stop3893" />
    </linearGradient>
    <linearGradient
       id="linearGradient3857">
      <stop
         id="stop3859"
         offset="0"
         style="stop-color:#002b0f;stop-opacity:1;" />
      <stop
         style="stop-color:#01a639;stop-opacity:0.74901962;"
         offset="0.57126349"
         id="stop3861" />
      <stop
         style="stop-color:#06fd58;stop-opacity:0.49803922;"
         offset="0.81710202"
         id="stop3863" />
      <stop
         id="stop3865"
         offset="1"
         style="stop-color:#8cfeb2;stop-opacity:0.4296875;" />
    </linearGradient>
    <linearGradient
       id="linearGradient3829">
      <stop
         style="stop-color:#00581f;stop-opacity:1;"
         offset="0"
         id="stop3831" />
      <stop
         id="stop3847"
         offset="0.57137501"
         style="stop-color:#01a639;stop-opacity:0.74901962;" />
      <stop
         id="stop3845"
         offset="0.81625003"
         style="stop-color:#06fd58;stop-opacity:0.49803922;" />
      <stop
         style="stop-color:#8cfeb2;stop-opacity:0.4296875;"
         offset="1"
         id="stop3833" />
    </linearGradient>
    <inkscape:perspective
       sodipodi:type="inkscape:persp3d"
       inkscape:vp_x="0 : 526.18109 : 1"
       inkscape:vp_y="0 : 1000 : 0"
       inkscape:vp_z="744.09448 : 526.18109 : 1"
       inkscape:persp3d-origin="372.04724 : 350.78739 : 1"
       id="perspective10" />
    <inkscape:perspective
       id="perspective2824"
       inkscape:persp3d-origin="0.5 : 0.33333333 : 1"
       inkscape:vp_z="1 : 0.5 : 1"
       inkscape:vp_y="0 : 1000 : 0"
       inkscape:vp_x="0 : 0.5 : 1"
       sodipodi:type="inkscape:persp3d" />
    <linearGradient
       inkscape:collect="always"
       xlink:href="#linearGradient3829"
       id="linearGradient3843"
       x1="261.03824"
       y1="484.41049"
       x2="261.03824"
       y2="176.95605"
       gradientUnits="userSpaceOnUse" />
    <linearGradient
       inkscape:collect="always"
       xlink:href="#linearGradient3857"
       id="linearGradient3855"
       x1="252.07973"
       y1="483.62787"
       x2="252.07973"
       y2="177.26991"
       gradientUnits="userSpaceOnUse" />
    <linearGradient
       inkscape:collect="always"
       xlink:href="#linearGradient3889"
       id="linearGradient3895"
       x1="267.96188"
       y1="469.42633"
       x2="267.96188"
       y2="184.49707"
       gradientUnits="userSpaceOnUse" />
    <linearGradient
       inkscape:collect="always"
       xlink:href="#linearGradient3951"
       id="linearGradient3939"
       x1="770.24347"
       y1="693.16974"
       x2="770.24347"
       y2="369.2048"
       gradientUnits="userSpaceOnUse" />
    <linearGradient
       inkscape:collect="always"
       xlink:href="#linearGradient3951"
       id="linearGradient3965"
       x1="796.29816"
       y1="700.69891"
       x2="796.29816"
       y2="369.8735"
       gradientUnits="userSpaceOnUse" />
    <linearGradient
       inkscape:collect="always"
       xlink:href="#linearGradient3933"
       id="linearGradient3979"
       x1="427.45978"
       y1="691.02136"
       x2="427.45978"
       y2="609.29608"
       gradientUnits="userSpaceOnUse" />
    <linearGradient
       inkscape:collect="always"
       xlink:href="#linearGradient3933"
       id="linearGradient3987"
       x1="448.66177"
       y1="690.9389"
       x2="448.66177"
       y2="608.74731"
       gradientUnits="userSpaceOnUse" />
    <linearGradient
       inkscape:collect="always"
       xlink:href="#linearGradient3933"
       id="linearGradient3989"
       gradientUnits="userSpaceOnUse"
       x1="448.66177"
       y1="722.99939"
       x2="448.66177"
       y2="608.74731" />
    <linearGradient
       inkscape:collect="always"
       xlink:href="#linearGradient3933"
       id="linearGradient3991"
       gradientUnits="userSpaceOnUse"
       x1="427.45978"
       y1="723.05859"
       x2="427.45978"
       y2="609.29608" />
    <linearGradient
       inkscape:collect="always"
       xlink:href="#linearGradient3889"
       id="linearGradient4043"
       gradientUnits="userSpaceOnUse"
       x1="267.96188"
       y1="469.42633"
       x2="267.96188"
       y2="184.49707" />
    <linearGradient
       inkscape:collect="always"
       xlink:href="#linearGradient3889"
       id="linearGradient4045"
       gradientUnits="userSpaceOnUse"
       x1="267.96188"
       y1="469.42633"
       x2="267.96188"
       y2="184.49707" />
    <linearGradient
       inkscape:collect="always"
       xlink:href="#linearGradient3889"
       id="linearGradient4047"
       gradientUnits="userSpaceOnUse"
       x1="267.96188"
       y1="469.42633"
       x2="267.96188"
       y2="184.49707" />
    <linearGradient
       inkscape:collect="always"
       xlink:href="#linearGradient3889"
       id="linearGradient4049"
       gradientUnits="userSpaceOnUse"
       x1="267.96188"
       y1="469.42633"
       x2="267.96188"
       y2="184.49707" />
    <linearGradient
       inkscape:collect="always"
       xlink:href="#linearGradient3889"
       id="linearGradient4051"
       gradientUnits="userSpaceOnUse"
       x1="267.96188"
       y1="469.42633"
       x2="267.96188"
       y2="184.49707" />
    <linearGradient
       inkscape:collect="always"
       xlink:href="#linearGradient3889"
       id="linearGradient4053"
       gradientUnits="userSpaceOnUse"
       x1="267.96188"
       y1="469.42633"
       x2="267.96188"
       y2="184.49707" />
    <linearGradient
       inkscape:collect="always"
       xlink:href="#linearGradient4097"
       id="linearGradient4095"
       x1="256.70236"
       y1="529.58826"
       x2="256.70236"
       y2="136.19252"
       gradientUnits="userSpaceOnUse" />
    <linearGradient
       inkscape:collect="always"
       xlink:href="#linearGradient4097"
       id="linearGradient4111"
       x1="273.28625"
       y1="529.69873"
       x2="273.28625"
       y2="136.1866"
       gradientUnits="userSpaceOnUse" />
  </defs>
  <sodipodi:namedview
     id="base"
     pagecolor="#ffffff"
     bordercolor="#666666"
     borderopacity="1.0"
     inkscape:pageopacity="0.0"
     inkscape:pageshadow="2"
     inkscape:zoom="0.98994949"
     inkscape:cx="413.12732"
     inkscape:cy="316.57673"
     inkscape:document-units="px"
     inkscape:current-layer="g3699"
     showgrid="false"
     inkscape:window-width="1920"
     inkscape:window-height="1053"
     inkscape:window-x="0"
     inkscape:window-y="27"
     inkscape:window-maximized="1"
     inkscape:snap-global="true"
     fit-margin-top="10"
     fit-margin-left="10"
     fit-margin-right="10"
     fit-margin-bottom="10">
    <inkscape:grid
       type="xygrid"
       id="grid4188" />
  </sodipodi:namedview>
  <metadata
     id="metadata7">
    <rdf:RDF>
      <cc:Work
         rdf:about="">
        <dc:format>image/svg+xml</dc:format>
        <dc:type
           rdf:resource="http://purl.org/dc/dcmitype/StillImage" />
      </cc:Work>
    </rdf:RDF>
  </metadata>
  <g
     inkscape:label="Layer 1"
     inkscape:groupmode="layer"
     id="layer1"
     transform="translate(-69.980994,-160.33288)">
    <g
       id="g3699"
       transform="matrix(1.532388,0,0,1.3939671,-54.912136,-41.792396)">
      <path
         id="path2836"
         d="M 260.50744,170.69515 105.98412,340.79094 259.8636,510.178 414.38691,340.08221 260.50744,170.69515 z"
         style="fill:#019833;fill-opacity:1;stroke:#019833;stroke-width:0.94571567000000001px;stroke-linecap:butt;stroke-linejoin:miter;stroke-opacity:1"
         inkscape:connector-curvature="0" />
      <path
         inkscape:connector-curvature="0"
         style="fill:url(#linearGradient3843);fill-opacity:1;stroke:url(#linearGradient3855);stroke-width:0.94571567px;stroke-linecap:butt;stroke-linejoin:miter;stroke-opacity:1"
         d="M 260.50744,170.69515 105.98412,340.79094 259.16441,511.45903 414.38691,340.08221 z"
         id="path3827"
         sodipodi:nodetypes="ccccc" />
      <g
         id="g4073">
        <path
           inkscape:connector-curvature="0"
           style="fill:#66fe98;fill-opacity:1;stroke:#66fe98;stroke-width:0.94571567px;stroke-linecap:butt;stroke-linejoin:miter;stroke-opacity:1"
           d="m 259.8636,171.40389 -0.3296,-14.33988 -167.549708,183.89216 13.999828,0.5435 z"
           id="path2838"
           sodipodi:nodetypes="ccccc" />
        <path
           inkscape:connector-curvature="0"
           id="path2842"
           d="m 260.0284,511.53255 -0.1648,13.81096 -167.879308,-183.90674 14.164628,0 z"
           style="fill:#017d17;fill-opacity:1;stroke:#017d17;stroke-width:0.94571567px;stroke-linecap:butt;stroke-linejoin:miter;stroke-opacity:1"
           sodipodi:nodetypes="ccccc" />
        <path
           sodipodi:nodetypes="ccccc"
           inkscape:connector-curvature="0"
           style="fill:#005d04;fill-opacity:1;stroke:#005d04;stroke-width:0.94571567px;stroke-linecap:butt;stroke-linejoin:miter;stroke-opacity:1"
           d="m 259.97169,510.80789 0.1648,13.99212 167.3849,-184.23798 -14.16463,0 z"
           id="path2844" />
        <path
           sodipodi:nodetypes="ccccc"
           inkscape:connector-curvature="0"
           id="path2840"
           d="m 259.80689,171.40389 0.1648,-14.33988 167.5497,182.48849 -14.16463,0 z"
           style="fill:#45fe02;fill-opacity:1;stroke:#45fe02;stroke-width:0.94571567px;stroke-linecap:butt;stroke-linejoin:miter;stroke-opacity:1" />
      </g>
      <g
         id="g4079"
         style="fill-opacity:1;fill:url(#linearGradient4095);opacity:0.52083332999999998;stroke:url(#linearGradient4111);stroke-opacity:1">
        <path
           id="path4081"
           d="m 259.534,171.40389 0,-14.88338 -168.237184,184.64792 15.647834,0 z"
           style="fill:url(#linearGradient4095);fill-opacity:1;stroke:none"
           inkscape:connector-curvature="0"
           sodipodi:nodetypes="ccccc" />
        <path
           style="fill:url(#linearGradient4095);fill-opacity:1;stroke:none"
           d="m 259.6988,510.26441 0,15.60804 -168.373709,-184.79801 15.318229,0 z"
           id="path4083"
           inkscape:connector-curvature="0"
           sodipodi:nodetypes="ccccc" />
        <path
           id="path4085"
           d="m 259.64209,510.46013 0,15.23114 168.8681,-185.67274 -15.15343,0 z"
           style="fill:url(#linearGradient4095);fill-opacity:1;stroke:none"
           inkscape:connector-curvature="0"
           sodipodi:nodetypes="ccccc" />
        <path
           style="fill:url(#linearGradient4095);fill-opacity:1;stroke:none"
           d="m 259.47729,171.94739 0,-15.42688 169.1977,183.75665 -15.31823,0 z"
           id="path4087"
           inkscape:connector-curvature="0"
           sodipodi:nodetypes="ccccc" />
      </g>
      <path
         id="path3650"
         d="m 122.90125,177.91973 111.15072,0 2.82577,3.2186 0,23.73591 -6.07462,5.32512 -11.83698,0.25621 0,115.46825 105.56935,-115.46825 -17.68397,0 -4.14722,-5.32512 0,-22.63169 4.15808,-4.5903 109.71976,0.25621 3.08598,3.65669 0,22.05058 -248.35449,280.14258 -26.92151,0 -6.86518,-8.06203 0,-265.06446 -13.68257,0 -5.00795,-5.51264 10e-6,-22.78542 z"
         style="fill:none;stroke:#333333;stroke-width:10.94735873;stroke-linecap:butt;stroke-linejoin:miter;stroke-miterlimit:4;stroke-opacity:1;stroke-dasharray:none;opacity:1"
         inkscape:connector-curvature="0"
         sodipodi:nodetypes="ccccccccccccccccccccccc" />
      <path
         id="path3646"
         d="m 143.48158,204.87424 0,270.62073 3.18688,4.0092 -2.49916,5.24301 -7.06148,-7.74876 0,-265.1081 z"
         style="fill:#fefefe;fill-opacity:1;stroke:#fefefe;stroke-width:0.94571567px;stroke-linecap:butt;stroke-linejoin:miter;stroke-opacity:1"
         inkscape:connector-curvature="0"
         sodipodi:nodetypes="ccccccc" />
      <path
         sodipodi:nodetypes="ccccccccccc"
         id="path3642"
         d="m 232.25896,185.83056 5.8948,-5.20794 0,24.25162 -6.69151,6.64023 -11.72317,0 0,112.38277 -10.69882,27.81381 0,-146.83681 19.57656,0 3.64214,-3.25747 z"
         style="fill:#808080;fill-opacity:1;stroke:#808080;stroke-width:0.94571567px;stroke-linecap:butt;stroke-linejoin:miter;stroke-opacity:1"
         inkscape:connector-curvature="0" />
      <path
         sodipodi:nodetypes="ccccc"
         id="path3652"
         d="m 326.65036,205.79359 -6.23623,5.84616 -14.08746,0.36233 4.23852,-6.75199 c 0.11382,0 16.08517,0.5435 16.08517,0.5435 z"
         style="fill:#808080;fill-opacity:1;stroke:#808080;stroke-width:0.94571567px;stroke-linecap:butt;stroke-linejoin:miter;stroke-opacity:1"
         inkscape:connector-curvature="0" />
      <path
         id="path3636"
         d="m 415.46921,185.9329 5.61502,-4.0069 -0.23306,22.43394 -249.39111,280.5213 -26.47746,0 2.52966,-5.5331 20.28119,0 247.23731,-281.01241 z"
         style="fill:#808080;fill-opacity:1;stroke:#808080;stroke-width:0.94571567px;stroke-linecap:butt;stroke-linejoin:miter;stroke-opacity:1"
         inkscape:connector-curvature="0"
         sodipodi:nodetypes="ccccccccc" />
      <path
         sodipodi:nodetypes="cccccccccccccccccc"
         id="path3638"
         d="m 305.88121,212.19144 4.20246,-6.55577 -4.18501,-4.2524 0,-14.52901 4.82886,-5.31551 100.76208,0 4.09614,3.49212 5.23964,-4.14992 -3.65262,-4.12614 -110.30833,0 -5.39221,5.93564 0,23.29957 4.45307,5.80276 m -86.40274,111.87785 -10.52288,28.10566 118.7898,-131.1155 0,-15.59211 z"
         style="fill:#fefefe;fill-opacity:1;stroke:#fefefe;stroke-width:0.9455781;stroke-linecap:butt;stroke-linejoin:miter;stroke-miterlimit:4;stroke-opacity:1;stroke-dasharray:none"
         inkscape:connector-curvature="0" />
      <path
         id="path3640"
         d="m 232.82968,185.19231 5.78695,-4.99299 -4.13511,-4.01149 -111.43545,0 -5.55319,6.11281 0,23.1224 6.15679,6.77725 2.93756,-6.77725 -3.86308,-4.2524 0,-16.30085 2.89731,-2.83492 104.30324,0 z"
         style="fill:#fefefe;fill-opacity:1;stroke:none"
         inkscape:connector-curvature="0"
         sodipodi:nodetypes="ccccccccccccc" />
      <path
         id="path3644"
         d="m 125.82451,204.87424 -1.82108,6.51494 13.2028,0 7.2843,-6.51494 -18.66602,0 z"
         style="fill:#808080;fill-opacity:1;stroke:#808080;stroke-width:0.94571567px;stroke-linecap:butt;stroke-linejoin:miter;stroke-opacity:1"
         inkscape:connector-curvature="0" />
      <g
         id="g3875"
         style="opacity:0.16000001;fill:url(#linearGradient3895);fill-opacity:1;stroke:none"
         transform="translate(-0.20971882,0.45466456)">
        <path
           id="path3877"
           d="m 143.48158,204.87424 0,270.62073 3.18688,4.0092 -2.49916,5.24301 -7.06148,-7.74876 0,-265.1081 z"
           style="fill:url(#linearGradient4043);fill-opacity:1;stroke:none"
           inkscape:connector-curvature="0"
           sodipodi:nodetypes="ccccccc" />
        <path
           id="path3879"
           d="m 232.50008,186.64163 6.11655,-3.54366 -6.27751,-6.91014 -109.29305,0 -5.55319,6.11281 0,23.1224 6.15679,6.77725 2.93756,-6.77725 -3.86308,-4.2524 0,-16.30085 2.89731,-2.83492 104.30324,0 2.57538,4.60676 z"
           style="fill:url(#linearGradient4045);fill-opacity:1;stroke:none"
           inkscape:connector-curvature="0" />
        <path
           id="path3881"
           d="m 125.82451,204.87424 -1.82108,6.51494 13.2028,0 7.2843,-6.51494 -18.66602,0 z"
           style="fill:url(#linearGradient4047);fill-opacity:1;stroke:none"
           inkscape:connector-curvature="0" />
        <path
           sodipodi:nodetypes="cccccccccccccccccc"
           id="path3883"
           d="m 307.18636,212.19144 2.89731,-6.55577 -4.18501,-4.2524 0,-14.52901 4.82886,-5.31551 100.76208,0 3.86308,5.66987 5.4727,-4.2524 -5.63366,-6.20141 -108.32729,0 -5.39221,5.93564 0,23.29957 5.59342,5.80276 m -87.54309,111.87785 -10.52288,28.10566 118.7898,-131.1155 0,-15.59211 -108.26692,118.60195 z"
           style="fill:url(#linearGradient4049);fill-opacity:1;stroke:none"
           inkscape:connector-curvature="0" />
        <path
           sodipodi:nodetypes="ccccccccccc"
           id="path3885"
           d="m 232.25896,185.83056 5.2356,-3.75862 0,22.8023 -6.03231,6.64023 -11.72317,0 0,112.38277 -10.69882,27.81381 0,-146.83681 19.57656,0 3.64214,-3.25747 z"
           style="fill:url(#linearGradient4051);fill-opacity:1;stroke:none"
           inkscape:connector-curvature="0" />
        <path
           id="path3887"
           d="m 415.35268,185.9329 5.49849,-3.49448 0,21.92152 -249.39111,280.5213 -26.47746,0 2.52966,-5.5331 20.28119,0 247.23731,-281.01241 z"
           style="fill:url(#linearGradient4053);fill-opacity:1;stroke:none"
           inkscape:connector-curvature="0"
           sodipodi:nodetypes="ccccccccc" />
      </g>
      <g
         transform="matrix(0.90138601,0,0,0.99222542,-92.530288,-192.23791)"
         id="g3673"
         style="stroke:none;stroke-width:0.79583213;stroke-miterlimit:10;stroke-dasharray:none">
        <path
           sodipodi:type="inkscape:offset"
           inkscape:radius="1.2328869"
           inkscape:original="M 400.03125 561.21875 L 394.71875 565.78125 L 389.40625 580.65625 L 393.46875 584.71875 L 409.875 584.71875 L 414.15625 580.40625 L 418.71875 564.75 L 415.1875 561.21875 L 400.03125 561.21875 z M 369.96875 603.15625 L 367.9375 611.21875 L 379.3125 611.21875 L 354.8125 681.1875 L 389.65625 681.1875 L 391.9375 673.84375 L 382.34375 673.84375 L 406.59375 603.15625 L 369.96875 603.15625 z M 480.84375 603.40625 L 473.25 612 L 460.625 612 L 452.5625 603.65625 L 425.03125 603.65625 L 422.5 611.21875 L 431.59375 611.21875 L 408.09375 680.4375 L 437.40625 680.4375 L 439.65625 673.84375 L 432.84375 673.84375 L 448.25 625.375 L 477.3125 625.375 L 460.125 680.4375 L 488.40625 680.4375 L 490.9375 674.375 L 484.125 674.375 L 499.78125 625.125 L 527.5625 625.125 L 510.125 680.4375 L 541.1875 680.4375 L 543.71875 673.84375 L 535.875 673.84375 L 555.09375 611.46875 L 549.28125 603.65625 L 527.0625 603.65625 L 519.71875 611.71875 L 506.34375 611.71875 L 498.75 603.40625 L 480.84375 603.40625 z "
           style="fill:#cccccc;fill-opacity:1;stroke:none;stroke-width:0.79583213;stroke-linecap:butt;stroke-linejoin:miter;stroke-miterlimit:10;stroke-opacity:1;stroke-dasharray:none"
           id="path3671"
           d="m 399.78125,560 a 1.2330102,1.2330102 0 0 0 -0.5625,0.28125 l -5.3125,4.5625 A 1.2330102,1.2330102 0 0 0 393.5625,565.375 L 388.25,580.25 a 1.2330102,1.2330102 0 0 0 0.28125,1.28125 l 4.0625,4.0625 a 1.2330102,1.2330102 0 0 0 0.875,0.34375 l 16.40625,0 a 1.2330102,1.2330102 0 0 0 0.875,-0.34375 l 4.28125,-4.3125 a 1.2330102,1.2330102 0 0 0 0.3125,-0.53125 l 4.5625,-15.65625 a 1.2330102,1.2330102 0 0 0 -0.3125,-1.21875 l -3.53125,-3.53125 A 1.2330102,1.2330102 0 0 0 415.1875,560 l -15.15625,0 a 1.2330102,1.2330102 0 0 0 -0.25,0 z m -30.0625,41.9375 a 1.2330102,1.2330102 0 0 0 -0.9375,0.90625 l -2.03125,8.0625 a 1.2330102,1.2330102 0 0 0 1.1875,1.53125 l 9.65625,0 -23.9375,68.34375 a 1.2330102,1.2330102 0 0 0 1.15625,1.625 l 34.84375,0 a 1.2330102,1.2330102 0 0 0 1.1875,-0.84375 l 2.28125,-7.34375 a 1.2330102,1.2330102 0 0 0 -1.1875,-1.59375 l -7.875,0 23.6875,-69.0625 a 1.2330102,1.2330102 0 0 0 -1.15625,-1.625 l -36.625,0 a 1.2330102,1.2330102 0 0 0 -0.25,0 z m 110.875,0.25 a 1.2330102,1.2330102 0 0 0 -0.6875,0.40625 l -7.25,8.1875 -11.53125,0 -7.6875,-7.96875 a 1.2330102,1.2330102 0 0 0 -0.875,-0.375 l -27.53125,0 A 1.2330102,1.2330102 0 0 0 423.875,603.25 l -2.53125,7.5625 a 1.2330102,1.2330102 0 0 0 1.15625,1.625 l 7.375,0 -22.9375,67.59375 a 1.2330102,1.2330102 0 0 0 1.15625,1.625 l 29.3125,0 a 1.2330102,1.2330102 0 0 0 1.15625,-0.8125 l 2.25,-6.59375 a 1.2330102,1.2330102 0 0 0 -1.15625,-1.625 l -5.125,0 14.625,-46.03125 26.46875,0 -16.6875,53.46875 a 1.2330102,1.2330102 0 0 0 1.1875,1.59375 l 28.28125,0 a 1.2330102,1.2330102 0 0 0 1.125,-0.75 l 2.53125,-6.0625 a 1.2330102,1.2330102 0 0 0 -1.125,-1.6875 l -5.125,0 14.875,-46.8125 25.1875,0 -16.9375,53.71875 a 1.2330102,1.2330102 0 0 0 1.1875,1.59375 l 31.0625,0 a 1.2330102,1.2330102 0 0 0 1.15625,-0.78125 l 2.53125,-6.59375 a 1.2330102,1.2330102 0 0 0 -1.15625,-1.65625 l -6.15625,0 18.71875,-60.78125 a 1.2330102,1.2330102 0 0 0 -0.1875,-1.125 l -5.8125,-7.8125 a 1.2330102,1.2330102 0 0 0 -1,-0.46875 l -22.21875,0 a 1.2330102,1.2330102 0 0 0 -0.90625,0.375 l -7,7.6875 -12.25,0 -7.25,-7.9375 a 1.2330102,1.2330102 0 0 0 -0.90625,-0.375 l -17.90625,0 a 1.2330102,1.2330102 0 0 0 -0.25,0 z" />
        <path
           d="m 400.03125,561.21875 -5.3125,4.5625 -5.3125,14.875 4.0625,4.0625 16.40625,0 4.28125,-4.3125 4.5625,-15.65625 -3.53125,-3.53125 -15.15625,0 z m -30.0625,41.9375 -2.03125,8.0625 11.375,0 -24.5,69.96875 34.84375,0 2.28125,-7.34375 -9.59375,0 24.25,-70.6875 -36.625,0 z m 110.875,0.25 L 473.25,612 l -12.625,0 -8.0625,-8.34375 -27.53125,0 -2.53125,7.5625 9.09375,0 -23.5,69.21875 29.3125,0 2.25,-6.59375 -6.8125,0 15.40625,-48.46875 29.0625,0 -17.1875,55.0625 28.28125,0 2.53125,-6.0625 -6.8125,0 15.65625,-49.25 27.78125,0 -17.4375,55.3125 31.0625,0 2.53125,-6.59375 -7.84375,0 19.21875,-62.375 -5.8125,-7.8125 -22.21875,0 -7.34375,8.0625 -13.375,0 -7.59375,-8.3125 -17.90625,0 z"
           id="path3665"
           style="fill:#cccccc;fill-opacity:1;stroke:none;stroke-width:0.79583213;stroke-linecap:butt;stroke-linejoin:miter;stroke-miterlimit:10;stroke-opacity:1;stroke-dasharray:none"
           inkscape:original="M 400.03125 561.21875 L 394.71875 565.78125 L 389.40625 580.65625 L 393.46875 584.71875 L 409.875 584.71875 L 414.15625 580.40625 L 418.71875 564.75 L 415.1875 561.21875 L 400.03125 561.21875 z M 369.96875 603.15625 L 367.9375 611.21875 L 379.3125 611.21875 L 354.8125 681.1875 L 389.65625 681.1875 L 391.9375 673.84375 L 382.34375 673.84375 L 406.59375 603.15625 L 369.96875 603.15625 z M 480.84375 603.40625 L 473.25 612 L 460.625 612 L 452.5625 603.65625 L 425.03125 603.65625 L 422.5 611.21875 L 431.59375 611.21875 L 408.09375 680.4375 L 437.40625 680.4375 L 439.65625 673.84375 L 432.84375 673.84375 L 448.25 625.375 L 477.3125 625.375 L 460.125 680.4375 L 488.40625 680.4375 L 490.9375 674.375 L 484.125 674.375 L 499.78125 625.125 L 527.5625 625.125 L 510.125 680.4375 L 541.1875 680.4375 L 543.71875 673.84375 L 535.875 673.84375 L 555.09375 611.46875 L 549.28125 603.65625 L 527.0625 603.65625 L 519.71875 611.71875 L 506.34375 611.71875 L 498.75 603.40625 L 480.84375 603.40625 z "
           inkscape:radius="0"
           sodipodi:type="inkscape:offset" />
      </g>
      <path
         transform="matrix(0.90138601,0,0,0.99222542,-437.42287,-185.30615)"
         d="m 828.9375,369.5 -4.28125,4.28125 0,15.71875 3.75,3.75 19.8125,0 0,15.1875 -131.0625,132.84375 0,-147.84375 21.78125,0 4.46875,-4.46875 0,-15.90625 -4.125,-3.1875 -114.625,0 -3.75,3.75 0,16.25 3.8125,3.8125 19.9375,0 0,272.25 3.75,3.75 22.65625,0 274.65625,-283.40625 0,-12.5 -4.28125,-4.28125 -112.5,0 z"
         inkscape:href="#path3620"
         id="path3622"
         style="fill:#cccccc;fill-opacity:1;stroke:#cccccc;stroke-width:1px;stroke-linecap:butt;stroke-linejoin:miter;stroke-opacity:1"
         xlink:href="#path3620"
         inkscape:original="M 828.9375 369.5 L 824.65625 373.78125 L 824.65625 389.5 L 828.40625 393.25 L 848.21875 393.25 L 848.21875 408.4375 L 717.15625 541.28125 L 717.15625 393.4375 L 738.9375 393.4375 L 743.40625 388.96875 L 743.40625 373.0625 L 739.28125 369.875 L 624.65625 369.875 L 620.90625 373.625 L 620.90625 389.875 L 624.71875 393.6875 L 644.65625 393.6875 L 644.65625 665.9375 L 648.40625 669.6875 L 671.0625 669.6875 L 945.71875 386.28125 L 945.71875 373.78125 L 941.4375 369.5 L 828.9375 369.5 z "
         inkscape:radius="0"
         sodipodi:type="inkscape:offset" />
      <path
         sodipodi:type="inkscape:offset"
         inkscape:radius="0"
         inkscape:original="M 828.9375 369.5 L 824.65625 373.78125 L 824.65625 389.5 L 828.40625 393.25 L 848.21875 393.25 L 848.21875 408.4375 L 717.15625 541.28125 L 717.15625 393.4375 L 738.9375 393.4375 L 743.40625 388.96875 L 743.40625 373.0625 L 739.28125 369.875 L 624.65625 369.875 L 620.90625 373.625 L 620.90625 389.875 L 624.71875 393.6875 L 644.65625 393.6875 L 644.65625 665.9375 L 648.40625 669.6875 L 671.0625 669.6875 L 945.71875 386.28125 L 945.71875 373.78125 L 941.4375 369.5 L 828.9375 369.5 z "
         xlink:href="#path3620"
         style="fill:url(#linearGradient3939);fill-opacity:1;stroke:url(#linearGradient3965);stroke-width:1px;stroke-linecap:butt;stroke-linejoin:miter;stroke-opacity:1"
         id="path3931"
         inkscape:href="#path3620"
         d="m 828.9375,369.5 -4.28125,4.28125 0,15.71875 3.75,3.75 19.8125,0 0,15.1875 -131.0625,132.84375 0,-147.84375 21.78125,0 4.46875,-4.46875 0,-15.90625 -4.125,-3.1875 -114.625,0 -3.75,3.75 0,16.25 3.8125,3.8125 19.9375,0 0,272.25 3.75,3.75 22.65625,0 274.65625,-283.40625 0,-12.5 -4.28125,-4.28125 -112.5,0 z"
         transform="matrix(0.90138601,0,0,0.99222542,-437.42287,-185.30615)" />
      <g
         style="fill:#343434;fill-opacity:1;stroke:#333333;stroke-opacity:1;stroke-width:8.68180509;stroke-miterlimit:4;stroke-dasharray:none;stroke-linejoin:round;stroke-linecap:round"
         transform="matrix(0.90138601,0,0,0.99222542,-92.530288,-192.23791)"
         id="g3803">
        <path
           sodipodi:type="inkscape:offset"
           inkscape:radius="1.2328869"
           inkscape:original="M 400.03125 561.21875 L 394.71875 565.78125 L 389.40625 580.65625 L 393.46875 584.71875 L 409.875 584.71875 L 414.15625 580.40625 L 418.71875 564.75 L 415.1875 561.21875 L 400.03125 561.21875 z M 369.96875 603.15625 L 367.9375 611.21875 L 379.3125 611.21875 L 354.8125 681.1875 L 389.65625 681.1875 L 391.9375 673.84375 L 382.34375 673.84375 L 406.59375 603.15625 L 369.96875 603.15625 z M 480.84375 603.40625 L 473.25 612 L 460.625 612 L 452.5625 603.65625 L 425.03125 603.65625 L 422.5 611.21875 L 431.59375 611.21875 L 408.09375 680.4375 L 437.40625 680.4375 L 439.65625 673.84375 L 432.84375 673.84375 L 448.25 625.375 L 477.3125 625.375 L 460.125 680.4375 L 488.40625 680.4375 L 490.9375 674.375 L 484.125 674.375 L 499.78125 625.125 L 527.5625 625.125 L 510.125 680.4375 L 541.1875 680.4375 L 543.71875 673.84375 L 535.875 673.84375 L 555.09375 611.46875 L 549.28125 603.65625 L 527.0625 603.65625 L 519.71875 611.71875 L 506.34375 611.71875 L 498.75 603.40625 L 480.84375 603.40625 z "
           style="fill:#343434;fill-opacity:1;stroke:#333333;stroke-opacity:1;stroke-width:8.68180509;stroke-miterlimit:4;stroke-dasharray:none;stroke-linejoin:round;stroke-linecap:round"
           id="path3805"
           d="m 399.78125,560 a 1.2330102,1.2330102 0 0 0 -0.5625,0.28125 l -5.3125,4.5625 A 1.2330102,1.2330102 0 0 0 393.5625,565.375 L 388.25,580.25 a 1.2330102,1.2330102 0 0 0 0.28125,1.28125 l 4.0625,4.0625 a 1.2330102,1.2330102 0 0 0 0.875,0.34375 l 16.40625,0 a 1.2330102,1.2330102 0 0 0 0.875,-0.34375 l 4.28125,-4.3125 a 1.2330102,1.2330102 0 0 0 0.3125,-0.53125 l 4.5625,-15.65625 a 1.2330102,1.2330102 0 0 0 -0.3125,-1.21875 l -3.53125,-3.53125 A 1.2330102,1.2330102 0 0 0 415.1875,560 l -15.15625,0 a 1.2330102,1.2330102 0 0 0 -0.25,0 z m -30.0625,41.9375 a 1.2330102,1.2330102 0 0 0 -0.9375,0.90625 l -2.03125,8.0625 a 1.2330102,1.2330102 0 0 0 1.1875,1.53125 l 9.65625,0 -23.9375,68.34375 a 1.2330102,1.2330102 0 0 0 1.15625,1.625 l 34.84375,0 a 1.2330102,1.2330102 0 0 0 1.1875,-0.84375 l 2.28125,-7.34375 a 1.2330102,1.2330102 0 0 0 -1.1875,-1.59375 l -7.875,0 23.6875,-69.0625 a 1.2330102,1.2330102 0 0 0 -1.15625,-1.625 l -36.625,0 a 1.2330102,1.2330102 0 0 0 -0.25,0 z m 110.875,0.25 a 1.2330102,1.2330102 0 0 0 -0.6875,0.40625 l -7.25,8.1875 -11.53125,0 -7.6875,-7.96875 a 1.2330102,1.2330102 0 0 0 -0.875,-0.375 l -27.53125,0 A 1.2330102,1.2330102 0 0 0 423.875,603.25 l -2.53125,7.5625 a 1.2330102,1.2330102 0 0 0 1.15625,1.625 l 7.375,0 -22.9375,67.59375 a 1.2330102,1.2330102 0 0 0 1.15625,1.625 l 29.3125,0 a 1.2330102,1.2330102 0 0 0 1.15625,-0.8125 l 2.25,-6.59375 a 1.2330102,1.2330102 0 0 0 -1.15625,-1.625 l -5.125,0 14.625,-46.03125 26.46875,0 -16.6875,53.46875 a 1.2330102,1.2330102 0 0 0 1.1875,1.59375 l 28.28125,0 a 1.2330102,1.2330102 0 0 0 1.125,-0.75 l 2.53125,-6.0625 a 1.2330102,1.2330102 0 0 0 -1.125,-1.6875 l -5.125,0 14.875,-46.8125 25.1875,0 -16.9375,53.71875 a 1.2330102,1.2330102 0 0 0 1.1875,1.59375 l 31.0625,0 a 1.2330102,1.2330102 0 0 0 1.15625,-0.78125 l 2.53125,-6.59375 a 1.2330102,1.2330102 0 0 0 -1.15625,-1.65625 l -6.15625,0 18.71875,-60.78125 a 1.2330102,1.2330102 0 0 0 -0.1875,-1.125 l -5.8125,-7.8125 a 1.2330102,1.2330102 0 0 0 -1,-0.46875 l -22.21875,0 a 1.2330102,1.2330102 0 0 0 -0.90625,0.375 l -7,7.6875 -12.25,0 -7.25,-7.9375 a 1.2330102,1.2330102 0 0 0 -0.90625,-0.375 l -17.90625,0 a 1.2330102,1.2330102 0 0 0 -0.25,0 z" />
        <path
           d="m 400.03125,561.21875 -5.3125,4.5625 -5.3125,14.875 4.0625,4.0625 16.40625,0 4.28125,-4.3125 4.5625,-15.65625 -3.53125,-3.53125 -15.15625,0 z m -30.0625,41.9375 -2.03125,8.0625 11.375,0 -24.5,69.96875 34.84375,0 2.28125,-7.34375 -9.59375,0 24.25,-70.6875 -36.625,0 z m 110.875,0.25 L 473.25,612 l -12.625,0 -8.0625,-8.34375 -27.53125,0 -2.53125,7.5625 9.09375,0 -23.5,69.21875 29.3125,0 2.25,-6.59375 -6.8125,0 15.40625,-48.46875 29.0625,0 -17.1875,55.0625 28.28125,0 2.53125,-6.0625 -6.8125,0 15.65625,-49.25 27.78125,0 -17.4375,55.3125 31.0625,0 2.53125,-6.59375 -7.84375,0 19.21875,-62.375 -5.8125,-7.8125 -22.21875,0 -7.34375,8.0625 -13.375,0 -7.59375,-8.3125 -17.90625,0 z"
           id="path3807"
           style="fill:#343434;fill-opacity:1;stroke:#333333;stroke-opacity:1;stroke-width:8.68180509;stroke-miterlimit:4;stroke-dasharray:none;stroke-linejoin:round;stroke-linecap:round"
           inkscape:original="M 400.03125 561.21875 L 394.71875 565.78125 L 389.40625 580.65625 L 393.46875 584.71875 L 409.875 584.71875 L 414.15625 580.40625 L 418.71875 564.75 L 415.1875 561.21875 L 400.03125 561.21875 z M 369.96875 603.15625 L 367.9375 611.21875 L 379.3125 611.21875 L 354.8125 681.1875 L 389.65625 681.1875 L 391.9375 673.84375 L 382.34375 673.84375 L 406.59375 603.15625 L 369.96875 603.15625 z M 480.84375 603.40625 L 473.25 612 L 460.625 612 L 452.5625 603.65625 L 425.03125 603.65625 L 422.5 611.21875 L 431.59375 611.21875 L 408.09375 680.4375 L 437.40625 680.4375 L 439.65625 673.84375 L 432.84375 673.84375 L 448.25 625.375 L 477.3125 625.375 L 460.125 680.4375 L 488.40625 680.4375 L 490.9375 674.375 L 484.125 674.375 L 499.78125 625.125 L 527.5625 625.125 L 510.125 680.4375 L 541.1875 680.4375 L 543.71875 673.84375 L 535.875 673.84375 L 555.09375 611.46875 L 549.28125 603.65625 L 527.0625 603.65625 L 519.71875 611.71875 L 506.34375 611.71875 L 498.75 603.40625 L 480.84375 603.40625 z "
           inkscape:radius="0"
           sodipodi:type="inkscape:offset" />
      </g>
      <g
         id="g3795"
         transform="matrix(0.90138601,0,0,0.99222542,-92.530288,-192.23791)"
         style="stroke:none;stroke-width:0.79583213;stroke-miterlimit:10;stroke-dasharray:none">
        <path
           d="m 399.78125,560 a 1.2330102,1.2330102 0 0 0 -0.5625,0.28125 l -5.3125,4.5625 A 1.2330102,1.2330102 0 0 0 393.5625,565.375 L 388.25,580.25 a 1.2330102,1.2330102 0 0 0 0.28125,1.28125 l 4.0625,4.0625 a 1.2330102,1.2330102 0 0 0 0.875,0.34375 l 16.40625,0 a 1.2330102,1.2330102 0 0 0 0.875,-0.34375 l 4.28125,-4.3125 a 1.2330102,1.2330102 0 0 0 0.3125,-0.53125 l 4.5625,-15.65625 a 1.2330102,1.2330102 0 0 0 -0.3125,-1.21875 l -3.53125,-3.53125 A 1.2330102,1.2330102 0 0 0 415.1875,560 l -15.15625,0 a 1.2330102,1.2330102 0 0 0 -0.25,0 z m -30.0625,41.9375 a 1.2330102,1.2330102 0 0 0 -0.9375,0.90625 l -2.03125,8.0625 a 1.2330102,1.2330102 0 0 0 1.1875,1.53125 l 9.65625,0 -23.9375,68.34375 a 1.2330102,1.2330102 0 0 0 1.15625,1.625 l 34.84375,0 a 1.2330102,1.2330102 0 0 0 1.1875,-0.84375 l 2.28125,-7.34375 a 1.2330102,1.2330102 0 0 0 -1.1875,-1.59375 l -7.875,0 23.6875,-69.0625 a 1.2330102,1.2330102 0 0 0 -1.15625,-1.625 l -36.625,0 a 1.2330102,1.2330102 0 0 0 -0.25,0 z m 110.875,0.25 a 1.2330102,1.2330102 0 0 0 -0.6875,0.40625 l -7.25,8.1875 -11.53125,0 -7.6875,-7.96875 a 1.2330102,1.2330102 0 0 0 -0.875,-0.375 l -27.53125,0 A 1.2330102,1.2330102 0 0 0 423.875,603.25 l -2.53125,7.5625 a 1.2330102,1.2330102 0 0 0 1.15625,1.625 l 7.375,0 -22.9375,67.59375 a 1.2330102,1.2330102 0 0 0 1.15625,1.625 l 29.3125,0 a 1.2330102,1.2330102 0 0 0 1.15625,-0.8125 l 2.25,-6.59375 a 1.2330102,1.2330102 0 0 0 -1.15625,-1.625 l -5.125,0 14.625,-46.03125 26.46875,0 -16.6875,53.46875 a 1.2330102,1.2330102 0 0 0 1.1875,1.59375 l 28.28125,0 a 1.2330102,1.2330102 0 0 0 1.125,-0.75 l 2.53125,-6.0625 a 1.2330102,1.2330102 0 0 0 -1.125,-1.6875 l -5.125,0 14.875,-46.8125 25.1875,0 -16.9375,53.71875 a 1.2330102,1.2330102 0 0 0 1.1875,1.59375 l 31.0625,0 a 1.2330102,1.2330102 0 0 0 1.15625,-0.78125 l 2.53125,-6.59375 a 1.2330102,1.2330102 0 0 0 -1.15625,-1.65625 l -6.15625,0 18.71875,-60.78125 a 1.2330102,1.2330102 0 0 0 -0.1875,-1.125 l -5.8125,-7.8125 a 1.2330102,1.2330102 0 0 0 -1,-0.46875 l -22.21875,0 a 1.2330102,1.2330102 0 0 0 -0.90625,0.375 l -7,7.6875 -12.25,0 -7.25,-7.9375 a 1.2330102,1.2330102 0 0 0 -0.90625,-0.375 l -17.90625,0 a 1.2330102,1.2330102 0 0 0 -0.25,0 z"
           id="path3797"
           style="fill:#cccccc;fill-opacity:1;stroke:none;stroke-width:0.79583213;stroke-linecap:butt;stroke-linejoin:miter;stroke-miterlimit:10;stroke-opacity:1;stroke-dasharray:none"
           inkscape:original="M 400.03125 561.21875 L 394.71875 565.78125 L 389.40625 580.65625 L 393.46875 584.71875 L 409.875 584.71875 L 414.15625 580.40625 L 418.71875 564.75 L 415.1875 561.21875 L 400.03125 561.21875 z M 369.96875 603.15625 L 367.9375 611.21875 L 379.3125 611.21875 L 354.8125 681.1875 L 389.65625 681.1875 L 391.9375 673.84375 L 382.34375 673.84375 L 406.59375 603.15625 L 369.96875 603.15625 z M 480.84375 603.40625 L 473.25 612 L 460.625 612 L 452.5625 603.65625 L 425.03125 603.65625 L 422.5 611.21875 L 431.59375 611.21875 L 408.09375 680.4375 L 437.40625 680.4375 L 439.65625 673.84375 L 432.84375 673.84375 L 448.25 625.375 L 477.3125 625.375 L 460.125 680.4375 L 488.40625 680.4375 L 490.9375 674.375 L 484.125 674.375 L 499.78125 625.125 L 527.5625 625.125 L 510.125 680.4375 L 541.1875 680.4375 L 543.71875 673.84375 L 535.875 673.84375 L 555.09375 611.46875 L 549.28125 603.65625 L 527.0625 603.65625 L 519.71875 611.71875 L 506.34375 611.71875 L 498.75 603.40625 L 480.84375 603.40625 z "
           inkscape:radius="1.2328869"
           sodipodi:type="inkscape:offset" />
        <path
           sodipodi:type="inkscape:offset"
           inkscape:radius="0"
           inkscape:original="M 400.03125 561.21875 L 394.71875 565.78125 L 389.40625 580.65625 L 393.46875 584.71875 L 409.875 584.71875 L 414.15625 580.40625 L 418.71875 564.75 L 415.1875 561.21875 L 400.03125 561.21875 z M 369.96875 603.15625 L 367.9375 611.21875 L 379.3125 611.21875 L 354.8125 681.1875 L 389.65625 681.1875 L 391.9375 673.84375 L 382.34375 673.84375 L 406.59375 603.15625 L 369.96875 603.15625 z M 480.84375 603.40625 L 473.25 612 L 460.625 612 L 452.5625 603.65625 L 425.03125 603.65625 L 422.5 611.21875 L 431.59375 611.21875 L 408.09375 680.4375 L 437.40625 680.4375 L 439.65625 673.84375 L 432.84375 673.84375 L 448.25 625.375 L 477.3125 625.375 L 460.125 680.4375 L 488.40625 680.4375 L 490.9375 674.375 L 484.125 674.375 L 499.78125 625.125 L 527.5625 625.125 L 510.125 680.4375 L 541.1875 680.4375 L 543.71875 673.84375 L 535.875 673.84375 L 555.09375 611.46875 L 549.28125 603.65625 L 527.0625 603.65625 L 519.71875 611.71875 L 506.34375 611.71875 L 498.75 603.40625 L 480.84375 603.40625 z "
           style="fill:#cccccc;fill-opacity:1;stroke:none;stroke-width:0.79583213;stroke-linecap:butt;stroke-linejoin:miter;stroke-miterlimit:10;stroke-opacity:1;stroke-dasharray:none"
           id="path3799"
           d="m 400.03125,561.21875 -5.3125,4.5625 -5.3125,14.875 4.0625,4.0625 16.40625,0 4.28125,-4.3125 4.5625,-15.65625 -3.53125,-3.53125 -15.15625,0 z m -30.0625,41.9375 -2.03125,8.0625 11.375,0 -24.5,69.96875 34.84375,0 2.28125,-7.34375 -9.59375,0 24.25,-70.6875 -36.625,0 z m 110.875,0.25 L 473.25,612 l -12.625,0 -8.0625,-8.34375 -27.53125,0 -2.53125,7.5625 9.09375,0 -23.5,69.21875 29.3125,0 2.25,-6.59375 -6.8125,0 15.40625,-48.46875 29.0625,0 -17.1875,55.0625 28.28125,0 2.53125,-6.0625 -6.8125,0 15.65625,-49.25 27.78125,0 -17.4375,55.3125 31.0625,0 2.53125,-6.59375 -7.84375,0 19.21875,-62.375 -5.8125,-7.8125 -22.21875,0 -7.34375,8.0625 -13.375,0 -7.59375,-8.3125 -17.90625,0 z" />
      </g>
      <g
         style="stroke:url(#linearGradient3979);stroke-width:0.79583212999999997;stroke-miterlimit:10;stroke-dasharray:none;stroke-opacity:1;fill-opacity:1;fill:url(#linearGradient3987)"
         transform="matrix(0.90138601,0,0,0.99222542,-92.530288,-192.23791)"
         id="g3967">
        <path
           sodipodi:type="inkscape:offset"
           inkscape:radius="1.2328869"
           inkscape:original="M 400.03125 561.21875 L 394.71875 565.78125 L 389.40625 580.65625 L 393.46875 584.71875 L 409.875 584.71875 L 414.15625 580.40625 L 418.71875 564.75 L 415.1875 561.21875 L 400.03125 561.21875 z M 369.96875 603.15625 L 367.9375 611.21875 L 379.3125 611.21875 L 354.8125 681.1875 L 389.65625 681.1875 L 391.9375 673.84375 L 382.34375 673.84375 L 406.59375 603.15625 L 369.96875 603.15625 z M 480.84375 603.40625 L 473.25 612 L 460.625 612 L 452.5625 603.65625 L 425.03125 603.65625 L 422.5 611.21875 L 431.59375 611.21875 L 408.09375 680.4375 L 437.40625 680.4375 L 439.65625 673.84375 L 432.84375 673.84375 L 448.25 625.375 L 477.3125 625.375 L 460.125 680.4375 L 488.40625 680.4375 L 490.9375 674.375 L 484.125 674.375 L 499.78125 625.125 L 527.5625 625.125 L 510.125 680.4375 L 541.1875 680.4375 L 543.71875 673.84375 L 535.875 673.84375 L 555.09375 611.46875 L 549.28125 603.65625 L 527.0625 603.65625 L 519.71875 611.71875 L 506.34375 611.71875 L 498.75 603.40625 L 480.84375 603.40625 z "
           style="fill:url(#linearGradient3987);fill-opacity:1.0;stroke:url(#linearGradient3979);stroke-width:0.79583212999999997;stroke-linecap:butt;stroke-linejoin:miter;stroke-miterlimit:10;stroke-opacity:1;stroke-dasharray:none"
           id="path3969"
           d="m 399.78125,560 a 1.2330102,1.2330102 0 0 0 -0.5625,0.28125 l -5.3125,4.5625 A 1.2330102,1.2330102 0 0 0 393.5625,565.375 L 388.25,580.25 a 1.2330102,1.2330102 0 0 0 0.28125,1.28125 l 4.0625,4.0625 a 1.2330102,1.2330102 0 0 0 0.875,0.34375 l 16.40625,0 a 1.2330102,1.2330102 0 0 0 0.875,-0.34375 l 4.28125,-4.3125 a 1.2330102,1.2330102 0 0 0 0.3125,-0.53125 l 4.5625,-15.65625 a 1.2330102,1.2330102 0 0 0 -0.3125,-1.21875 l -3.53125,-3.53125 A 1.2330102,1.2330102 0 0 0 415.1875,560 l -15.15625,0 a 1.2330102,1.2330102 0 0 0 -0.25,0 z m -30.0625,41.9375 a 1.2330102,1.2330102 0 0 0 -0.9375,0.90625 l -2.03125,8.0625 a 1.2330102,1.2330102 0 0 0 1.1875,1.53125 l 9.65625,0 -23.9375,68.34375 a 1.2330102,1.2330102 0 0 0 1.15625,1.625 l 34.84375,0 a 1.2330102,1.2330102 0 0 0 1.1875,-0.84375 l 2.28125,-7.34375 a 1.2330102,1.2330102 0 0 0 -1.1875,-1.59375 l -7.875,0 23.6875,-69.0625 a 1.2330102,1.2330102 0 0 0 -1.15625,-1.625 l -36.625,0 a 1.2330102,1.2330102 0 0 0 -0.25,0 z m 110.875,0.25 a 1.2330102,1.2330102 0 0 0 -0.6875,0.40625 l -7.25,8.1875 -11.53125,0 -7.6875,-7.96875 a 1.2330102,1.2330102 0 0 0 -0.875,-0.375 l -27.53125,0 A 1.2330102,1.2330102 0 0 0 423.875,603.25 l -2.53125,7.5625 a 1.2330102,1.2330102 0 0 0 1.15625,1.625 l 7.375,0 -22.9375,67.59375 a 1.2330102,1.2330102 0 0 0 1.15625,1.625 l 29.3125,0 a 1.2330102,1.2330102 0 0 0 1.15625,-0.8125 l 2.25,-6.59375 a 1.2330102,1.2330102 0 0 0 -1.15625,-1.625 l -5.125,0 14.625,-46.03125 26.46875,0 -16.6875,53.46875 a 1.2330102,1.2330102 0 0 0 1.1875,1.59375 l 28.28125,0 a 1.2330102,1.2330102 0 0 0 1.125,-0.75 l 2.53125,-6.0625 a 1.2330102,1.2330102 0 0 0 -1.125,-1.6875 l -5.125,0 14.875,-46.8125 25.1875,0 -16.9375,53.71875 a 1.2330102,1.2330102 0 0 0 1.1875,1.59375 l 31.0625,0 a 1.2330102,1.2330102 0 0 0 1.15625,-0.78125 l 2.53125,-6.59375 a 1.2330102,1.2330102 0 0 0 -1.15625,-1.65625 l -6.15625,0 18.71875,-60.78125 a 1.2330102,1.2330102 0 0 0 -0.1875,-1.125 l -5.8125,-7.8125 a 1.2330102,1.2330102 0 0 0 -1,-0.46875 l -22.21875,0 a 1.2330102,1.2330102 0 0 0 -0.90625,0.375 l -7,7.6875 -12.25,0 -7.25,-7.9375 a 1.2330102,1.2330102 0 0 0 -0.90625,-0.375 l -17.90625,0 a 1.2330102,1.2330102 0 0 0 -0.25,0 z" />
        <path
           d="m 400.03125,561.21875 -5.3125,4.5625 -5.3125,14.875 4.0625,4.0625 16.40625,0 4.28125,-4.3125 4.5625,-15.65625 -3.53125,-3.53125 -15.15625,0 z m -30.0625,41.9375 -2.03125,8.0625 11.375,0 -24.5,69.96875 34.84375,0 2.28125,-7.34375 -9.59375,0 24.25,-70.6875 -36.625,0 z m 110.875,0.25 L 473.25,612 l -12.625,0 -8.0625,-8.34375 -27.53125,0 -2.53125,7.5625 9.09375,0 -23.5,69.21875 29.3125,0 2.25,-6.59375 -6.8125,0 15.40625,-48.46875 29.0625,0 -17.1875,55.0625 28.28125,0 2.53125,-6.0625 -6.8125,0 15.65625,-49.25 27.78125,0 -17.4375,55.3125 31.0625,0 2.53125,-6.59375 -7.84375,0 19.21875,-62.375 -5.8125,-7.8125 -22.21875,0 -7.34375,8.0625 -13.375,0 -7.59375,-8.3125 -17.90625,0 z"
           id="path3971"
           style="fill:url(#linearGradient3989);fill-opacity:1;stroke:url(#linearGradient3991);stroke-width:0.79583212999999997;stroke-linecap:butt;stroke-linejoin:miter;stroke-miterlimit:10;stroke-opacity:1;stroke-dasharray:none"
           inkscape:original="M 400.03125 561.21875 L 394.71875 565.78125 L 389.40625 580.65625 L 393.46875 584.71875 L 409.875 584.71875 L 414.15625 580.40625 L 418.71875 564.75 L 415.1875 561.21875 L 400.03125 561.21875 z M 369.96875 603.15625 L 367.9375 611.21875 L 379.3125 611.21875 L 354.8125 681.1875 L 389.65625 681.1875 L 391.9375 673.84375 L 382.34375 673.84375 L 406.59375 603.15625 L 369.96875 603.15625 z M 480.84375 603.40625 L 473.25 612 L 460.625 612 L 452.5625 603.65625 L 425.03125 603.65625 L 422.5 611.21875 L 431.59375 611.21875 L 408.09375 680.4375 L 437.40625 680.4375 L 439.65625 673.84375 L 432.84375 673.84375 L 448.25 625.375 L 477.3125 625.375 L 460.125 680.4375 L 488.40625 680.4375 L 490.9375 674.375 L 484.125 674.375 L 499.78125 625.125 L 527.5625 625.125 L 510.125 680.4375 L 541.1875 680.4375 L 543.71875 673.84375 L 535.875 673.84375 L 555.09375 611.46875 L 549.28125 603.65625 L 527.0625 603.65625 L 519.71875 611.71875 L 506.34375 611.71875 L 498.75 603.40625 L 480.84375 603.40625 z "
           inkscape:radius="0"
           sodipodi:type="inkscape:offset" />
      </g>
    </g>
  </g>
</svg>
