<?xml version="1.0" encoding="UTF-8" standalone="no"?>
<svg
   xmlns:dc="http://purl.org/dc/elements/1.1/"
   xmlns:cc="http://creativecommons.org/ns#"
   xmlns:rdf="http://www.w3.org/1999/02/22-rdf-syntax-ns#"
   xmlns:svg="http://www.w3.org/2000/svg"
   xmlns="http://www.w3.org/2000/svg"
   xmlns:sodipodi="http://sodipodi.sourceforge.net/DTD/sodipodi-0.dtd"
   xmlns:inkscape="http://www.inkscape.org/namespaces/inkscape"
   version="1.1"
   height="176"
   width="176"
   id="svg2"
   inkscape:version="0.91 r13725"
   sodipodi:docname="windows.svg">
  <metadata
     id="metadata16">
    <rdf:RDF>
      <cc:Work
         rdf:about="">
        <dc:format>image/svg+xml</dc:format>
        <dc:type
           rdf:resource="http://purl.org/dc/dcmitype/StillImage" />
        <dc:title></dc:title>
      </cc:Work>
    </rdf:RDF>
  </metadata>
  <defs
     id="defs14" />
  <sodipodi:namedview
     pagecolor="#ffffff"
     bordercolor="#666666"
     borderopacity="1"
     objecttolerance="10"
     gridtolerance="10"
     guidetolerance="10"
     inkscape:pageopacity="0"
     inkscape:pageshadow="2"
     inkscape:window-width="640"
     inkscape:window-height="480"
     id="namedview12"
     showgrid="false"
     inkscape:zoom="3.1633987"
     inkscape:cx="32.451094"
     inkscape:cy="94.360754"
     inkscape:current-layer="svg2">
    <inkscape:grid
       type="xygrid"
       id="grid8076" />
  </sodipodi:namedview>
  <path
     d="m 173.04224,33.808884 c -32.996,13.642 -48.861,5.973 -63.16,-3.65 l -16.278008,56.462 c 14.285008,9.678 31.531008,17.634996 63.188008,3.463 l 16.25,-56.275 z"
     style="fill:#91c300"
     id="path4"
     inkscape:connector-curvature="0" />
  <path
     style="fill:#00b4f1"
     d="m 65.774232,147.31388 c -14.331,-9.645 -29.91,-17.578 -62.9840006,-3.902 L 18.985232,86.843884 c 33.081,-13.678 48.973,-5.938 63.29,3.766 l -16.501,56.702996 z"
     id="path6"
     inkscape:connector-curvature="0" />
  <path
     d="m 85.025232,80.398884 c -8.628,-5.81 -17.907,-11.233 -31.085,-11.333 -8.695,-0.067 -19.045,2.403 -32.184,7.836 l 16.283,-56.422 c 33.059,-13.6689997 48.938,-5.933 63.245008,3.764 l -16.259008,56.155 z"
     style="fill:#f8682c"
     id="path8"
     inkscape:connector-curvature="0" />
  <path
     d="m 90.859232,96.052884 c 14.313008,9.636996 30.212008,17.312996 63.243008,3.66 l -16.281,56.233996 c -33.037,13.664 -48.903008,5.926 -63.201008,-3.77 l 16.239,-56.123996 z"
     style="fill:#ffc300"
     id="path10"
     inkscape:connector-curvature="0" />
</svg>
