/* XPM */
static char * closeI_xpm[] = {
"22 44 5 1",
" 	c None",
".	c #EDEDED",
"+	c #535353",
"@	c #787878",
"#	c #BEBEBE",
"......................",
"......................",
"......................",
"......................",
"......................",
"......................",
"......................",
".......+@#..#@+.......",
".......@+@##@+@.......",
".......#@+@@+@#.......",
"........#@++@#........",
"........#@++@#........",
".......#@+@@+@#.......",
".......@+@##@+@.......",
".......+@#..#@+.......",
"......................",
"......................",
"......................",
"......................",
"......................",
"......................",
"......................",
"......................",
"......................",
"......................",
"......................",
"......................",
"......................",
"......................",
".......+@#..#@+.......",
".......@+@##@+@.......",
".......#@+@@+@#.......",
"........#@++@#........",
"........#@++@#........",
".......#@+@@+@#.......",
".......@+@##@+@.......",
".......+@#..#@+.......",
"......................",
"......................",
"......................",
"......................",
"......................",
"......................",
"......................"};
