/* XPM */
static char * maximizeI_xpm[] = {
"22 44 5 1",
" 	c None",
".	c #EDEDED",
"+	c #787878",
"@	c #535353",
"#	c #BEBEBE",
"......................",
"......................",
"......................",
"......................",
"......................",
"......................",
"......................",
".......+@@@@@@+.......",
".......@@@@@@@@.......",
".......@@#..#@@.......",
".......@@....@@.......",
".......@@....@@.......",
".......@@#..#@@.......",
".......@@@@@@@@.......",
".......+@@@@@@+.......",
"......................",
"......................",
"......................",
"......................",
"......................",
"......................",
"......................",
"......................",
"......................",
"......................",
"......................",
"......................",
"......................",
".......+@@@@@@+.......",
".......@@@@@@@@.......",
".......@@#..#@@.......",
".......@@....@@.......",
".......@@....@@.......",
".......@@#..#@@.......",
".......@@@@@@@@.......",
".......+@@@@@@+.......",
"......................",
"......................",
"......................",
"......................",
"......................",
"......................",
"......................",
"......................"};
