/* XPM */
static char * minimizeA_xpm[] = {
"22 44 5 1",
" 	c None",
".	c #CACACA",
"+	c #AEAEAE",
"@	c #575757",
"#	c #292929",
"......................",
"......................",
"......................",
"......................",
"......................",
"......................",
"......................",
"......................",
"......................",
"......................",
"......................",
"......................",
"......................",
"......+@######@+......",
"......+########+......",
"......................",
"......................",
"......................",
"......................",
"......................",
"......................",
"......................",
"......................",
"......................",
"......................",
"......................",
"......................",
"......................",
"......................",
"......................",
"......................",
"......................",
"......................",
"......................",
"......................",
"......+@######@+......",
"......+########+......",
"......................",
"......................",
"......................",
"......................",
"......................",
"......................",
"......................"};
