/* XPM */
static char * restoreI_xpm[] = {
"22 44 4 1",
" 	c None",
".	c #EDEDED",
"+	c #787878",
"@	c #535353",
"......................",
"......................",
"......................",
"......................",
"......................",
"......................",
"......................",
".......+@@@@@@+.......",
".......@@@@@@@@.......",
".......@@@@@@@@.......",
".......@@@@@@@@.......",
".......@@@@@@@@.......",
".......@@@@@@@@.......",
".......@@@@@@@@.......",
".......+@@@@@@+.......",
"......................",
"......................",
"......................",
"......................",
"......................",
"......................",
"......................",
"......................",
"......................",
"......................",
"......................",
"......................",
"......................",
".......+@@@@@@+.......",
".......@@@@@@@@.......",
".......@@@@@@@@.......",
".......@@@@@@@@.......",
".......@@@@@@@@.......",
".......@@@@@@@@.......",
".......@@@@@@@@.......",
".......+@@@@@@+.......",
"......................",
"......................",
"......................",
"......................",
"......................",
"......................",
"......................",
"......................"};
