<?xml version="1.0" encoding="UTF-8" standalone="yes"?><svg xmlns="http://www.w3.org/2000/svg" xmlns:xlink="http://www.w3.org/1999/xlink" height="264px" style="width:493px;height:264px;" version="1.1" viewBox="0 0 493 264" width="493px"><defs/><g><polygon fill="#FFFFFF" points="158,55,243,55,250,77.7999,446,77.7999,446,143,158,143,158,55" style="stroke: #000000; stroke-width: 2.0;"/><line style="stroke: #000000; stroke-width: 2.0;" x1="158" x2="250" y1="77.7999" y2="77.7999"/><text fill="#000000" font-family="sans-serif" font-size="14" font-weight="bold" lengthAdjust="spacingAndGlyphs" textLength="79" x="162" y="70.9999">Application</text><polygon fill="#FFFFFF" points="160,172,197,172,204,194.7999,492,194.7999,492,263,160,263,160,172" style="stroke: #000000; stroke-width: 2.0;"/><line style="stroke: #000000; stroke-width: 2.0;" x1="160" x2="204" y1="194.7999" y2="194.7999"/><text fill="#000000" font-family="sans-serif" font-size="14" font-weight="bold" lengthAdjust="spacingAndGlyphs" textLength="31" x="164" y="187.9999">Data</text><rect fill="#F8F8F8" height="36.7999" style="stroke: #383838; stroke-width: 1.5;" width="57" x="258.5" y="90"/><text fill="#000000" font-family="sans-serif" font-size="14" lengthAdjust="spacingAndGlyphs" textLength="37" x="268.5" y="113.9999">Model</text><rect fill="#F8F8F8" height="36.7999" style="stroke: #383838; stroke-width: 1.5;" width="49" x="174.5" y="90"/><text fill="#000000" font-family="sans-serif" font-size="14" lengthAdjust="spacingAndGlyphs" textLength="29" x="184.5" y="113.9999">View</text><rect fill="#F8F8F8" height="36.7999" style="stroke: #383838; stroke-width: 1.5;" width="79" x="350.5" y="90"/><text fill="#000000" font-family="sans-serif" font-size="14" lengthAdjust="spacingAndGlyphs" textLength="59" x="360.5" y="113.9999">Controller</text><rect fill="#F8F8F8" height="39.7999" style="stroke: #000000; stroke-width: 1.5;" width="95" x="380.5" y="207"/><polygon fill="#F8F8F8" points="458.5,212,458.5,226,470.5,226,470.5,218,464.5,212,458.5,212" style="stroke: #000000; stroke-width: 1.5;"/><line style="stroke: #000000; stroke-width: 1.5;" x1="464.5" x2="464.5" y1="212" y2="218"/><line style="stroke: #000000; stroke-width: 1.5;" x1="470.5" x2="464.5" y1="218" y2="218"/><text fill="#000000" font-family="sans-serif" font-size="14" lengthAdjust="spacingAndGlyphs" textLength="65" x="390.5" y="233.9999">JSON files</text><rect fill="#F8F8F8" height="36.7999" style="stroke: #383838; stroke-width: 1.5;" width="169" x="176.5" y="208.5"/><text fill="#000000" font-family="sans-serif" font-size="14" lengthAdjust="spacingAndGlyphs" textLength="149" x="186.5" y="232.4999">Data Generation Scripts</text><ellipse cx="21" cy="197" fill="#F8F8F8" rx="8" ry="8" style="stroke: #383838; stroke-width: 2.0;"/><path d="M21,205 L21,232 M8,213 L34,213 M21,232 L8,247 M21,232 L34,247 " fill="#F8F8F8" style="stroke: #383838; stroke-width: 2.0;"/><text fill="#000000" font-family="sans-serif" font-size="14" lengthAdjust="spacingAndGlyphs" textLength="29" x="6.5" y="263.9999">User</text><rect fill="#F8F8F8" height="36.7999" style="stroke: #383838; stroke-width: 1.5;" width="70" x="71" y="208.5"/><text fill="#000000" font-family="sans-serif" font-size="14" lengthAdjust="spacingAndGlyphs" textLength="50" x="81" y="232.4999">Browser</text><path d="M36.2734,227 C46.0922,227 55.911,227 65.7298,227 " fill="none" style="stroke: #383838; stroke-width: 1.0;"/><polygon fill="#383838" points="70.8643,227,61.8643,223,65.8643,227,61.8643,231,70.8643,227" style="stroke: #383838; stroke-width: 1.0;"/><path d="M181.683,131.193 C163.968,153.384 136.771,187.4538 120.258,208.1396 " fill="none" style="stroke: #383838; stroke-width: 1.0;"/><polygon fill="#383838" points="184.875,127.194,176.1351,131.7344,181.7566,131.1024,182.3885,136.7238,184.875,127.194" style="stroke: #383838; stroke-width: 1.0;"/><path d="M206.906,84.836 C215.678,62.804 232.177,31.282 258.5,17 C280.767,4.919 292.62,6.124 315.5,17 C345.036,31.04 366.707,63.152 378.835,85.337 " fill="none" style="stroke: #383838; stroke-width: 1.0;"/><polygon fill="#383838" points="381.278,89.91,380.5657,80.0869,378.9222,85.4998,373.5093,83.8563,381.278,89.91" style="stroke: #383838; stroke-width: 1.0;"/><polygon fill="#383838" points="205.047,89.66,212.0146,82.6992,206.8442,84.9942,204.5493,79.8237,205.047,89.66" style="stroke: #383838; stroke-width: 1.0;"/><path d="M320.746,108.5 C328.947,108.5 337.149,108.5 345.35,108.5 " fill="none" style="stroke: #383838; stroke-width: 1.0;"/><polygon fill="#383838" points="350.457,108.5,341.457,104.5,345.457,108.5,341.457,112.5,350.457,108.5" style="stroke: #383838; stroke-width: 1.0;"/><polygon fill="#383838" points="315.566,108.5,324.566,112.5,320.566,108.5,324.566,104.5,315.566,108.5" style="stroke: #383838; stroke-width: 1.0;"/><path d="M345.805,227 C355.648,227 365.491,227 375.334,227 " fill="none" style="stroke: #383838; stroke-width: 1.0;"/><polygon fill="#383838" points="380.481,227,371.481,223,375.481,227,371.481,231,380.481,227" style="stroke: #383838; stroke-width: 1.0;"/><path d="M307.835,130.923 C315.338,137.9 324.145,145.306 333,151 C345.222,158.859 350.888,155.972 363,164 C381.198,176.062 398.932,193.4741 411.267,206.7767 " fill="none" style="stroke: #383838; stroke-width: 1.0;"/><polygon fill="#383838" points="303.809,127.105,307.5866,136.2006,307.4369,130.5457,313.0918,130.396,303.809,127.105" style="stroke: #383838; stroke-width: 1.0;"/></g></svg>