/* XPM */
static char *xterm[] = {
/* columns rows colors chars-per-pixel */
"64 64 124 2 ",
"   c None",
".  c #151515",
"X  c #181717",
"o  c #1D1D1D",
"O  c #221A1A",
"+  c #2E1D1D",
"@  c #301B1B",
"#  c #242424",
"$  c #2A2626",
"%  c #292929",
"&  c #332424",
"*  c #382525",
"=  c #342828",
"-  c #343434",
";  c #3B3B3B",
":  c #442121",
">  c #4C2323",
",  c #4C2C2C",
"<  c #5D2727",
"1  c #512C2C",
"2  c #5D3333",
"3  c #662B2B",
"4  c #682A2A",
"5  c #722D2D",
"6  c #623232",
"7  c #6C3232",
"8  c #703232",
"9  c #7E3636",
"0  c #7A3A3A",
"q  c #424242",
"w  c #686868",
"e  c #737373",
"r  c #7B7B7B",
"t  c #863535",
"y  c #8A3434",
"u  c #8A3939",
"i  c #943939",
"p  c #993B3B",
"a  c #A23C3C",
"s  c #AA3D3D",
"d  c #B63E3E",
"f  c #964040",
"g  c #AF4040",
"h  c #B24141",
"j  c #BC4343",
"k  c #C44343",
"l  c #CC4545",
"z  c #C14949",
"x  c #D74747",
"c  c #D44B4B",
"v  c #DB4848",
"b  c #D65353",
"n  c #DE5252",
"m  c #E34B4B",
"M  c #EC4D4D",
"N  c #F24E4E",
"B  c #E25151",
"V  c #EC5555",
"C  c #ED5454",
"Z  c #EE5252",
"A  c #F05050",
"S  c #F05151",
"D  c #808080",
"F  c gray52",
"G  c gray53",
"H  c #808080",
"J  c #898989",
"K  c gray54",
"L  c #8E8E8E",
"P  c #8D8D8D",
"I  c gray59",
"U  c #929292",
"Y  c #989898",
"T  c gray62",
"R  c #9D9D9D",
"E  c #A5A5A5",
"W  c gray65",
"Q  c #A7A7A7",
"!  c #AEAEAE",
"~  c gray67",
"^  c #B4B4B4",
"/  c gray71",
"(  c #B7B7B7",
")  c #B5B5B5",
"_  c gray72",
"`  c #B9B9B9",
"'  c gray73",
"]  c #BBBBBB",
"[  c #BCBCBC",
"{  c gray74",
"}  c gray75",
"|  c #BCBCBC",
" . c #C0C0C0",
".. c #C1C1C1",
"X. c gray76",
"o. c #C3C3C3",
"O. c #C5C5C5",
"+. c #C6C6C6",
"@. c #C5C5C5",
"#. c gray79",
"$. c #CACACA",
"%. c #CBCBCB",
"&. c gray80",
"*. c #CDCDCD",
"=. c #CECECE",
"-. c gray81",
";. c #CBCBCB",
":. c #D0D0D0",
">. c gray82",
",. c gray83",
"<. c #D5D5D5",
"1. c #D7D7D7",
"2. c #D2D2D2",
"3. c #D8D8D8",
"4. c #DADADA",
"5. c gainsboro",
"6. c #DDDDDD",
"7. c gray87",
"8. c #DFDFDF",
"9. c #DEDEDE",
"0. c gray88",
"q. c #E4E4E4",
"w. c #E6E6E6",
"e. c #E6E6E6",
/* pixels */
"                                                                                                                                ",
"                                                                                                                                ",
"                                                                                                                                ",
"                                                                                                                                ",
"                                                                                                                                ",
"                                                                                                                                ",
"                                                                                                                                ",
"                                                                                                                                ",
"                                                                                                                                ",
"                                                                                                                                ",
"                                                                                                                                ",
"        o # o o o o o o o o o o o o o o o o o o o o o o o o o o o o o o o o o o o o o o o o o o o o o o o o o o o o % q         ",
"      o ; #.w.0.0.0.7.7.7.7.7.7.7.7.7.7.7.7.7.7.7.7.7.7.7.7.7.7.7.7.7.7.7.7.7.7.7.7.7.7.7.7.7.7.7.7.7.7.7.,.#.} ( W F - q       ",
"      # &.7.7.3.,.>.&.#.+. . .} ] ] ] ] ] ] ] ] ] ] ] ] ] ] ] ] ] ] ] ] ] ] ] ] ] ] ] ] ] } ] ] ] ] ] ] ] ] ] ] ] ] Y e %       ",
"      o w.7.3.,.>.&.#.+. .} } ] ] ] ] ] ] ] ] ] ] ] ] ] ] ] ] ] ] ] ] ] ] ] ] ] ] ] ] ] } } } } ] ] ] ] ] ] ] ] ] ] ( D #       ",
"      o w.3.,. .K D D D D D D D D D D D D D D D D D D D D D D D D D D D D D D D D D D D D D D D D D F L U R W ! ] ] ( D #       ",
"      o w.,.>.K w q q q q q q q q q ; q ; ; ; ; ; ; ; ; ; ; ; ; ; ; ; ; - - - - - - - - - - - - - - - - - - ; F  .] ( D #       ",
"      o w.>.&.r q q ; ; ; ; ; ; ; ; ; ; ; ; ; ; - ; - - - - - - - - - - - - - - - % - % % % % % % % % % % % % - #.} ( D #       ",
"      o w.&.#.r ; ; ; ; ; ; ; ; ; ; ; ; ; ; - - - - - - - - - - - - - - - % % % - % % % % % % % % % % % % % % % &.} ( D #       ",
"      # w.#.+.r ; ; ; ; ; ; ; ; ; ; ; - - - - - - - - - - - - - - - - - % % % % % % % % % % % % % % % % % % % % 3.} ( D #       ",
"      # w.+. .r ; ; ; ; ; ; ; ; ; - - - - - - - - - - - - - - - - % % % % % % % % % % % % % % % % % % % % % % % 7.} ( D #       ",
"      # w. .} r ; ; ; ; ; ; - - - - b n n n n n n n n n n B B z % % % 6 m m m m m m m m m 7 % % % % % % % % % % 7.} ( D #       ",
"      # w.} } r ; ; ; ; - - - - - % 2 0 f c V V V C V C j u 8 1 # % % & 3 9 p M S S s t 4 & # % % % % % % % % % 7.} ( D #       ",
"      # w.} } r ; ; - - - - - - - % # # # * n C C C C C c + o o # % # o X o a N S 5 . . . o # % % % % % % % % % 7.} ( D #       ",
"      # w.} } r - - - - - - - - - % % % # # , B C C C C C j # # # % # # # a N N 5 . o o o # # # % % % % % % % % 7.} ( D #       ",
"      # w.} } r - - - - - - - - - - - % % # # 7 C C C M C M a # % % % $ s N N 4 . o # # # # % % % % % % % % % % 7.} ( D #       ",
"      # w.} } r - - - - - - - - - - = % % % # o i C S S N N N 9 # % $ g N M 4 . o # # % % % % % % % % % % % % % 7.} ( D #       ",
"      # w.} } r - - - - - - % % - % % % % % # # o h N N N N N N 6 $ h N M 4 . o # # % % % % % % % % % % % % % % 7.} ( D #       ",
"      # w.] } r - - - - - - - % % % % % % % % # # O l N N N N N m j N M < . o # # % % % % % % % % % % % % % % % 7.] ( r #       ",
"      # w.] } r - - - - % % % % % % % % % % % # # o @ m N N N N N N M < . o # # % % % % % % % % % % % % % % % % 7.] ] D #       ",
"      # w.} } r - - % % % % % % % % % % % % % # # # X > M N N N N N k o o # # % % % % % % % % % % % % % % % % % 7.} ] D #       ",
"      # w.] } r % % % % % % % % % % % % % % % % # # o X 4 N N N N N N a # # % % % % % % % % % % % % % % % % % % 7.} ] D #       ",
"      # w.} } r % % % % % % % % % % % % % % % % % # # o O x N N N N N N 9 # % % % % % % % % % % % % % % % % % % 7.} ] D #       ",
"      # w.] } r % % % % % % % % % % % % % % % % % % # $ j N N N N N N N N 6 # % % % % % % % % % % % % % % % % % 7.} ] D #       ",
"      # w.] } r % % % % % % % % % % % % % % % % % % $ j N M < l N N N N N M , # % % % % % % % % % % % % % % % % 7.} ] D #       ",
"      # w.] } r % % % % % % % % % % % % % % % % % = k N M > . + v N N N N N x = # % % % % % % % % % % % % % % % 7.] ] D #       ",
"      # w.} } r % % % % % % % % % % % % % % % % = k N M > X o X : M N N N N N k $ % % % % % % % % % % % % % % % 7.] ] D #       ",
"      # w.} } r % % % % % % % % % % % % % % % = k N M > X o # o X 4 N N N N N N a # % % % % % % % % % % % % % % 7.] ] D #       ",
"      # w.} } r % % % % % % % % % % % % % % = k N m : X o # # # o . y N N N N N N 9 # % % % % % % % % % % % % % 7.] ] D #       ",
"      # w.} } r % % % % % % % % % % % % % = l N m : X o # # % # # o X s N N N N N N 6 # % % % % % % % % % % % % 7.] ] D #       ",
"      # w.} } r % % % % % % % % % % % % = l N m : X o # # % % % # # o o l N N N N N M , # % % % % % % % % % % % 7.] ] D #       ",
"      # w.] } r % % % % % % % % # 2 9 p x N N k y 8 1 # % % % % # , 8 t d N N N N N N x p 9 6 $ % % % % % % % % 7.} ] D #       ",
"      # w.] } r % % % % % % % # # l m m m m m m m m j # # % % # # h m m m m m m m m m m m m m $ # % % % % % % % 7.} ] D #       ",
"      # w.} } r % % % % % % % # # . . . . . . . . . . # # % % # # . . . . . . . . . . . . . . o # % % % % % % % 7.] ] D #       ",
"      # w.] } F % % % % % % % # # X X X X X X X X X X # # % % # # o X X X X X X X X X X X X X o # % % % % % % % 7.} ] r #       ",
"      # w.} } L % % % % % % % # # # # # # # # # # # # # # % % # # # # # # # # # # # # # # # # # # % % % % % # % 7.} ] r #       ",
"      # w.} } R - % % % % % % % % # % % # % # # # # # % % % % % % # # # # # # # # % # % # # # % % % % % % % % ; w.} ] D #       ",
"      # >.] ] ~ K ; % % % % % % % % % % % % % % % % % % % % % % % % % % % % % % % % % % % % % % % % % % % % ; ( w.] ] D #       ",
"      # ] ] ] ] } +.&.,.3.0.w.w.w.w.w.w.w.w.w.w.w.w.w.w.w.w.w.w.w.w.w.w.w.w.w.w.w.w.w.w.w.w.w.w.w.w.w.w.w.w.w.0.#.] ] D #       ",
"      # W ( ] ] ] ] ] ] ] ] ] } } } } } } } } } } } } } } } } } } } } } } } } } } } } } } } } } } } } } } } } } ] ] ^ D o       ",
"      % F U ( ] ] ] ] ] ] ] ] ] ] ] ] ] ] ] ] ] ] ] ] ] ] ] ] ] ] ] ] ] ] ] ] ] ] ] ] ] ] ] ] ] ] ] ] ] ] ] ] ] ] ( U e %       ",
"      q - e D D D D D D D D D D D D D D D r r D D D D D D D D D D D D D D D D D D D D D D D D D D D D D D D D D D D e q q       ",
"        ; # o o o o o o o o o o o o o o o o o o o o o o o o o o o o o o o o o o o o o o o o o o o o o o o o o o o o % q         ",
"                                                                                                                                ",
"                                                                                                                                ",
"                                                                                                                                ",
"                                                                                                                                ",
"                                                                                                                                ",
"                                                                                                                                ",
"                                                                                                                                ",
"                                                                                                                                ",
"                                                                                                                                ",
"                                                                                                                                ",
"                                                                                                                                "
};
