<?xml version="1.0" encoding="UTF-8" standalone="no"?>
<!DOCTYPE svg PUBLIC "-//W3C//DTD SVG 1.1//EN"
 "http://www.w3.org/Graphics/SVG/1.1/DTD/svg11.dtd">
<!-- Generated by graphviz version 2.42.4 (0)
 -->
<!-- Title: G Pages: 1 -->
<svg width="288pt" height="239pt"
 viewBox="0.00 0.00 288.00 239.20" xmlns="http://www.w3.org/2000/svg" xmlns:xlink="http://www.w3.org/1999/xlink">
<g id="graph0" class="graph" transform="scale(0.71 0.71) rotate(0) translate(4 332.95)">
<title>G</title>
<polygon fill="white" stroke="transparent" points="-4,4 -4,-332.95 401.7,-332.95 401.7,4 -4,4"/>
<!-- main -->
<g id="node1" class="node">
<title>main</title>
<polygon fill="none" stroke="black" points="158.05,-328.95 104.05,-328.95 104.05,-292.95 158.05,-292.95 158.05,-328.95"/>
<text text-anchor="middle" x="131.05" y="-307.25" font-family="Times,serif" font-size="14.00">main</text>
</g>
<!-- parse -->
<g id="node2" class="node">
<title>parse</title>
<ellipse fill="none" stroke="black" cx="131.05" cy="-237.95" rx="36.29" ry="18"/>
<text text-anchor="middle" x="131.05" y="-234.25" font-family="Times,serif" font-size="14.00">parse</text>
</g>
<!-- main&#45;&gt;parse -->
<g id="edge1" class="edge">
<title>main&#45;&gt;parse</title>
<path fill="none" stroke="black" d="M131.05,-292.77C131.05,-284.74 131.05,-275 131.05,-266.02"/>
<polygon fill="black" stroke="black" points="134.55,-265.98 131.05,-255.98 127.55,-265.98 134.55,-265.98"/>
</g>
<!-- init -->
<g id="node4" class="node">
<title>init</title>
<ellipse fill="none" stroke="black" cx="222.05" cy="-183.95" rx="27" ry="18"/>
<text text-anchor="middle" x="222.05" y="-180.25" font-family="Times,serif" font-size="14.00">init</text>
</g>
<!-- main&#45;&gt;init -->
<g id="edge3" class="edge">
<title>main&#45;&gt;init</title>
<path fill="none" stroke="black" stroke-dasharray="1,5" d="M146.18,-292.87C155.18,-282.45 166.64,-268.73 176.05,-255.95 187.12,-240.92 198.54,-223.3 207.23,-209.38"/>
<polygon fill="black" stroke="black" points="210.24,-211.17 212.52,-200.83 204.29,-207.49 210.24,-211.17"/>
</g>
<!-- cleanup -->
<g id="node5" class="node">
<title>cleanup</title>
<ellipse fill="none" stroke="black" cx="270.05" cy="-237.95" rx="46.59" ry="18"/>
<text text-anchor="middle" x="270.05" y="-234.25" font-family="Times,serif" font-size="14.00">cleanup</text>
</g>
<!-- main&#45;&gt;cleanup -->
<g id="edge4" class="edge">
<title>main&#45;&gt;cleanup</title>
<path fill="none" stroke="black" d="M158.11,-298.69C173.28,-292.16 192.44,-283.55 209.05,-274.95 218.55,-270.04 228.64,-264.3 237.82,-258.88"/>
<polygon fill="black" stroke="black" points="239.86,-261.74 246.64,-253.6 236.26,-255.73 239.86,-261.74"/>
</g>
<!-- printf -->
<g id="node7" class="node">
<title>printf</title>
<ellipse fill="none" stroke="black" cx="37.05" cy="-37.48" rx="37.09" ry="18"/>
<text text-anchor="middle" x="37.05" y="-33.78" font-family="Times,serif" font-size="14.00">printf</text>
</g>
<!-- main&#45;&gt;printf -->
<g id="edge8" class="edge">
<title>main&#45;&gt;printf</title>
<path fill="none" stroke="red" stroke-width="2" d="M113.85,-292.71C95.3,-272.8 66.85,-238.14 55.05,-201.95 40.01,-155.86 37,-98.99 36.68,-65.92"/>
<polygon fill="red" stroke="red" stroke-width="2" points="40.18,-65.66 36.66,-55.67 33.18,-65.67 40.18,-65.66"/>
<text text-anchor="middle" x="91.05" y="-180.25" font-family="Times,serif" font-size="14.00">100 times</text>
</g>
<!-- execute -->
<g id="node3" class="node">
<title>execute</title>
<ellipse fill="none" stroke="black" cx="131.05" cy="-129.95" rx="46.59" ry="18"/>
<text text-anchor="middle" x="131.05" y="-126.25" font-family="Times,serif" font-size="14.00">execute</text>
</g>
<!-- parse&#45;&gt;execute -->
<g id="edge2" class="edge">
<title>parse&#45;&gt;execute</title>
<path fill="none" stroke="black" d="M131.05,-219.92C131.05,-203.33 131.05,-177.84 131.05,-158.38"/>
<polygon fill="black" stroke="black" points="134.55,-158.29 131.05,-148.29 127.55,-158.29 134.55,-158.29"/>
</g>
<!-- make_string -->
<g id="node6" class="node">
<title>make_string</title>
<ellipse fill="none" stroke="black" cx="293.05" cy="-37.48" rx="104.8" ry="37.45"/>
<text text-anchor="middle" x="293.05" y="-48.78" font-family="Times,serif" font-size="14.00">this is a</text>
<text text-anchor="middle" x="293.05" y="-33.78" font-family="Times,serif" font-size="14.00">really long label</text>
<text text-anchor="middle" x="293.05" y="-18.78" font-family="Times,serif" font-size="14.00">full of useless text</text>
</g>
<!-- execute&#45;&gt;make_string -->
<g id="edge5" class="edge">
<title>execute&#45;&gt;make_string</title>
<path fill="none" stroke="black" d="M156.72,-114.62C176.11,-103.79 203.61,-88.43 228.84,-74.34"/>
<polygon fill="black" stroke="black" points="230.62,-77.35 237.65,-69.42 227.21,-71.24 230.62,-77.35"/>
</g>
<!-- execute&#45;&gt;printf -->
<g id="edge6" class="edge">
<title>execute&#45;&gt;printf</title>
<path fill="none" stroke="black" d="M114.24,-112.78C99.22,-98.32 77.06,-76.99 60.34,-60.89"/>
<polygon fill="black" stroke="black" points="62.71,-58.32 53.08,-53.91 57.86,-63.36 62.71,-58.32"/>
</g>
<!-- compare -->
<g id="node8" class="node">
<title>compare</title>
<polygon fill="#c1b2ff" stroke="#c1b2ff" points="170.05,-55.48 92.05,-55.48 92.05,-19.48 170.05,-19.48 170.05,-55.48"/>
<text text-anchor="middle" x="131.05" y="-33.78" font-family="Times,serif" font-size="14.00">compare</text>
</g>
<!-- execute&#45;&gt;compare -->
<g id="edge9" class="edge">
<title>execute&#45;&gt;compare</title>
<path fill="none" stroke="red" d="M131.05,-111.94C131.05,-99 131.05,-80.94 131.05,-65.97"/>
<polygon fill="red" stroke="red" points="134.55,-65.73 131.05,-55.73 127.55,-65.73 134.55,-65.73"/>
</g>
<!-- init&#45;&gt;make_string -->
<g id="edge7" class="edge">
<title>init&#45;&gt;make_string</title>
<path fill="none" stroke="black" d="M230.05,-166.66C239.86,-146.7 256.88,-112.07 270.76,-83.83"/>
<polygon fill="black" stroke="black" points="274.06,-85.04 275.33,-74.53 267.78,-81.96 274.06,-85.04"/>
</g>
</g>
</svg>
