<?xml version="1.0" encoding="UTF-8" standalone="no"?>
<!DOCTYPE svg PUBLIC "-//W3C//DTD SVG 1.1//EN"
 "http://www.w3.org/Graphics/SVG/1.1/DTD/svg11.dtd">
<!-- Generated by graphviz version 2.42.4 (0)
 -->
<!-- Title: G Pages: 1 -->
<svg width="1899pt" height="592pt"
 viewBox="0.00 0.00 1899.00 592.00" xmlns="http://www.w3.org/2000/svg" xmlns:xlink="http://www.w3.org/1999/xlink">
<g id="graph0" class="graph" transform="scale(1 1) rotate(0) translate(4 588)">
<title>G</title>
<polygon fill="white" stroke="transparent" points="-4,4 -4,-588 1895,-588 1895,4 -4,4"/>
<!-- EH -->
<g id="node1" class="node">
<title>EH</title>
<polygon fill="none" stroke="red" points="1129.5,-584 905.5,-584 905.5,-546 1129.5,-546 1129.5,-584"/>
<text text-anchor="middle" x="1017.5" y="-568.8" font-family="Times,serif" font-size="14.00">ENJOY HOLIDAY</text>
<text text-anchor="middle" x="1017.5" y="-553.8" font-family="Times,serif" font-size="14.00">We want to have a good time</text>
</g>
<!-- BTOW -->
<g id="node2" class="node">
<title>BTOW</title>
<polygon fill="none" stroke="red" points="375,-402 0,-402 0,-364 375,-364 375,-402"/>
<text text-anchor="middle" x="187.5" y="-386.8" font-family="Times,serif" font-size="14.00">Book time off</text>
<text text-anchor="middle" x="187.5" y="-371.8" font-family="Times,serif" font-size="14.00">Check with boss that time off is OK, put in system</text>
</g>
<!-- EH&#45;&gt;BTOW -->
<g id="edge3" class="edge">
<title>EH&#45;&gt;BTOW</title>
<path fill="none" stroke="black" d="M934.5,-546C778.77,-512.23 443.8,-439.58 280.63,-404.2"/>
<polygon fill="black" stroke="black" points="281.13,-400.72 270.61,-402.02 279.64,-407.56 281.13,-400.72"/>
</g>
<!-- BFR -->
<g id="node3" class="node">
<title>BFR</title>
<polygon fill="none" stroke="red" points="746,-402 519,-402 519,-364 746,-364 746,-402"/>
<text text-anchor="middle" x="632.5" y="-386.8" font-family="Times,serif" font-size="14.00">Book fancy restaurant</text>
<text text-anchor="middle" x="632.5" y="-371.8" font-family="Times,serif" font-size="14.00">The one overlooking the river</text>
</g>
<!-- EH&#45;&gt;BFR -->
<g id="edge2" class="edge">
<title>EH&#45;&gt;BFR</title>
<path fill="none" stroke="black" d="M978.82,-545.92C908.05,-512.83 757.92,-442.64 680.65,-406.51"/>
<polygon fill="black" stroke="black" points="681.69,-403.14 671.15,-402.07 678.73,-409.48 681.69,-403.14"/>
</g>
<!-- BT -->
<g id="node5" class="node">
<title>BT</title>
<polygon fill="none" stroke="green" points="1462,-402 1289,-402 1289,-364 1462,-364 1462,-402"/>
<text text-anchor="middle" x="1375.5" y="-386.8" font-family="Times,serif" font-size="14.00">Book tickets</text>
<text text-anchor="middle" x="1375.5" y="-371.8" font-family="Times,serif" font-size="14.00">Do this using Expedia</text>
</g>
<!-- EH&#45;&gt;BT -->
<g id="edge1" class="edge">
<title>EH&#45;&gt;BT</title>
<path fill="none" stroke="black" d="M1053.47,-545.92C1119.14,-512.9 1258.31,-442.92 1330.28,-406.73"/>
<polygon fill="black" stroke="black" points="1332.2,-409.69 1339.56,-402.07 1329.05,-403.44 1332.2,-409.69"/>
</g>
<!-- PSNB -->
<g id="node6" class="node">
<title>PSNB</title>
<polygon fill="none" stroke="red" points="1144.5,-402 890.5,-402 890.5,-364 1144.5,-364 1144.5,-402"/>
<text text-anchor="middle" x="1017.5" y="-386.8" font-family="Times,serif" font-size="14.00">Pack suitcase night before</text>
<text text-anchor="middle" x="1017.5" y="-371.8" font-family="Times,serif" font-size="14.00">Suitcase in understairs cupboard</text>
</g>
<!-- EH&#45;&gt;PSNB -->
<g id="edge7" class="edge">
<title>EH&#45;&gt;PSNB</title>
<path fill="none" stroke="black" d="M1017.5,-545.75C1017.5,-514.27 1017.5,-449.55 1017.5,-412.22"/>
<polygon fill="black" stroke="black" points="1021,-412.03 1017.5,-402.03 1014,-412.03 1021,-412.03"/>
</g>
<!-- GCD -->
<g id="node11" class="node">
<title>GCD</title>
<polygon fill="none" stroke="orange" points="1891,-402 1606,-402 1606,-364 1891,-364 1891,-402"/>
<text text-anchor="middle" x="1748.5" y="-386.8" font-family="Times,serif" font-size="14.00">Get cash (DOLLARS)</text>
<text text-anchor="middle" x="1748.5" y="-371.8" font-family="Times,serif" font-size="14.00">From bureau de change under arches</text>
</g>
<!-- EH&#45;&gt;GCD -->
<g id="edge8" class="edge">
<title>EH&#45;&gt;GCD</title>
<path fill="none" stroke="black" d="M1090.6,-546C1227.35,-512.33 1521.01,-440.02 1665.18,-404.52"/>
<polygon fill="black" stroke="black" points="1666.43,-407.81 1675.3,-402.02 1664.75,-401.02 1666.43,-407.81"/>
</g>
<!-- BPB -->
<g id="node4" class="node">
<title>BPB</title>
<polygon fill="none" stroke="red" points="777,-220 366,-220 366,-182 777,-182 777,-220"/>
<text text-anchor="middle" x="571.5" y="-204.8" font-family="Times,serif" font-size="14.00">Buy phrase book</text>
<text text-anchor="middle" x="571.5" y="-189.8" font-family="Times,serif" font-size="14.00">They don&#39;t speak English, so need to know how to book</text>
</g>
<!-- BFR&#45;&gt;BPB -->
<g id="edge4" class="edge">
<title>BFR&#45;&gt;BPB</title>
<path fill="none" stroke="black" d="M626.32,-363.75C615.6,-332.13 593.53,-266.99 580.9,-229.75"/>
<polygon fill="black" stroke="black" points="584.13,-228.38 577.61,-220.03 577.51,-230.62 584.13,-228.38"/>
</g>
<!-- GTS -->
<g id="node9" class="node">
<title>GTS</title>
<polygon fill="none" stroke="orange" points="729,-38 576,-38 576,0 729,0 729,-38"/>
<text text-anchor="middle" x="652.5" y="-22.8" font-family="Times,serif" font-size="14.00">Go to the shops</text>
<text text-anchor="middle" x="652.5" y="-7.8" font-family="Times,serif" font-size="14.00">Need to go to town</text>
</g>
<!-- BPB&#45;&gt;GTS -->
<g id="edge5" class="edge">
<title>BPB&#45;&gt;GTS</title>
<path fill="none" stroke="black" d="M579.71,-181.75C594,-150 623.5,-84.44 640.23,-47.27"/>
<polygon fill="black" stroke="black" points="643.47,-48.59 644.39,-38.03 637.09,-45.71 643.47,-48.59"/>
</g>
<!-- GCG -->
<g id="node10" class="node">
<title>GCG</title>
<polygon fill="none" stroke="green" points="1080.5,-38 954.5,-38 954.5,0 1080.5,0 1080.5,-38"/>
<text text-anchor="middle" x="1017.5" y="-22.8" font-family="Times,serif" font-size="14.00">Get cash (GBP)</text>
<text text-anchor="middle" x="1017.5" y="-7.8" font-family="Times,serif" font-size="14.00">About 200 quid</text>
</g>
<!-- BPB&#45;&gt;GCG -->
<g id="edge6" class="edge">
<title>BPB&#45;&gt;GCG</title>
<path fill="none" stroke="black" d="M616.31,-181.92C698.79,-148.63 874.34,-77.78 963.35,-41.86"/>
<polygon fill="black" stroke="black" points="964.76,-45.06 972.72,-38.07 962.14,-38.57 964.76,-45.06"/>
</g>
<!-- BGB -->
<g id="node7" class="node">
<title>BGB</title>
<polygon fill="none" stroke="orange" points="1114,-220 921,-220 921,-182 1114,-182 1114,-220"/>
<text text-anchor="middle" x="1017.5" y="-204.8" font-family="Times,serif" font-size="14.00">Buy guide book</text>
<text text-anchor="middle" x="1017.5" y="-189.8" font-family="Times,serif" font-size="14.00">Ideally the Time Out one</text>
</g>
<!-- PSNB&#45;&gt;BGB -->
<g id="edge9" class="edge">
<title>PSNB&#45;&gt;BGB</title>
<path fill="none" stroke="black" d="M1017.5,-363.75C1017.5,-332.27 1017.5,-267.55 1017.5,-230.22"/>
<polygon fill="black" stroke="black" points="1021,-230.03 1017.5,-220.03 1014,-230.03 1021,-230.03"/>
</g>
<!-- BEC -->
<g id="node8" class="node">
<title>BEC</title>
<polygon fill="none" stroke="orange" points="1545,-220 1258,-220 1258,-182 1545,-182 1545,-220"/>
<text text-anchor="middle" x="1401.5" y="-204.8" font-family="Times,serif" font-size="14.00">Buy electric converter</text>
<text text-anchor="middle" x="1401.5" y="-189.8" font-family="Times,serif" font-size="14.00">Don&#39;t want to get ripped off at airport</text>
</g>
<!-- PSNB&#45;&gt;BEC -->
<g id="edge11" class="edge">
<title>PSNB&#45;&gt;BEC</title>
<path fill="none" stroke="black" d="M1056.08,-363.92C1126.66,-330.83 1276.41,-260.64 1353.47,-224.51"/>
<polygon fill="black" stroke="black" points="1355.38,-227.48 1362.95,-220.07 1352.41,-221.15 1355.38,-227.48"/>
</g>
<!-- BGB&#45;&gt;GTS -->
<g id="edge10" class="edge">
<title>BGB&#45;&gt;GTS</title>
<path fill="none" stroke="black" d="M980.83,-181.92C913.74,-148.83 771.4,-78.64 698.15,-42.51"/>
<polygon fill="black" stroke="black" points="699.66,-39.36 689.14,-38.07 696.57,-45.63 699.66,-39.36"/>
</g>
<!-- BGB&#45;&gt;GCG -->
<g id="edge12" class="edge">
<title>BGB&#45;&gt;GCG</title>
<path fill="none" stroke="black" d="M1017.5,-181.75C1017.5,-150.27 1017.5,-85.55 1017.5,-48.22"/>
<polygon fill="black" stroke="black" points="1021,-48.03 1017.5,-38.03 1014,-48.03 1021,-48.03"/>
</g>
<!-- BEC&#45;&gt;GCG -->
<g id="edge13" class="edge">
<title>BEC&#45;&gt;GCG</title>
<path fill="none" stroke="black" d="M1362.92,-181.92C1292.34,-148.83 1142.59,-78.64 1065.53,-42.51"/>
<polygon fill="black" stroke="black" points="1066.59,-39.15 1056.05,-38.07 1063.62,-45.48 1066.59,-39.15"/>
</g>
</g>
</svg>
