<?xml version="1.0" encoding="UTF-8" standalone="no"?>
<!DOCTYPE svg PUBLIC "-//W3C//DTD SVG 1.1//EN"
 "http://www.w3.org/Graphics/SVG/1.1/DTD/svg11.dtd">
<!-- Generated by graphviz version 2.42.4 (0)
 -->
<!-- Title: g Pages: 1 -->
<svg width="207pt" height="152pt"
 viewBox="0.00 0.00 207.00 152.00" xmlns="http://www.w3.org/2000/svg" xmlns:xlink="http://www.w3.org/1999/xlink">
<g id="graph0" class="graph" transform="scale(1 1) rotate(0) translate(4 148)">
<title>g</title>
<polygon fill="white" stroke="transparent" points="-4,4 -4,-148 203,-148 203,4 -4,4"/>
<!-- node0 -->
<g id="node1" class="node">
<title>node0</title>
<polygon fill="none" stroke="black" points="85.5,-120.5 85.5,-143.5 155.5,-143.5 155.5,-120.5 85.5,-120.5"/>
<text text-anchor="middle" x="96" y="-128.3" font-family="Times,serif" font-size="14.00"> </text>
<polyline fill="none" stroke="black" points="106.5,-120.5 106.5,-143.5 "/>
<text text-anchor="middle" x="120.5" y="-128.3" font-family="Times,serif" font-size="14.00">G</text>
<polyline fill="none" stroke="black" points="134.5,-120.5 134.5,-143.5 "/>
<text text-anchor="middle" x="145" y="-128.3" font-family="Times,serif" font-size="14.00"> </text>
</g>
<!-- node1 -->
<g id="node2" class="node">
<title>node1</title>
<polygon fill="none" stroke="black" points="43,-60.5 43,-83.5 112,-83.5 112,-60.5 43,-60.5"/>
<text text-anchor="middle" x="53.5" y="-68.3" font-family="Times,serif" font-size="14.00"> </text>
<polyline fill="none" stroke="black" points="64,-60.5 64,-83.5 "/>
<text text-anchor="middle" x="77.5" y="-68.3" font-family="Times,serif" font-size="14.00">E</text>
<polyline fill="none" stroke="black" points="91,-60.5 91,-83.5 "/>
<text text-anchor="middle" x="101.5" y="-68.3" font-family="Times,serif" font-size="14.00"> </text>
</g>
<!-- node0&#45;&gt;node1 -->
<g id="edge2" class="edge">
<title>node0:f0&#45;&gt;node1:f1</title>
<path fill="none" stroke="black" d="M95.5,-120C95.5,-106.16 84.73,-102.9 79.85,-93.85"/>
<polygon fill="black" stroke="black" points="83.23,-92.91 77.5,-84 76.42,-94.54 83.23,-92.91"/>
</g>
<!-- node4 -->
<g id="node5" class="node">
<title>node4</title>
<polygon fill="none" stroke="black" points="130,-60.5 130,-83.5 199,-83.5 199,-60.5 130,-60.5"/>
<text text-anchor="middle" x="140.5" y="-68.3" font-family="Times,serif" font-size="14.00"> </text>
<polyline fill="none" stroke="black" points="151,-60.5 151,-83.5 "/>
<text text-anchor="middle" x="164.5" y="-68.3" font-family="Times,serif" font-size="14.00">R</text>
<polyline fill="none" stroke="black" points="178,-60.5 178,-83.5 "/>
<text text-anchor="middle" x="188.5" y="-68.3" font-family="Times,serif" font-size="14.00"> </text>
</g>
<!-- node0&#45;&gt;node4 -->
<g id="edge1" class="edge">
<title>node0:f2&#45;&gt;node4:f1</title>
<path fill="none" stroke="black" d="M145.5,-120C145.5,-106.01 156.87,-102.95 162.02,-93.91"/>
<polygon fill="black" stroke="black" points="165.46,-94.55 164.5,-84 158.67,-92.85 165.46,-94.55"/>
</g>
<!-- node2 -->
<g id="node3" class="node">
<title>node2</title>
<polygon fill="none" stroke="black" points="0,-0.5 0,-23.5 69,-23.5 69,-0.5 0,-0.5"/>
<text text-anchor="middle" x="10.5" y="-8.3" font-family="Times,serif" font-size="14.00"> </text>
<polyline fill="none" stroke="black" points="21,-0.5 21,-23.5 "/>
<text text-anchor="middle" x="34.5" y="-8.3" font-family="Times,serif" font-size="14.00">B</text>
<polyline fill="none" stroke="black" points="48,-0.5 48,-23.5 "/>
<text text-anchor="middle" x="58.5" y="-8.3" font-family="Times,serif" font-size="14.00"> </text>
</g>
<!-- node1&#45;&gt;node2 -->
<g id="edge3" class="edge">
<title>node1:f0&#45;&gt;node2:f1</title>
<path fill="none" stroke="black" d="M53.5,-60C53.5,-46.01 42.13,-42.95 36.98,-33.91"/>
<polygon fill="black" stroke="black" points="40.33,-32.85 34.5,-24 33.54,-34.55 40.33,-32.85"/>
</g>
<!-- node3 -->
<g id="node4" class="node">
<title>node3</title>
<polygon fill="none" stroke="black" points="87.5,-0.5 87.5,-23.5 155.5,-23.5 155.5,-0.5 87.5,-0.5"/>
<text text-anchor="middle" x="98" y="-8.3" font-family="Times,serif" font-size="14.00"> </text>
<polyline fill="none" stroke="black" points="108.5,-0.5 108.5,-23.5 "/>
<text text-anchor="middle" x="121.5" y="-8.3" font-family="Times,serif" font-size="14.00">F</text>
<polyline fill="none" stroke="black" points="134.5,-0.5 134.5,-23.5 "/>
<text text-anchor="middle" x="145" y="-8.3" font-family="Times,serif" font-size="14.00"> </text>
</g>
<!-- node1&#45;&gt;node3 -->
<g id="edge4" class="edge">
<title>node1:f2&#45;&gt;node3:f1</title>
<path fill="none" stroke="black" d="M101.5,-60C101.5,-45.84 113.46,-43 118.89,-33.97"/>
<polygon fill="black" stroke="black" points="122.35,-34.56 121.5,-24 115.58,-32.78 122.35,-34.56"/>
</g>
</g>
</svg>
