<?xml version="1.0" encoding="UTF-8" standalone="no"?>
<!DOCTYPE svg PUBLIC "-//W3C//DTD SVG 1.1//EN"
 "http://www.w3.org/Graphics/SVG/1.1/DTD/svg11.dtd">
<!-- Generated by graphviz version 2.44.0 (0)
 -->
<!-- Title: structs Pages: 1 -->
<svg width="272pt" height="151pt"
 viewBox="0.00 0.00 271.50 151.00" xmlns="http://www.w3.org/2000/svg" xmlns:xlink="http://www.w3.org/1999/xlink">
<g id="graph0" class="graph" transform="scale(1 1) rotate(0) translate(4 147)">
<title>structs</title>
<polygon fill="white" stroke="transparent" points="-4,4 -4,-147 267.5,-147 267.5,4 -4,4"/>
<!-- struct1 -->
<g id="node1" class="node">
<title>struct1</title>
<polygon fill="none" stroke="black" points="8,-106.5 8,-142.5 147,-142.5 147,-106.5 8,-106.5"/>
<text text-anchor="middle" x="25.5" y="-120.8" font-family="Times-Roman" font-size="14.00">left</text>
<polyline fill="none" stroke="black" points="43,-106.5 43,-142.5 "/>
<text text-anchor="middle" x="73.5" y="-120.8" font-family="Times-Roman" font-size="14.00">mid dle</text>
<polyline fill="none" stroke="black" points="104,-106.5 104,-142.5 "/>
<text text-anchor="middle" x="125.5" y="-120.8" font-family="Times-Roman" font-size="14.00">right</text>
</g>
<!-- struct2 -->
<g id="node2" class="node">
<title>struct2</title>
<polygon fill="none" stroke="black" points="0,-17 0,-53 77,-53 77,-17 0,-17"/>
<text text-anchor="middle" x="19.5" y="-31.3" font-family="Times-Roman" font-size="14.00">one</text>
<polyline fill="none" stroke="black" points="39,-17 39,-53 "/>
<text text-anchor="middle" x="58" y="-31.3" font-family="Times-Roman" font-size="14.00">two</text>
</g>
<!-- struct1&#45;&gt;struct2 -->
<g id="edge1" class="edge">
<title>struct1:f1&#45;&gt;struct2:f0</title>
<path fill="none" stroke="black" d="M73.5,-106C73.5,-76.59 31.41,-84.55 21.55,-63.89"/>
<polygon fill="black" stroke="black" points="24.96,-63.08 19.5,-54 18.1,-64.5 24.96,-63.08"/>
</g>
<!-- struct3 -->
<g id="node3" class="node">
<title>struct3</title>
<polygon fill="none" stroke="black" points="95.5,-0.5 95.5,-69.5 263.5,-69.5 263.5,-0.5 95.5,-0.5"/>
<text text-anchor="middle" x="120" y="-38.8" font-family="Times-Roman" font-size="14.00">hello</text>
<text text-anchor="middle" x="120" y="-23.8" font-family="Times-Roman" font-size="14.00">world</text>
<polyline fill="none" stroke="black" points="144.5,-0.5 144.5,-69.5 "/>
<text text-anchor="middle" x="180" y="-54.3" font-family="Times-Roman" font-size="14.00">b</text>
<polyline fill="none" stroke="black" points="144.5,-46.5 215.5,-46.5 "/>
<text text-anchor="middle" x="156" y="-31.3" font-family="Times-Roman" font-size="14.00">c</text>
<polyline fill="none" stroke="black" points="167.5,-23.5 167.5,-46.5 "/>
<text text-anchor="middle" x="179.5" y="-31.3" font-family="Times-Roman" font-size="14.00">d</text>
<polyline fill="none" stroke="black" points="191.5,-23.5 191.5,-46.5 "/>
<text text-anchor="middle" x="203.5" y="-31.3" font-family="Times-Roman" font-size="14.00">e</text>
<polyline fill="none" stroke="black" points="144.5,-23.5 215.5,-23.5 "/>
<text text-anchor="middle" x="180" y="-8.3" font-family="Times-Roman" font-size="14.00">f</text>
<polyline fill="none" stroke="black" points="215.5,-0.5 215.5,-69.5 "/>
<text text-anchor="middle" x="227.5" y="-31.3" font-family="Times-Roman" font-size="14.00">g</text>
<polyline fill="none" stroke="black" points="239.5,-0.5 239.5,-69.5 "/>
<text text-anchor="middle" x="251.5" y="-31.3" font-family="Times-Roman" font-size="14.00">h</text>
</g>
<!-- struct1&#45;&gt;struct3 -->
<g id="edge2" class="edge">
<title>struct1:f2&#45;&gt;struct3:here</title>
<path fill="none" stroke="black" d="M125.5,-106C125.5,-94.09 145,-70.86 160.56,-54.21"/>
<polygon fill="black" stroke="black" points="163.41,-56.29 167.78,-46.64 158.35,-51.46 163.41,-56.29"/>
</g>
</g>
</svg>
