<?xml version="1.0" encoding="UTF-8" standalone="no"?>
<!DOCTYPE svg PUBLIC "-//W3C//DTD SVG 1.1//EN"
 "http://www.w3.org/Graphics/SVG/1.1/DTD/svg11.dtd">
<!-- Generated by graphviz version 2.44.0 (0)
 -->
<!-- Title: structs Pages: 1 -->
<svg width="242pt" height="216pt"
 viewBox="0.00 0.00 242.00 216.00" xmlns="http://www.w3.org/2000/svg" xmlns:xlink="http://www.w3.org/1999/xlink">
<g id="graph0" class="graph" transform="scale(1 1) rotate(0) translate(4 212)">
<title>structs</title>
<polygon fill="white" stroke="transparent" points="-4,4 -4,-212 238,-212 238,4 -4,4"/>
<!-- hashTable -->
<g id="node1" class="node">
<title>hashTable</title>
<polygon fill="none" stroke="black" points="0,-0.5 0,-207.5 54,-207.5 54,-0.5 0,-0.5"/>
<text text-anchor="middle" x="27" y="-192.3" font-family="Times-Roman" font-size="14.00">0</text>
<polyline fill="none" stroke="black" points="0,-184.5 54,-184.5 "/>
<text text-anchor="middle" x="27" y="-169.3" font-family="Times-Roman" font-size="14.00">1</text>
<polyline fill="none" stroke="black" points="0,-161.5 54,-161.5 "/>
<text text-anchor="middle" x="27" y="-146.3" font-family="Times-Roman" font-size="14.00">2</text>
<polyline fill="none" stroke="black" points="0,-138.5 54,-138.5 "/>
<text text-anchor="middle" x="27" y="-123.3" font-family="Times-Roman" font-size="14.00">3</text>
<polyline fill="none" stroke="black" points="0,-115.5 54,-115.5 "/>
<text text-anchor="middle" x="27" y="-100.3" font-family="Times-Roman" font-size="14.00">4</text>
<polyline fill="none" stroke="black" points="0,-92.5 54,-92.5 "/>
<text text-anchor="middle" x="27" y="-77.3" font-family="Times-Roman" font-size="14.00">5</text>
<polyline fill="none" stroke="black" points="0,-69.5 54,-69.5 "/>
<text text-anchor="middle" x="27" y="-54.3" font-family="Times-Roman" font-size="14.00">6</text>
<polyline fill="none" stroke="black" points="0,-46.5 54,-46.5 "/>
<text text-anchor="middle" x="27" y="-31.3" font-family="Times-Roman" font-size="14.00">7</text>
<polyline fill="none" stroke="black" points="0,-23.5 54,-23.5 "/>
<text text-anchor="middle" x="27" y="-8.3" font-family="Times-Roman" font-size="14.00">8</text>
</g>
<!-- node_1_0 -->
<g id="node2" class="node">
<title>node_1_0</title>
<polygon fill="none" stroke="black" points="90,-125.5 90,-194.5 144,-194.5 144,-125.5 90,-125.5"/>
<text text-anchor="middle" x="117" y="-179.3" font-family="Times-Roman" font-size="14.00">one</text>
<polyline fill="none" stroke="black" points="90,-171.5 144,-171.5 "/>
<text text-anchor="middle" x="117" y="-156.3" font-family="Times-Roman" font-size="14.00">two</text>
<polyline fill="none" stroke="black" points="90,-148.5 144,-148.5 "/>
<text text-anchor="middle" x="117" y="-133.3" font-family="Times-Roman" font-size="14.00">three</text>
</g>
<!-- hashTable&#45;&gt;node_1_0 -->
<g id="edge1" class="edge">
<title>hashTable:f1&#45;&gt;node_1_0:f0</title>
<path fill="none" stroke="black" d="M54,-173C66.58,-173 71.23,-178.74 79.97,-181.52"/>
<polygon fill="black" stroke="black" points="79.6,-185.01 90,-183 80.62,-178.08 79.6,-185.01"/>
</g>
<!-- struct3 -->
<g id="node4" class="node">
<title>struct3</title>
<polygon fill="none" stroke="black" points="90,-37.5 90,-106.5 144,-106.5 144,-37.5 90,-37.5"/>
<text text-anchor="middle" x="117" y="-91.3" font-family="Times-Roman" font-size="14.00">einz</text>
<polyline fill="none" stroke="black" points="90,-83.5 144,-83.5 "/>
<text text-anchor="middle" x="117" y="-68.3" font-family="Times-Roman" font-size="14.00">swei</text>
<polyline fill="none" stroke="black" points="90,-60.5 144,-60.5 "/>
<text text-anchor="middle" x="117" y="-45.3" font-family="Times-Roman" font-size="14.00">drei</text>
</g>
<!-- hashTable&#45;&gt;struct3 -->
<g id="edge3" class="edge">
<title>hashTable:f4&#45;&gt;struct3:f0</title>
<path fill="none" stroke="black" d="M54,-104C66.5,-104 71.26,-98.83 80.01,-96.33"/>
<polygon fill="black" stroke="black" points="80.55,-99.79 90,-95 79.63,-92.85 80.55,-99.79"/>
</g>
<!-- node_1_1 -->
<g id="node3" class="node">
<title>node_1_1</title>
<polygon fill="none" stroke="black" points="180,-79.5 180,-148.5 234,-148.5 234,-79.5 180,-79.5"/>
<text text-anchor="middle" x="207" y="-133.3" font-family="Times-Roman" font-size="14.00">un</text>
<polyline fill="none" stroke="black" points="180,-125.5 234,-125.5 "/>
<text text-anchor="middle" x="207" y="-110.3" font-family="Times-Roman" font-size="14.00">deux</text>
<polyline fill="none" stroke="black" points="180,-102.5 234,-102.5 "/>
<text text-anchor="middle" x="207" y="-87.3" font-family="Times-Roman" font-size="14.00">trois</text>
</g>
<!-- node_1_0&#45;&gt;node_1_1 -->
<g id="edge2" class="edge">
<title>node_1_0:f2&#45;&gt;node_1_1:f0</title>
<path fill="none" stroke="black" d="M144,-137C156,-137 161.25,-137 169.88,-137"/>
<polygon fill="black" stroke="black" points="170,-140.5 180,-137 170,-133.5 170,-140.5"/>
</g>
</g>
</svg>
