/* XPM */
static char * top_left_inactive_xpm[] = {
"2 26 3 1",
" 	c None",
".	c #AAAAAA",
"+	c #EDEDED",
" .",
".+",
".+",
".+",
".+",
".+",
".+",
".+",
".+",
".+",
".+",
".+",
".+",
".+",
".+",
".+",
".+",
".+",
".+",
".+",
".+",
".+",
".+",
".+",
".+",
".+"};
