/* XPM */
static char * errmail_xpm[] = {
"16 16 76 1",
" 	c None",
".	c #888A85",
"+	c #FFFFFF",
"@	c #D9D6D0",
"#	c #C9C7C1",
"$	c #C1BFBA",
"%	c #AFACA9",
"&	c #A1A09A",
"*	c #A8A7A1",
"=	c #BEBDB9",
"-	c #CECDCA",
";	c #CFCECC",
">	c #C6C5C5",
",	c #BDBDBD",
"'	c #E4E4E3",
")	c #B9B8B3",
"!	c #95948E",
"~	c #DBDAD9",
"{	c #ECECEB",
"]	c #F5F5F5",
"^	c #C5C5C5",
"/	c #B1AEAA",
"(	c #EAEAE9",
"_	c #F7F7F7",
":	c #AFAEAC",
"<	c #A60000",
"[	c #A50000",
"}	c #E6E5E2",
"|	c #AAA9A7",
"1	c #EBEBEB",
"2	c #A40000",
"3	c #C30000",
"4	c #C70707",
"5	c #C90E0E",
"6	c #C60000",
"7	c #CA1313",
"8	c #C60101",
"9	c #FBFBF8",
"0	c #E2E2DF",
"a	c #929191",
"b	c #CD0707",
"c	c #F2C1C1",
"d	c #F6D3D3",
"e	c #D32626",
"f	c #F9E4E4",
"g	c #ECA2A2",
"h	c #CC0101",
"i	c #F0EFED",
"j	c #A5A29D",
"k	c #D42B2B",
"l	c #FDF5F5",
"m	c #FEFCFC",
"n	c #FEFDFD",
"o	c #FBEBEB",
"p	c #D01818",
"q	c #FBFAF7",
"r	c #B2B1AE",
"s	c #CC0000",
"t	c #DB4C4C",
"u	c #D52E2E",
"v	c #C9C7C4",
"w	c #F7F5F1",
"x	c #D11A1A",
"y	c #F5D1D1",
"z	c #CE0D0D",
"A	c #F0F0F0",
"B	c #F9E1E1",
"C	c #FBECEC",
"D	c #DD5959",
"E	c #FDF6F6",
"F	c #F4CCCC",
"G	c #CE0C0C",
"H	c #C80000",
"I	c #D01717",
"J	c #D32323",
"K	c #CE0A0A",
"                ",
"                ",
"      .....     ",
"     .+++++.    ",
"    .+@#$%&+.   ",
"   .+@*=-;>,+.  ",
"  .')!~{]++^/(. ",
"  ._:]++<[[[[[< ",
"  .+}|1234567832",
"  .+90a2bcdefgh2",
"  .+9ij2klmnnop2",
"  .+qr92stm+nus2",
"  .+v9w2xfnmmyz2",
"  .A+++2pBCDEFG2",
"  .....2HIJsuKH2",
"        2222222 "};
