/* XPM */
static char * newmail_xpm[] = {
"16 16 75 1",
" 	c None",
".	c #888A85",
"+	c #8B8C81",
"@	c #BAB652",
"#	c #F8EE20",
"$	c #FFF52C",
"%	c #FFF41F",
"&	c #FFF415",
"*	c #FFFFFF",
"=	c #FFFCCE",
"-	c #FFF767",
";	c #F5EE55",
">	c #FEF99F",
",	c #FFF980",
"'	c #D9D6D0",
")	c #C9C7C1",
"!	c #C1BFBA",
"~	c #C1BC83",
"{	c #E3DB3E",
"]	c #FFF873",
"^	c #FCFAD3",
"/	c #A8A7A1",
"(	c #BEBDB9",
"_	c #CECDCA",
":	c #D4D2B3",
"<	c #E5DF61",
"[	c #F8EF3B",
"}	c #E4E4E3",
"|	c #B9B8B3",
"1	c #95948E",
"2	c #DBDAD9",
"3	c #ECECEB",
"4	c #F5F5F5",
"5	c #FFFBC1",
"6	c #E8DF43",
"7	c #F7F05F",
"8	c #AAA862",
"9	c #F7F7F7",
"0	c #AFAEAC",
"a	c #EBEBEB",
"b	c #D9D9CE",
"c	c #D2CFB5",
"d	c #F7F6EB",
"e	c #E6E5E2",
"f	c #AAA9A7",
"g	c #E1E1E1",
"h	c #D8D8D8",
"i	c #CFCFCF",
"j	c #A6A5A1",
"k	c #F3F3F2",
"l	c #FBFBF8",
"m	c #E2E2DF",
"n	c #929191",
"o	c #B6B4B3",
"p	c #BCBBB7",
"q	c #A1A0A0",
"r	c #F7F5F3",
"s	c #F0EFED",
"t	c #A5A29D",
"u	c #908D87",
"v	c #F9F7F3",
"w	c #F2F0EC",
"x	c #FBFAF7",
"y	c #B2B1AE",
"z	c #F9F8F4",
"A	c #E9E7E2",
"B	c #C9C7C4",
"C	c #F7F5F1",
"D	c #FAF9F6",
"E	c #F8F6F2",
"F	c #FAF8F5",
"G	c #F7F5F2",
"H	c #EBE8E3",
"I	c #CFCECA",
"J	c #F0F0F0",
"                ",
"                ",
"      ...+@#$%& ",
"     .***=-;>,% ",
"    .*')!~{]^>$ ",
"   .*'/(_:<[];# ",
"  .}|1234*5<678 ",
"  .904****abcd. ",
"  .*efaaghijk*. ",
"  .*lmnoopqkr*. ",
"  .*lstllluvw*. ",
"  .*xylllzzpA*. ",
"  .*BlCDEFGHI*. ",
"  .J*********J. ",
"  ............. ",
"                "};
