/* XPM */
static char * nomail_xpm[] = {
"16 16 57 1",
" 	c None",
".	c #888A85",
"+	c #9B9B9B",
"@	c #84827E",
"#	c #7A7975",
"$	c #757471",
"%	c #6A6967",
"&	c #62615E",
"*	c #666662",
"=	c #737370",
"-	c #7D7D7B",
";	c #7E7D7C",
">	c #787878",
",	c #737373",
"'	c #8B8B8A",
")	c #70706D",
"!	c #5B5A56",
"~	c #858584",
"{	c #8F8F8F",
"]	c #959595",
"^	c #6C6A67",
"/	c #8E8E8E",
"(	c #969696",
"_	c #6A6A69",
":	c #838383",
"<	c #7D7C7A",
"[	c #8C8B89",
"}	c #676766",
"|	c #898989",
"1	c #7E7E7E",
"2	c #656462",
"3	c #949493",
"4	c #999997",
"5	c #898988",
"6	c #595858",
"7	c #6F6D6D",
"8	c #72726F",
"9	c #626161",
"0	c #969594",
"a	c #929190",
"b	c #64625F",
"c	c #585652",
"d	c #979694",
"e	c #93928F",
"f	c #999896",
"g	c #6C6C6A",
"h	c #979794",
"i	c #8E8C89",
"j	c #7A7977",
"k	c #969592",
"l	c #989796",
"m	c #979693",
"n	c #989795",
"o	c #969593",
"p	c #8F8D8A",
"q	c #7E7D7B",
"r	c #929292",
"                ",
"                ",
"      .....     ",
"     .+++++.    ",
"    .+@#$%&+.   ",
"   .+@*=-;>,+.  ",
"  .')!~{]++>^/. ",
"  .(_]++++{:<(. ",
"  .+[}{{|:123+. ",
"  .+456778930+. ",
"  .+4ab444cde+. ",
"  .+fg444hh8i+. ",
"  .+j4klmnopq+. ",
"  .r+++++++++r. ",
"  ............. ",
"                "};
