/* XPM */
static char * close_xpm[] = {
"27 27 8 1",
" 	c None",
".	c #272B2B",
"+	c #ADAFAF",
"@	c #B9BABA",
"#	c #363A3A",
"$	c #E6E6E6",
"%	c #C5C6C6",
"&	c #C7C8C8",
"...........................",
"...........................",
"...........................",
"...........................",
"...........................",
"...........................",
"...........................",
"...........................",
"...........................",
".........+@#..#@+..........",
".........@$%##%$@..........",
".........#%$&&$%#..........",
"..........#&$$&#...........",
"..........#&$$&#...........",
".........#%$&&$%#..........",
".........@$%##%$@..........",
".........+@#..#@+..........",
"...........................",
"...........................",
"...........................",
"...........................",
"...........................",
"...........................",
"...........................",
"...........................",
"...........................",
"..........................."};
