/* XPM */
static char * close_unfocused_xpm[] = {
"27 27 6 1",
" 	c None",
".	c #788484",
"+	c #B6B6B6",
"@	c #7F8A8A",
"#	c #CCCCCC",
"$	c #B2B6B6",
"...........................",
"...........................",
"...........................",
"...........................",
"...........................",
"...........................",
"...........................",
"...........................",
"...........................",
".........++@..@++..........",
".........+#+@@+#+..........",
".........@+#++#+@..........",
"..........@+##+@...........",
"..........@+##+@...........",
".........@+#++#+@..........",
".........+#+@@+#+..........",
".........$+@..@+$..........",
"...........................",
"...........................",
"...........................",
"...........................",
"...........................",
"...........................",
"...........................",
"...........................",
"...........................",
"..........................."};
