/* XPM */
static char * max_unfocused_xpm[] = {
"27 27 6 1",
" 	c None",
".	c #788484",
"+	c #B6B6B6",
"@	c #CCCCCC",
"#	c #CACACA",
"$	c #798585",
"...........................",
"...........................",
"...........................",
"...........................",
"...........................",
"...........................",
"...........................",
"...........................",
"...........................",
"............++.............",
"............@@.............",
"............@@.............",
".........+@@@@@@+..........",
".........+@@@@@@+..........",
"............@@.............",
"............#@$............",
"............++.............",
"...........................",
"...........................",
"...........................",
"...........................",
"...........................",
"...........................",
"...........................",
"...........................",
"...........................",
"..........................."};
