/* XPM */
static char * max_xpm[] = {
"27 27 10 1",
" 	c None",
".	c #272B2B",
"+	c #ADAFAF",
"@	c #E6E6E6",
"#	c #B3B4B4",
"$	c #A8A9A9",
"%	c #E2E2E2",
"&	c #2B2F2F",
"*	c #A7A9A9",
"=	c #B4B5B5",
"...........................",
"...........................",
"...........................",
"...........................",
"...........................",
"...........................",
"...........................",
"...........................",
"...........................",
"............++.............",
"............@@.............",
"............@@.............",
".........+@@@@@@#..........",
".........+@@@@@@$..........",
"............@@.............",
"............%@&............",
"............*=.............",
"...........................",
"...........................",
"...........................",
"...........................",
"...........................",
"...........................",
"...........................",
"...........................",
"...........................",
"..........................."};
