/* XPM */
static char * stick_pressed_xpm[] = {
"27 27 39 1",
" 	c None",
".	c #1C1C1C",
"+	c #23282F",
"@	c #38516C",
"#	c #4B76A4",
"$	c #5487BE",
"%	c #22282E",
"&	c #1D1F21",
"*	c #3F6185",
"=	c #5D9ADB",
"-	c #5F9CDE",
";	c #3F6084",
">	c #1D1E20",
",	c #1E2123",
"'	c #4E7CAE",
")	c #1E2022",
"!	c #446991",
"~	c #43678E",
"{	c #27333F",
"]	c #5E9BDD",
"^	c #28323D",
"/	c #466D98",
"(	c #466D97",
"_	c #5B94D2",
":	c #5A93D1",
"<	c #5A92D0",
"[	c #28323E",
"}	c #5E9ADC",
"|	c #5E9ADB",
"1	c #43688F",
"2	c #1D1F22",
"3	c #5D98D8",
"4	c #5C97D7",
"5	c #416184",
"6	c #1D1E1F",
"7	c #22272D",
"8	c #374F6A",
"9	c #4C76A4",
"0	c #5386BE",
"...........................",
"...........................",
"...........................",
"...........................",
"...........................",
".........+@#$$#@%..........",
".......&*=------=;>........",
"......,'----------').......",
"......!------------~.......",
".....{]------------]^......",
"...../--------------(......",
"....._--------------:......",
".....----------------......",
".....----------------......",
".....:--------------<......",
".....(--------------(......",
".....[}------------|^......",
"......1------------~.......",
"......2'----------'>.......",
".......>;3------456........",
".........78900987..........",
"...........................",
"...........................",
"...........................",
"...........................",
"...........................",
"..........................."};
