/* XPM */
static char * stick_unfocused_xpm[] = {
"27 27 48 1",
" 	c None",
".	c #788484",
"+	c #808A8A",
"@	c #9AA1A1",
"#	c #B2B6B6",
"$	c #BEC0C0",
"%	c #808B8B",
"&	c #7A8585",
"*	c #A5AAAA",
"=	c #CACACA",
"-	c #CCCCCC",
";	c #C6C7C7",
">	c #7B8686",
",	c #B7BABA",
"'	c #C7C8C8",
")	c #A0A6A6",
"!	c #7D8888",
"~	c #7E8989",
"{	c #C8C8C8",
"]	c #7A8686",
"^	c #ABB0B0",
"/	c #C2C4C4",
"(	c #869090",
"_	c #879090",
":	c #C3C4C4",
"<	c #A9AEAE",
"[	c #879191",
"}	c #CBCBCB",
"|	c #C9CACA",
"1	c #889191",
"2	c #899393",
"3	c #ADB2B2",
"4	c #ABAFAF",
"5	c #ACB0B0",
"6	c #ACB1B1",
"7	c #C7C7C7",
"8	c #919999",
"9	c #929A9A",
"0	c #C6C6C6",
"a	c #ADB1B1",
"b	c #8A9393",
"c	c #A1A7A7",
"d	c #C8C9C9",
"e	c #C9C9C9",
"f	c #A4AAAA",
"g	c #798585",
"h	c #7F8A8A",
"i	c #BDBFBF",
"...........................",
"...........................",
"...........................",
"...........................",
"...........................",
".........+@#$$#@%..........",
".......&*=--;;--=*&........",
"......>,-')!..~){-,].......",
"......^-/(......_:-<.......",
".....[}|1........2=}(......",
".....3-4..........5-6......",
".....7-8..........9-;......",
".....--(..........(--......",
".....--(.........._--......",
".....;-8..........9-0......",
".....6-5..........a-6......",
".....(}|2........b=}(......",
"......<-:[......[:-<.......",
"......],-{)~..~cd-,&.......",
".......&*|--;;--efg........",
".........h@#ii#@h..........",
"...........................",
"...........................",
"...........................",
"...........................",
"...........................",
"..........................."};
