/* XPM */
static char * stick_xpm[] = {
"27 27 58 1",
" 	c None",
".	c #272B2B",
"+	c #3A3D3D",
"@	c #767878",
"#	c #ADAFAF",
"$	c #C7C7C7",
"%	c #393C3C",
"&	c #2B2F2F",
"*	c #8E9090",
"=	c #E1E1E1",
"-	c #E6E6E6",
";	c #D9D9D9",
">	c #8D8F8F",
",	c #2E3232",
"'	c #B7B8B8",
")	c #DCDCDC",
"!	c #828484",
"~	c #333737",
"{	c #343737",
"]	c #838585",
"^	c #DDDDDD",
"/	c #2D3131",
"(	c #9A9B9B",
"_	c #D1D1D1",
":	c #494C4C",
"<	c #484C4C",
"[	c #D1D2D2",
"}	c #989999",
"|	c #494D4D",
"1	c #E4E4E4",
"2	c #E0E0E0",
"3	c #4C4F4F",
"4	c #4D5151",
"5	c #484B4B",
"6	c #A1A2A2",
"7	c #9D9E9E",
"8	c #9D9F9F",
"9	c #A0A1A1",
"0	c #DADBDB",
"a	c #616363",
"b	c #626565",
"c	c #DADADA",
"d	c #636666",
"e	c #D8D8D8",
"f	c #4F5252",
"g	c #E3E3E3",
"h	c #989A9A",
"i	c #4A4D4D",
"j	c #2C3030",
"k	c #B6B7B7",
"l	c #353838",
"m	c #858787",
"n	c #DEDEDE",
"o	c #DFDFDF",
"p	c #383C3C",
"q	c #747676",
"r	c #ADAEAE",
"s	c #C6C7C7",
"...........................",
"...........................",
"...........................",
"...........................",
"...........................",
".........+@#$$#@%..........",
".......&*=--;;--=>&........",
"......,'-)!~..{]^-'/.......",
"......(-_:......<[-}.......",
".....|123........4=15......",
".....6-7..........8-9......",
".....0-a..........b-;......",
".....--:..........:--......",
".....--:..........<--......",
".....c-a..........d-e......",
".....9-8..........7-9......",
".....:124........f=g5......",
"......h-[|......i[-}.......",
"......jk-^]l..lmn-k&.......",
".......&>2--;;--o*&........",
".........pqrssrqp..........",
"...........................",
"...........................",
"...........................",
"...........................",
"...........................",
"..........................."};
