/* XPM */
static char * shade_toggled_active_xpm[] = {
"32 26 4 1",
" 	c None",
".	c #2D2D2D",
"+	c #444444",
"@	c #EEEEEE",
"................................",
"++++++++++++++++++++++++++++++++",
"++++++++++++++++++++++++++++++++",
"++++++++++++++++++++++++++++++++",
"++++++++++++++++++++++++++++++++",
"++++++++++++++++++++++++++++++++",
"++++++++++++++++++++++++++++++++",
"++++++++++++++++++++++++++++++++",
"++++++++++++++++++++++++++++++++",
"+++++++++++++++@@+++++++++++++++",
"+++++++++++++++@@+++++++++++++++",
"+++++++++++++++@@+++++++++++++++",
"+++++++++++@@@+@@+@@@+++++++++++",
"++++++++++++@@@@@@@@++++++++++++",
"+++++++++++++@@@@@@+++++++++++++",
"++++++++++++++@@@@++++++++++++++",
"+++++++++++++++@@+++++++++++++++",
"++++++++++++++++++++++++++++++++",
"++++++++++++++++++++++++++++++++",
"++++++++++++++++++++++++++++++++",
"++++++++++++++++++++++++++++++++",
"++++++++++++++++++++++++++++++++",
"++++++++++++++++++++++++++++++++",
"++++++++++++++++++++++++++++++++",
"++++++++++++++++++++++++++++++++",
"................................"};
