/* XPM */
static char * stick_pressed_xpm[] = {
"32 26 5 1",
" 	c None",
".	c #2D2D2D",
"+	c #292929",
"@	c #000000",
"#	c #366CA2",
"....++++++++++++++++++++++++....",
"@@@@@@@@@@@@@@@@@@@@@@@@@@@@@@@@",
"@@@@@@@@@@@@@@@@@@@@@@@@@@@@@@@@",
"@@@@@@@@@@@@@@@@@@@@@@@@@@@@@@@@",
"@@@@@@@@@@@@@@@@@@@@@@@@@@@@@@@@",
"@@@@@@@@@@@@@@@@@@@@@@@@@@@@@@@@",
"@@@@@@@@@@@@@@@@@@@@@@@@@@@@@@@@",
"@@@@@@@@@@@@@@@@@@@@@@@@@@@@@@@@",
"@@@@@@@@@@@@@@@@@@@@@@@@@@@@@@@@",
"@@@@@@@@@@@@@@@##@@@@@@@@@@@@@@@",
"@@@@@@@@@@@@@######@@@@@@@@@@@@@",
"@@@@@@@@@@@@@##@@##@@@@@@@@@@@@@",
"@@@@@@@@@@@@##@@@@##@@@@@@@@@@@@",
"@@@@@@@@@@@@##@@@@##@@@@@@@@@@@@",
"@@@@@@@@@@@@@##@@##@@@@@@@@@@@@@",
"@@@@@@@@@@@@@######@@@@@@@@@@@@@",
"@@@@@@@@@@@@@@@##@@@@@@@@@@@@@@@",
"@@@@@@@@@@@@@@@@@@@@@@@@@@@@@@@@",
"@@@@@@@@@@@@@@@@@@@@@@@@@@@@@@@@",
"@@@@@@@@@@@@@@@@@@@@@@@@@@@@@@@@",
"@@@@@@@@@@@@@@@@@@@@@@@@@@@@@@@@",
"@@@@@@@@@@@@@@@@@@@@@@@@@@@@@@@@",
"@@@@@@@@@@@@@@@@@@@@@@@@@@@@@@@@",
"@@@@@@@@@@@@@@@@@@@@@@@@@@@@@@@@",
"@@@@@@@@@@@@@@@@@@@@@@@@@@@@@@@@",
"....++++++++++++++++++++++++...."};
