/* XPM */
static char * top_left_active_xpm[] = {
"2 26 3 1",
" 	c None",
".	c #2D2D2D",
"+	c #444444",
"..",
".+",
".+",
".+",
".+",
".+",
".+",
".+",
".+",
".+",
".+",
".+",
".+",
".+",
".+",
".+",
".+",
".+",
".+",
".+",
".+",
".+",
".+",
".+",
".+",
".."};
