/* XPM */
static char * top_right_inactive_xpm[] = {
"2 26 3 1",
" 	c None",
".	c #444444",
"+	c #6A6A6A",
"..",
"+.",
"+.",
"+.",
"+.",
"+.",
"+.",
"+.",
"+.",
"+.",
"+.",
"+.",
"+.",
"+.",
"+.",
"+.",
"+.",
"+.",
"+.",
"+.",
"+.",
"+.",
"+.",
"+.",
"+.",
".."};
